<svg width="237" height="146" viewBox="0 0 237 146" fill="none" xmlns="http://www.w3.org/2000/svg">
<path d="M26.5 6.77295V125.773" stroke="#F0F0F0"/>
<path d="M69.5 6.77295V125.773" stroke="#F0F0F0"/>
<path d="M113.5 6.77295V125.773" stroke="#F0F0F0"/>
<path d="M156.5 6.77295V125.773" stroke="#F0F0F0"/>
<path d="M199.5 6.77295V125.773" stroke="#F0F0F0"/>
<path d="M27 126.273H233" stroke="#F0F0F0"/>
<path d="M27 67.2729H233" stroke="#F0F0F0"/>
<path d="M27 6.27295H233" stroke="#F0F0F0"/>
<path d="M27 126.273H233" stroke="#F0F0F0"/>
<path d="M26.5 6.77295V125.773" stroke="#F0F0F0"/>
<path d="M20.9453 135.664V142.773H20.0176V135.664H20.9453ZM23.2305 135.664V136.435H17.7373V135.664H23.2305ZM25.8525 142.871C25.4847 142.871 25.151 142.809 24.8516 142.685C24.5553 142.558 24.2998 142.381 24.085 142.153C23.8734 141.925 23.7106 141.655 23.5967 141.342C23.4827 141.03 23.4258 140.688 23.4258 140.317V140.112C23.4258 139.682 23.4893 139.3 23.6162 138.964C23.7432 138.626 23.9157 138.339 24.1338 138.105C24.3519 137.871 24.5993 137.693 24.876 137.573C25.1527 137.452 25.4391 137.392 25.7354 137.392C26.113 137.392 26.4385 137.457 26.7119 137.587C26.9886 137.718 27.2148 137.9 27.3906 138.134C27.5664 138.365 27.6966 138.639 27.7812 138.955C27.8659 139.267 27.9082 139.609 27.9082 139.98V140.385H23.9629V139.648H27.0049V139.58C26.9919 139.345 26.943 139.117 26.8584 138.896C26.777 138.675 26.6468 138.492 26.4678 138.349C26.2887 138.206 26.0446 138.134 25.7354 138.134C25.5303 138.134 25.3415 138.178 25.1689 138.266C24.9964 138.351 24.8483 138.478 24.7246 138.647C24.6009 138.816 24.5049 139.023 24.4365 139.267C24.3682 139.511 24.334 139.793 24.334 140.112V140.317C24.334 140.568 24.3682 140.804 24.4365 141.025C24.5081 141.243 24.6107 141.435 24.7441 141.601C24.8809 141.767 25.0452 141.897 25.2373 141.992C25.4326 142.086 25.654 142.133 25.9014 142.133C26.2204 142.133 26.4906 142.068 26.7119 141.938C26.9333 141.808 27.127 141.634 27.293 141.416L27.8398 141.85C27.7259 142.023 27.5811 142.187 27.4053 142.343C27.2295 142.5 27.013 142.626 26.7559 142.724C26.502 142.822 26.2008 142.871 25.8525 142.871ZM29.5732 137.49L30.7305 139.414L31.9023 137.49H32.9619L31.2334 140.097L33.0156 142.773H31.9707L30.75 140.791L29.5293 142.773H28.4795L30.2568 140.097L28.5332 137.49H29.5732ZM36.1357 137.49V138.183H33.2793V137.49H36.1357ZM34.2461 136.206H35.1494V141.464C35.1494 141.643 35.1771 141.778 35.2324 141.87C35.2878 141.961 35.3594 142.021 35.4473 142.05C35.5352 142.08 35.6296 142.094 35.7305 142.094C35.8053 142.094 35.8835 142.088 35.9648 142.075C36.0495 142.058 36.113 142.045 36.1553 142.036L36.1602 142.773C36.0885 142.796 35.9941 142.817 35.877 142.836C35.763 142.859 35.6247 142.871 35.4619 142.871C35.2406 142.871 35.0371 142.827 34.8516 142.739C34.666 142.651 34.5179 142.504 34.4072 142.299C34.2998 142.091 34.2461 141.811 34.2461 141.459V136.206Z" fill="#A3A3A3"/>
<path d="M64.3137 135.664V142.773H63.386V135.664H64.3137ZM66.5989 135.664V136.435H61.1057V135.664H66.5989ZM69.221 142.871C68.8531 142.871 68.5195 142.809 68.22 142.685C67.9238 142.558 67.6682 142.381 67.4534 142.153C67.2418 141.925 67.079 141.655 66.9651 141.342C66.8512 141.03 66.7942 140.688 66.7942 140.317V140.112C66.7942 139.682 66.8577 139.3 66.9846 138.964C67.1116 138.626 67.2841 138.339 67.5022 138.105C67.7203 137.871 67.9677 137.693 68.2444 137.573C68.5211 137.452 68.8076 137.392 69.1038 137.392C69.4814 137.392 69.8069 137.457 70.0803 137.587C70.357 137.718 70.5833 137.9 70.759 138.134C70.9348 138.365 71.065 138.639 71.1497 138.955C71.2343 139.267 71.2766 139.609 71.2766 139.98V140.385H67.3313V139.648H70.3733V139.58C70.3603 139.345 70.3115 139.117 70.2268 138.896C70.1454 138.675 70.0152 138.492 69.8362 138.349C69.6572 138.206 69.413 138.134 69.1038 138.134C68.8987 138.134 68.7099 138.178 68.5374 138.266C68.3648 138.351 68.2167 138.478 68.093 138.647C67.9693 138.816 67.8733 139.023 67.8049 139.267C67.7366 139.511 67.7024 139.793 67.7024 140.112V140.317C67.7024 140.568 67.7366 140.804 67.8049 141.025C67.8766 141.243 67.9791 141.435 68.1126 141.601C68.2493 141.767 68.4137 141.897 68.6057 141.992C68.801 142.086 69.0224 142.133 69.2698 142.133C69.5888 142.133 69.859 142.068 70.0803 141.938C70.3017 141.808 70.4954 141.634 70.6614 141.416L71.2083 141.85C71.0943 142.023 70.9495 142.187 70.7737 142.343C70.5979 142.5 70.3814 142.626 70.1243 142.724C69.8704 142.822 69.5693 142.871 69.221 142.871ZM72.9417 137.49L74.0989 139.414L75.2708 137.49H76.3303L74.6018 140.097L76.384 142.773H75.3391L74.1184 140.791L72.8977 142.773H71.8479L73.6253 140.097L71.9016 137.49H72.9417ZM79.5042 137.49V138.183H76.6477V137.49H79.5042ZM77.6145 136.206H78.5178V141.464C78.5178 141.643 78.5455 141.778 78.6008 141.87C78.6562 141.961 78.7278 142.021 78.8157 142.05C78.9036 142.08 78.998 142.094 79.0989 142.094C79.1738 142.094 79.2519 142.088 79.3333 142.075C79.4179 142.058 79.4814 142.045 79.5237 142.036L79.5286 142.773C79.457 142.796 79.3626 142.817 79.2454 142.836C79.1314 142.859 78.9931 142.871 78.8303 142.871C78.609 142.871 78.4055 142.827 78.22 142.739C78.0344 142.651 77.8863 142.504 77.7757 142.299C77.6682 142.091 77.6145 141.811 77.6145 141.459V136.206Z" fill="#A3A3A3"/>
<path d="M107.682 135.664V142.773H106.754V135.664H107.682ZM109.967 135.664V136.435H104.474V135.664H109.967ZM112.589 142.871C112.222 142.871 111.888 142.809 111.588 142.685C111.292 142.558 111.037 142.381 110.822 142.153C110.61 141.925 110.447 141.655 110.334 141.342C110.22 141.03 110.163 140.688 110.163 140.317V140.112C110.163 139.682 110.226 139.3 110.353 138.964C110.48 138.626 110.653 138.339 110.871 138.105C111.089 137.871 111.336 137.693 111.613 137.573C111.89 137.452 112.176 137.392 112.472 137.392C112.85 137.392 113.175 137.457 113.449 137.587C113.725 137.718 113.952 137.9 114.127 138.134C114.303 138.365 114.433 138.639 114.518 138.955C114.603 139.267 114.645 139.609 114.645 139.98V140.385H110.7V139.648H113.742V139.58C113.729 139.345 113.68 139.117 113.595 138.896C113.514 138.675 113.384 138.492 113.205 138.349C113.026 138.206 112.781 138.134 112.472 138.134C112.267 138.134 112.078 138.178 111.906 138.266C111.733 138.351 111.585 138.478 111.461 138.647C111.338 138.816 111.242 139.023 111.173 139.267C111.105 139.511 111.071 139.793 111.071 140.112V140.317C111.071 140.568 111.105 140.804 111.173 141.025C111.245 141.243 111.348 141.435 111.481 141.601C111.618 141.767 111.782 141.897 111.974 141.992C112.169 142.086 112.391 142.133 112.638 142.133C112.957 142.133 113.227 142.068 113.449 141.938C113.67 141.808 113.864 141.634 114.03 141.416L114.577 141.85C114.463 142.023 114.318 142.187 114.142 142.343C113.966 142.5 113.75 142.626 113.493 142.724C113.239 142.822 112.938 142.871 112.589 142.871ZM116.31 137.49L117.467 139.414L118.639 137.49H119.699L117.97 140.097L119.752 142.773H118.708L117.487 140.791L116.266 142.773H115.216L116.994 140.097L115.27 137.49H116.31ZM122.873 137.49V138.183H120.016V137.49H122.873ZM120.983 136.206H121.886V141.464C121.886 141.643 121.914 141.778 121.969 141.87C122.025 141.961 122.096 142.021 122.184 142.05C122.272 142.08 122.366 142.094 122.467 142.094C122.542 142.094 122.62 142.088 122.702 142.075C122.786 142.058 122.85 142.045 122.892 142.036L122.897 142.773C122.825 142.796 122.731 142.817 122.614 142.836C122.5 142.859 122.362 142.871 122.199 142.871C121.977 142.871 121.774 142.827 121.588 142.739C121.403 142.651 121.255 142.504 121.144 142.299C121.037 142.091 120.983 141.811 120.983 141.459V136.206Z" fill="#A3A3A3"/>
<path d="M151.051 135.664V142.773H150.123V135.664H151.051ZM153.336 135.664V136.435H147.843V135.664H153.336ZM155.958 142.871C155.59 142.871 155.256 142.809 154.957 142.685C154.661 142.558 154.405 142.381 154.19 142.153C153.979 141.925 153.816 141.655 153.702 141.342C153.588 141.03 153.531 140.688 153.531 140.317V140.112C153.531 139.682 153.595 139.3 153.721 138.964C153.848 138.626 154.021 138.339 154.239 138.105C154.457 137.871 154.705 137.693 154.981 137.573C155.258 137.452 155.544 137.392 155.841 137.392C156.218 137.392 156.544 137.457 156.817 137.587C157.094 137.718 157.32 137.9 157.496 138.134C157.672 138.365 157.802 138.639 157.887 138.955C157.971 139.267 158.013 139.609 158.013 139.98V140.385H154.068V139.648H157.11V139.58C157.097 139.345 157.048 139.117 156.964 138.896C156.882 138.675 156.752 138.492 156.573 138.349C156.394 138.206 156.15 138.134 155.841 138.134C155.636 138.134 155.447 138.178 155.274 138.266C155.102 138.351 154.954 138.478 154.83 138.647C154.706 138.816 154.61 139.023 154.542 139.267C154.473 139.511 154.439 139.793 154.439 140.112V140.317C154.439 140.568 154.473 140.804 154.542 141.025C154.613 141.243 154.716 141.435 154.849 141.601C154.986 141.767 155.151 141.897 155.343 141.992C155.538 142.086 155.759 142.133 156.007 142.133C156.326 142.133 156.596 142.068 156.817 141.938C157.039 141.808 157.232 141.634 157.398 141.416L157.945 141.85C157.831 142.023 157.686 142.187 157.511 142.343C157.335 142.5 157.118 142.626 156.861 142.724C156.607 142.822 156.306 142.871 155.958 142.871ZM159.678 137.49L160.836 139.414L162.008 137.49H163.067L161.339 140.097L163.121 142.773H162.076L160.855 140.791L159.635 142.773H158.585L160.362 140.097L158.638 137.49H159.678ZM166.241 137.49V138.183H163.385V137.49H166.241ZM164.351 136.206H165.255V141.464C165.255 141.643 165.282 141.778 165.338 141.87C165.393 141.961 165.465 142.021 165.553 142.05C165.64 142.08 165.735 142.094 165.836 142.094C165.911 142.094 165.989 142.088 166.07 142.075C166.155 142.058 166.218 142.045 166.261 142.036L166.265 142.773C166.194 142.796 166.099 142.817 165.982 142.836C165.868 142.859 165.73 142.871 165.567 142.871C165.346 142.871 165.142 142.827 164.957 142.739C164.771 142.651 164.623 142.504 164.512 142.299C164.405 142.091 164.351 141.811 164.351 141.459V136.206Z" fill="#A3A3A3"/>
<path d="M194.419 135.664V142.773H193.491V135.664H194.419ZM196.704 135.664V136.435H191.211V135.664H196.704ZM199.326 142.871C198.958 142.871 198.625 142.809 198.325 142.685C198.029 142.558 197.773 142.381 197.559 142.153C197.347 141.925 197.184 141.655 197.07 141.342C196.956 141.03 196.899 140.688 196.899 140.317V140.112C196.899 139.682 196.963 139.3 197.09 138.964C197.217 138.626 197.389 138.339 197.607 138.105C197.826 137.871 198.073 137.693 198.35 137.573C198.626 137.452 198.913 137.392 199.209 137.392C199.587 137.392 199.912 137.457 200.186 137.587C200.462 137.718 200.689 137.9 200.864 138.134C201.04 138.365 201.17 138.639 201.255 138.955C201.34 139.267 201.382 139.609 201.382 139.98V140.385H197.437V139.648H200.479V139.58C200.466 139.345 200.417 139.117 200.332 138.896C200.251 138.675 200.121 138.492 199.941 138.349C199.762 138.206 199.518 138.134 199.209 138.134C199.004 138.134 198.815 138.178 198.643 138.266C198.47 138.351 198.322 138.478 198.198 138.647C198.075 138.816 197.979 139.023 197.91 139.267C197.842 139.511 197.808 139.793 197.808 140.112V140.317C197.808 140.568 197.842 140.804 197.91 141.025C197.982 141.243 198.084 141.435 198.218 141.601C198.355 141.767 198.519 141.897 198.711 141.992C198.906 142.086 199.128 142.133 199.375 142.133C199.694 142.133 199.964 142.068 200.186 141.938C200.407 141.808 200.601 141.634 200.767 141.416L201.314 141.85C201.2 142.023 201.055 142.187 200.879 142.343C200.703 142.5 200.487 142.626 200.23 142.724C199.976 142.822 199.675 142.871 199.326 142.871ZM203.047 137.49L204.204 139.414L205.376 137.49H206.436L204.707 140.097L206.489 142.773H205.444L204.224 140.791L203.003 142.773H201.953L203.731 140.097L202.007 137.49H203.047ZM209.609 137.49V138.183H206.753V137.49H209.609ZM207.72 136.206H208.623V141.464C208.623 141.643 208.651 141.778 208.706 141.87C208.761 141.961 208.833 142.021 208.921 142.05C209.009 142.08 209.103 142.094 209.204 142.094C209.279 142.094 209.357 142.088 209.439 142.075C209.523 142.058 209.587 142.045 209.629 142.036L209.634 142.773C209.562 142.796 209.468 142.817 209.351 142.836C209.237 142.859 209.098 142.871 208.936 142.871C208.714 142.871 208.511 142.827 208.325 142.739C208.14 142.651 207.992 142.504 207.881 142.299C207.773 142.091 207.72 141.811 207.72 141.459V136.206Z" fill="#A3A3A3"/>
<path d="M16.4287 124.652V125.736C16.4287 126.319 16.3766 126.81 16.2725 127.21C16.1683 127.611 16.0186 127.933 15.8232 128.177C15.6279 128.421 15.3919 128.599 15.1152 128.709C14.8418 128.817 14.5326 128.871 14.1875 128.871C13.9141 128.871 13.6618 128.836 13.4307 128.768C13.1995 128.7 12.9912 128.591 12.8057 128.441C12.6234 128.288 12.4671 128.089 12.3369 127.845C12.2067 127.601 12.1074 127.305 12.0391 126.957C11.9707 126.608 11.9365 126.201 11.9365 125.736V124.652C11.9365 124.069 11.9886 123.581 12.0928 123.187C12.2002 122.793 12.3516 122.477 12.5469 122.24C12.7422 121.999 12.9766 121.826 13.25 121.722C13.5267 121.618 13.8359 121.566 14.1777 121.566C14.4544 121.566 14.7083 121.6 14.9395 121.668C15.1738 121.734 15.3822 121.839 15.5645 121.986C15.7467 122.129 15.9014 122.321 16.0283 122.562C16.1585 122.8 16.2578 123.091 16.3262 123.436C16.3945 123.781 16.4287 124.186 16.4287 124.652ZM15.5205 125.882V124.5C15.5205 124.181 15.501 123.902 15.4619 123.661C15.4261 123.417 15.3724 123.208 15.3008 123.036C15.2292 122.863 15.138 122.723 15.0273 122.616C14.9199 122.508 14.7946 122.43 14.6514 122.381C14.5114 122.329 14.3535 122.303 14.1777 122.303C13.9629 122.303 13.7725 122.344 13.6064 122.425C13.4404 122.503 13.3005 122.629 13.1865 122.801C13.0758 122.974 12.9912 123.2 12.9326 123.48C12.874 123.76 12.8447 124.1 12.8447 124.5V125.882C12.8447 126.201 12.8626 126.483 12.8984 126.727C12.9375 126.971 12.9945 127.183 13.0693 127.362C13.1442 127.538 13.2354 127.682 13.3428 127.796C13.4502 127.91 13.5739 127.995 13.7139 128.05C13.8571 128.102 14.015 128.128 14.1875 128.128C14.4089 128.128 14.6025 128.086 14.7686 128.001C14.9346 127.917 15.0729 127.785 15.1836 127.606C15.2975 127.424 15.3822 127.191 15.4375 126.908C15.4928 126.621 15.5205 126.279 15.5205 125.882Z" fill="#A3A3A3"/>
<path d="M7.4834 66.3892L6.76074 66.2036L7.11719 62.6636H10.7646V63.4985H7.88379L7.66895 65.4321C7.79915 65.3573 7.96354 65.2873 8.16211 65.2222C8.36393 65.1571 8.59505 65.1245 8.85547 65.1245C9.18424 65.1245 9.47884 65.1815 9.73926 65.2954C9.99967 65.4061 10.221 65.5656 10.4033 65.7739C10.5889 65.9823 10.7305 66.2329 10.8281 66.5259C10.9258 66.8188 10.9746 67.146 10.9746 67.5073C10.9746 67.8491 10.9274 68.1632 10.833 68.4497C10.7419 68.7362 10.6035 68.9868 10.418 69.2017C10.2324 69.4132 9.99805 69.5776 9.71484 69.6948C9.4349 69.812 9.10449 69.8706 8.72363 69.8706C8.43717 69.8706 8.16536 69.8315 7.9082 69.7534C7.6543 69.672 7.42643 69.55 7.22461 69.3872C7.02604 69.2212 6.86328 69.0161 6.73633 68.772C6.61263 68.5246 6.53451 68.2349 6.50195 67.9028H7.36133C7.40039 68.1698 7.47852 68.3944 7.5957 68.5767C7.71289 68.759 7.86589 68.8973 8.05469 68.9917C8.24674 69.0828 8.46973 69.1284 8.72363 69.1284C8.93848 69.1284 9.12891 69.091 9.29492 69.0161C9.46094 68.9412 9.60091 68.8338 9.71484 68.6938C9.82878 68.5539 9.91504 68.3846 9.97363 68.186C10.0355 67.9875 10.0664 67.7645 10.0664 67.5171C10.0664 67.2925 10.0355 67.0841 9.97363 66.8921C9.91178 66.7 9.81901 66.5324 9.69531 66.3892C9.57487 66.2459 9.42676 66.1353 9.25098 66.0571C9.0752 65.9757 8.87337 65.9351 8.64551 65.9351C8.34277 65.9351 8.11328 65.9757 7.95703 66.0571C7.80404 66.1385 7.64616 66.2492 7.4834 66.3892ZM16.4287 65.6519V66.7358C16.4287 67.3185 16.3766 67.8101 16.2725 68.2104C16.1683 68.6108 16.0186 68.9331 15.8232 69.1772C15.6279 69.4214 15.3919 69.5988 15.1152 69.7095C14.8418 69.8169 14.5326 69.8706 14.1875 69.8706C13.9141 69.8706 13.6618 69.8364 13.4307 69.7681C13.1995 69.6997 12.9912 69.5907 12.8057 69.4409C12.6234 69.2879 12.4671 69.0894 12.3369 68.8452C12.2067 68.6011 12.1074 68.3049 12.0391 67.9565C11.9707 67.6082 11.9365 67.2013 11.9365 66.7358V65.6519C11.9365 65.0692 11.9886 64.5809 12.0928 64.187C12.2002 63.7931 12.3516 63.4774 12.5469 63.2397C12.7422 62.9989 12.9766 62.8263 13.25 62.7222C13.5267 62.618 13.8359 62.5659 14.1777 62.5659C14.4544 62.5659 14.7083 62.6001 14.9395 62.6685C15.1738 62.7336 15.3822 62.8394 15.5645 62.9858C15.7467 63.1291 15.9014 63.3211 16.0283 63.562C16.1585 63.7996 16.2578 64.091 16.3262 64.436C16.3945 64.7811 16.4287 65.1864 16.4287 65.6519ZM15.5205 66.8823V65.5005C15.5205 65.1815 15.501 64.9015 15.4619 64.6606C15.4261 64.4165 15.3724 64.2082 15.3008 64.0356C15.2292 63.8631 15.138 63.7231 15.0273 63.6157C14.9199 63.5083 14.7946 63.4302 14.6514 63.3813C14.5114 63.3293 14.3535 63.3032 14.1777 63.3032C13.9629 63.3032 13.7725 63.3439 13.6064 63.4253C13.4404 63.5034 13.3005 63.6287 13.1865 63.8013C13.0758 63.9738 12.9912 64.2 12.9326 64.48C12.874 64.7599 12.8447 65.1001 12.8447 65.5005V66.8823C12.8447 67.2013 12.8626 67.4829 12.8984 67.7271C12.9375 67.9712 12.9945 68.1828 13.0693 68.3618C13.1442 68.5376 13.2354 68.6825 13.3428 68.7964C13.4502 68.9103 13.5739 68.995 13.7139 69.0503C13.8571 69.1024 14.015 69.1284 14.1875 69.1284C14.4089 69.1284 14.6025 69.0861 14.7686 69.0015C14.9346 68.9168 15.0729 68.785 15.1836 68.606C15.2975 68.4237 15.3822 68.1909 15.4375 67.9077C15.4928 67.6213 15.5205 67.2795 15.5205 66.8823Z" fill="#A3A3A3"/>
<path d="M3.68457 2.62451V9.77295H2.78125V3.75244L0.959961 4.4165V3.60107L3.54297 2.62451H3.68457ZM10.8037 5.65186V6.73584C10.8037 7.31852 10.7516 7.81006 10.6475 8.21045C10.5433 8.61084 10.3936 8.93311 10.1982 9.17725C10.0029 9.42139 9.76693 9.5988 9.49023 9.70947C9.2168 9.81689 8.90755 9.87061 8.5625 9.87061C8.28906 9.87061 8.03678 9.83643 7.80566 9.76807C7.57454 9.69971 7.36621 9.59066 7.18066 9.44092C6.99837 9.28792 6.84212 9.08936 6.71191 8.84521C6.58171 8.60107 6.48242 8.30485 6.41406 7.95654C6.3457 7.60824 6.31152 7.20133 6.31152 6.73584V5.65186C6.31152 5.06917 6.36361 4.58089 6.46777 4.18701C6.5752 3.79313 6.72656 3.47738 6.92188 3.23975C7.11719 2.99886 7.35156 2.82633 7.625 2.72217C7.90169 2.618 8.21094 2.56592 8.55273 2.56592C8.82943 2.56592 9.08333 2.6001 9.31445 2.66846C9.54883 2.73356 9.75716 2.83936 9.93945 2.98584C10.1217 3.12907 10.2764 3.32113 10.4033 3.56201C10.5335 3.79964 10.6328 4.09098 10.7012 4.43604C10.7695 4.78109 10.8037 5.18636 10.8037 5.65186ZM9.89551 6.88232V5.50049C9.89551 5.18148 9.87598 4.90153 9.83691 4.66064C9.80111 4.4165 9.7474 4.20817 9.67578 4.03564C9.60417 3.86312 9.51302 3.72314 9.40234 3.61572C9.29492 3.5083 9.1696 3.43018 9.02637 3.38135C8.88639 3.32926 8.72852 3.30322 8.55273 3.30322C8.33789 3.30322 8.14746 3.34391 7.98145 3.42529C7.81543 3.50342 7.67546 3.62874 7.56152 3.80127C7.45085 3.9738 7.36621 4.20003 7.30762 4.47998C7.24902 4.75993 7.21973 5.1001 7.21973 5.50049V6.88232C7.21973 7.20133 7.23763 7.48291 7.27344 7.72705C7.3125 7.97119 7.36947 8.18278 7.44434 8.36182C7.51921 8.5376 7.61035 8.68245 7.71777 8.79639C7.8252 8.91032 7.94889 8.99495 8.08887 9.05029C8.2321 9.10238 8.38997 9.12842 8.5625 9.12842C8.78385 9.12842 8.97754 9.0861 9.14355 9.00146C9.30957 8.91683 9.44792 8.78499 9.55859 8.60596C9.67253 8.42367 9.75716 8.19092 9.8125 7.90771C9.86784 7.62126 9.89551 7.27946 9.89551 6.88232ZM16.4287 5.65186V6.73584C16.4287 7.31852 16.3766 7.81006 16.2725 8.21045C16.1683 8.61084 16.0186 8.93311 15.8232 9.17725C15.6279 9.42139 15.3919 9.5988 15.1152 9.70947C14.8418 9.81689 14.5326 9.87061 14.1875 9.87061C13.9141 9.87061 13.6618 9.83643 13.4307 9.76807C13.1995 9.69971 12.9912 9.59066 12.8057 9.44092C12.6234 9.28792 12.4671 9.08936 12.3369 8.84521C12.2067 8.60107 12.1074 8.30485 12.0391 7.95654C11.9707 7.60824 11.9365 7.20133 11.9365 6.73584V5.65186C11.9365 5.06917 11.9886 4.58089 12.0928 4.18701C12.2002 3.79313 12.3516 3.47738 12.5469 3.23975C12.7422 2.99886 12.9766 2.82633 13.25 2.72217C13.5267 2.618 13.8359 2.56592 14.1777 2.56592C14.4544 2.56592 14.7083 2.6001 14.9395 2.66846C15.1738 2.73356 15.3822 2.83936 15.5645 2.98584C15.7467 3.12907 15.9014 3.32113 16.0283 3.56201C16.1585 3.79964 16.2578 4.09098 16.3262 4.43604C16.3945 4.78109 16.4287 5.18636 16.4287 5.65186ZM15.5205 6.88232V5.50049C15.5205 5.18148 15.501 4.90153 15.4619 4.66064C15.4261 4.4165 15.3724 4.20817 15.3008 4.03564C15.2292 3.86312 15.138 3.72314 15.0273 3.61572C14.9199 3.5083 14.7946 3.43018 14.6514 3.38135C14.5114 3.32926 14.3535 3.30322 14.1777 3.30322C13.9629 3.30322 13.7725 3.34391 13.6064 3.42529C13.4404 3.50342 13.3005 3.62874 13.1865 3.80127C13.0758 3.9738 12.9912 4.20003 12.9326 4.47998C12.874 4.75993 12.8447 5.1001 12.8447 5.50049V6.88232C12.8447 7.20133 12.8626 7.48291 12.8984 7.72705C12.9375 7.97119 12.9945 8.18278 13.0693 8.36182C13.1442 8.5376 13.2354 8.68245 13.3428 8.79639C13.4502 8.91032 13.5739 8.99495 13.7139 9.05029C13.8571 9.10238 14.015 9.12842 14.1875 9.12842C14.4089 9.12842 14.6025 9.0861 14.7686 9.00146C14.9346 8.91683 15.0729 8.78499 15.1836 8.60596C15.2975 8.42367 15.3822 8.19092 15.4375 7.90771C15.4928 7.62126 15.5205 7.27946 15.5205 6.88232Z" fill="#A3A3A3"/>
<path d="M27 118.633C27 118.633 33.5053 115.777 37.8421 113.873C42.1789 111.969 44.3474 111.493 48.6842 109.113C53.0211 106.733 55.1895 104.353 59.5263 101.973C63.8632 99.5929 66.0316 98.879 70.3684 97.213C74.7053 95.547 76.8737 95.071 81.2105 93.643C85.5474 92.215 87.7158 92.215 92.0526 90.073C96.3895 87.931 98.5579 85.551 102.895 82.933C107.232 80.315 109.4 78.8869 113.737 76.9829C118.074 75.0789 120.242 75.5549 124.579 73.4129C128.916 71.2709 131.084 68.8909 135.421 66.2729C139.758 63.6549 141.926 62.941 146.263 60.323C150.6 57.705 152.768 55.563 157.105 53.183C161.442 50.803 163.611 50.565 167.947 48.423C172.284 46.281 174.453 44.615 178.789 42.473C183.126 40.331 185.295 39.617 189.632 37.713C193.968 35.809 196.137 35.571 200.474 32.953C204.811 30.335 206.979 27.241 211.316 24.623C215.653 22.005 217.821 21.767 222.158 19.863C226.495 17.959 233 15.103 233 15.103" stroke="#A6CEE3" stroke-width="2"/>
<path d="M27 122.773C25.9393 122.773 24.922 122.352 24.1719 121.602C23.4218 120.852 23.0003 119.835 23 118.774C22.9997 117.713 23.4208 116.696 24.1705 115.946C24.9203 115.195 25.9373 114.773 26.998 114.773C28.0587 114.772 29.0762 115.193 29.8267 115.943C30.5772 116.692 30.9992 117.709 31 118.77C31.0008 119.831 30.5803 120.848 29.8309 121.599C29.0815 122.35 28.0647 122.772 27.004 122.773H27Z" fill="#A6CEE3"/>
<path d="M37 117.773C35.9393 117.773 34.922 117.352 34.1719 116.602C33.4218 115.852 33.0003 114.835 33 113.774C32.9997 112.713 33.4208 111.696 34.1705 110.946C34.9203 110.195 35.9373 109.773 36.998 109.773C38.0587 109.772 39.0762 110.193 39.8267 110.943C40.5772 111.692 40.9992 112.709 41 113.77C41.0008 114.831 40.5803 115.848 39.8309 116.599C39.0815 117.35 38.0647 117.772 37.004 117.773H37Z" fill="#A6CEE3"/>
<path d="M48 112.773C46.9393 112.773 45.922 112.352 45.1719 111.602C44.4218 110.852 44.0003 109.835 44 108.774C43.9997 107.713 44.4208 106.696 45.1705 105.946C45.9203 105.195 46.9373 104.773 47.998 104.773C49.0587 104.772 50.0762 105.193 50.8267 105.943C51.5771 106.692 51.9992 107.709 52 108.77C52.0008 109.831 51.5803 110.848 50.8309 111.599C50.0815 112.35 49.0647 112.772 48.004 112.773H48Z" fill="#A6CEE3"/>
<path d="M59 105.773C57.9393 105.773 56.922 105.352 56.1719 104.602C55.4218 103.852 55.0003 102.835 55 101.774C54.9997 100.713 55.4208 99.6959 56.1705 98.9456C56.9203 98.1953 57.9373 97.7735 58.998 97.7729C60.0587 97.7724 61.0762 98.1932 61.8267 98.9428C62.5772 99.6923 62.9992 100.709 63 101.77C63.0008 102.831 62.5803 103.848 61.8309 104.599C61.0815 105.35 60.0647 105.772 59.004 105.773H59Z" fill="#A6CEE3"/>
<path d="M70 100.773C68.9393 100.773 67.922 100.352 67.1719 99.6017C66.4218 98.8518 66.0003 97.8346 66 96.7739C65.9997 95.7133 66.4208 94.6959 67.1705 93.9456C67.9203 93.1953 68.9373 92.7735 69.998 92.7729C71.0587 92.7724 72.0762 93.1932 72.8267 93.9428C73.5772 94.6923 73.9992 95.7093 74 96.77C74.0008 97.8306 73.5803 98.8482 72.8309 99.5989C72.0815 100.35 71.0647 100.772 70.004 100.773H70Z" fill="#A6CEE3"/>
<path d="M81 97.773C79.9393 97.773 78.922 97.3517 78.1719 96.6017C77.4218 95.8518 77.0003 94.8346 77 93.7739C76.9997 92.7133 77.4208 91.6959 78.1705 90.9456C78.9203 90.1953 79.9373 89.7735 80.998 89.7729C82.0587 89.7724 83.0762 90.1932 83.8267 90.9428C84.5772 91.6923 84.9992 92.7093 85 93.77C85.0008 94.8306 84.5803 95.8482 83.8309 96.5989C83.0815 97.3496 82.0647 97.7719 81.004 97.773H81Z" fill="#A6CEE3"/>
<path d="M92 93.773C90.9393 93.773 89.922 93.3517 89.1719 92.6017C88.4218 91.8518 88.0003 90.8346 88 89.7739C87.9997 88.7133 88.4208 87.6959 89.1705 86.9456C89.9203 86.1953 90.9373 85.7735 91.998 85.7729C93.0587 85.7724 94.0762 86.1932 94.8267 86.9428C95.5772 87.6923 95.9992 88.7093 96 89.77C96.0008 90.8306 95.5803 91.8482 94.8309 92.5989C94.0815 93.3496 93.0647 93.7719 92.004 93.773H92Z" fill="#A6CEE3"/>
<path d="M102 86.773C100.939 86.773 99.922 86.3517 99.1719 85.6017C98.4218 84.8518 98.0003 83.8346 98 82.7739C97.9997 81.7133 98.4208 80.6959 99.1705 79.9456C99.9203 79.1953 100.937 78.7735 101.998 78.7729C103.059 78.7724 104.076 79.1932 104.827 79.9428C105.577 80.6923 105.999 81.7093 106 82.77C106.001 83.8306 105.58 84.8482 104.831 85.5989C104.082 86.3496 103.065 86.7719 102.004 86.773H102Z" fill="#A6CEE3"/>
<path d="M113 80.773C111.939 80.773 110.922 80.3517 110.172 79.6017C109.422 78.8518 109 77.8346 109 76.7739C109 75.7133 109.421 74.6959 110.171 73.9456C110.92 73.1953 111.937 72.7735 112.998 72.7729C114.059 72.7724 115.076 73.1932 115.827 73.9428C116.577 74.6923 116.999 75.7093 117 76.77C117.001 77.8306 116.58 78.8482 115.831 79.5989C115.082 80.3496 114.065 80.7719 113.004 80.773H113Z" fill="#A6CEE3"/>
<path d="M124 77.773C122.939 77.773 121.922 77.3517 121.172 76.6017C120.422 75.8518 120 74.8346 120 73.7739C120 72.7133 120.421 71.6959 121.171 70.9456C121.92 70.1953 122.937 69.7735 123.998 69.7729C125.059 69.7724 126.076 70.1932 126.827 70.9428C127.577 71.6923 127.999 72.7093 128 73.77C128.001 74.8306 127.58 75.8482 126.831 76.5989C126.082 77.3496 125.065 77.7719 124.004 77.773H124Z" fill="#A6CEE3"/>
<path d="M135 70.773C133.939 70.773 132.922 70.3517 132.172 69.6017C131.422 68.8518 131 67.8346 131 66.7739C131 65.7133 131.421 64.6959 132.171 63.9456C132.92 63.1953 133.937 62.7735 134.998 62.7729C136.059 62.7724 137.076 63.1932 137.827 63.9428C138.577 64.6923 138.999 65.7093 139 66.77C139.001 67.8306 138.58 68.8482 137.831 69.5989C137.082 70.3496 136.065 70.7719 135.004 70.7729L135 70.773Z" fill="#A6CEE3"/>
<path d="M146 64.773C144.939 64.773 143.922 64.3517 143.172 63.6017C142.422 62.8518 142 61.8346 142 60.7739C142 59.7133 142.421 58.6959 143.171 57.9456C143.92 57.1953 144.937 56.7735 145.998 56.7729C147.059 56.7724 148.076 57.1932 148.827 57.9428C149.577 58.6923 149.999 59.7093 150 60.77C150.001 61.8306 149.58 62.8482 148.831 63.5989C148.082 64.3496 147.065 64.7719 146.004 64.7729L146 64.773Z" fill="#A6CEE3"/>
<path d="M157 56.773C155.939 56.773 154.922 56.3517 154.172 55.6017C153.422 54.8518 153 53.8346 153 52.7739C153 51.7133 153.421 50.6959 154.171 49.9456C154.92 49.1953 155.937 48.7735 156.998 48.7729C158.059 48.7724 159.076 49.1932 159.827 49.9428C160.577 50.6923 160.999 51.7093 161 52.77C161.001 53.8306 160.58 54.8482 159.831 55.5989C159.082 56.3496 158.065 56.7719 157.004 56.7729L157 56.773Z" fill="#A6CEE3"/>
<path d="M167 52.773C165.939 52.773 164.922 52.3517 164.172 51.6017C163.422 50.8518 163 49.8346 163 48.7739C163 47.7133 163.421 46.6959 164.171 45.9456C164.92 45.1953 165.937 44.7735 166.998 44.7729C168.059 44.7724 169.076 45.1932 169.827 45.9428C170.577 46.6923 170.999 47.7093 171 48.77C171.001 49.8306 170.58 50.8482 169.831 51.5989C169.082 52.3496 168.065 52.7719 167.004 52.7729L167 52.773Z" fill="#A6CEE3"/>
<path d="M178 46.773C176.939 46.773 175.922 46.3517 175.172 45.6017C174.422 44.8518 174 43.8346 174 42.7739C174 41.7133 174.421 40.6959 175.171 39.9456C175.92 39.1953 176.937 38.7735 177.998 38.7729C179.059 38.7724 180.076 39.1932 180.827 39.9428C181.577 40.6923 181.999 41.7093 182 42.77C182.001 43.8306 181.58 44.8482 180.831 45.5989C180.082 46.3496 179.065 46.7719 178.004 46.7729L178 46.773Z" fill="#A6CEE3"/>
<path d="M189 41.773C187.939 41.773 186.922 41.3517 186.172 40.6017C185.422 39.8518 185 38.8346 185 37.7739C185 36.7133 185.421 35.6959 186.171 34.9456C186.92 34.1953 187.937 33.7735 188.998 33.7729C190.059 33.7724 191.076 34.1932 191.827 34.9428C192.577 35.6923 192.999 36.7093 193 37.7699C193.001 38.8306 192.58 39.8482 191.831 40.5989C191.082 41.3496 190.065 41.7719 189.004 41.7729L189 41.773Z" fill="#A6CEE3"/>
<path d="M200 36.773C198.939 36.773 197.922 36.3517 197.172 35.6017C196.422 34.8518 196 33.8346 196 32.7739C196 31.7133 196.421 30.6959 197.171 29.9456C197.92 29.1953 198.937 28.7735 199.998 28.7729C201.059 28.7724 202.076 29.1932 202.827 29.9428C203.577 30.6923 203.999 31.7093 204 32.7699C204.001 33.8306 203.58 34.8482 202.831 35.5989C202.082 36.3496 201.065 36.7719 200.004 36.7729L200 36.773Z" fill="#A6CEE3"/>
<path d="M211 28.7729C209.939 28.7729 208.922 28.3517 208.172 27.6017C207.422 26.8518 207 25.8346 207 24.7739C207 23.7133 207.421 22.6959 208.171 21.9456C208.92 21.1953 209.937 20.7735 210.998 20.7729C212.059 20.7724 213.076 21.1932 213.827 21.9428C214.577 22.6923 214.999 23.7093 215 24.7699C215.001 25.8306 214.58 26.8482 213.831 27.5989C213.082 28.3496 212.065 28.7719 211.004 28.7729L211 28.7729Z" fill="#A6CEE3"/>
<path d="M222 23.7729C220.939 23.7729 219.922 23.3517 219.172 22.6017C218.422 21.8518 218 20.8346 218 19.7739C218 18.7133 218.421 17.6959 219.171 16.9456C219.92 16.1953 220.937 15.7735 221.998 15.7729C223.059 15.7724 224.076 16.1932 224.827 16.9428C225.577 17.6923 225.999 18.7093 226 19.7699C226.001 20.8306 225.58 21.8482 224.831 22.5989C224.082 23.3496 223.065 23.7719 222.004 23.7729L222 23.7729Z" fill="#A6CEE3"/>
<path d="M233 18.7729C231.939 18.7729 230.922 18.3517 230.172 17.6017C229.422 16.8518 229 15.8346 229 14.7739C229 13.7133 229.421 12.6959 230.171 11.9456C230.92 11.1953 231.937 10.7735 232.998 10.7729C234.059 10.7724 235.076 11.1932 235.827 11.9428C236.577 12.6923 236.999 13.7093 237 14.7699C237.001 15.8306 236.58 16.8482 235.831 17.5989C235.082 18.3496 234.065 18.7719 233.004 18.7729L233 18.7729Z" fill="#A6CEE3"/>
</svg>
