<svg width="233" height="170" viewBox="0 0 233 170" fill="none" xmlns="http://www.w3.org/2000/svg">
<path d="M12.2472 2.77296V132.64" stroke="#F0F0F0"/>
<path d="M36.7417 2.77296V132.64" stroke="#F0F0F0"/>
<path d="M60.774 2.77296V132.64" stroke="#F0F0F0"/>
<path d="M85.2684 2.77296V132.64" stroke="#F0F0F0"/>
<path d="M109.301 2.77296V132.64" stroke="#F0F0F0"/>
<path d="M133.795 2.77296V132.64" stroke="#F0F0F0"/>
<path d="M157.827 2.77296V132.64" stroke="#F0F0F0"/>
<path d="M182.322 2.77296V132.64" stroke="#F0F0F0"/>
<path d="M206.354 2.77296V132.64" stroke="#F0F0F0"/>
<path d="M231.311 2.77296V132.64" stroke="#F0F0F0"/>
<path d="M12.4783 132.871H231.08" stroke="#F0F0F0"/>
<path d="M12.4783 106.99H231.08" stroke="#F0F0F0"/>
<path d="M12.4783 81.109H231.08" stroke="#F0F0F0"/>
<path d="M12.4783 54.7659H231.08" stroke="#F0F0F0"/>
<path d="M12.4783 28.885H231.08" stroke="#F0F0F0"/>
<path d="M12.4783 2.54188H231.08" stroke="#F0F0F0"/>
<path d="M12.4783 132.871H231.08" stroke="#F0F0F0"/>
<path d="M12.2472 2.77296V132.64" stroke="#F0F0F0"/>
<path d="M13.1912 138.228V145.337H12.2634V138.228H13.1912ZM15.4763 138.228V138.999H9.98317V138.228H15.4763ZM12.7078 157.435C12.3399 157.435 12.0063 157.373 11.7068 157.249C11.4106 157.122 11.155 156.945 10.9402 156.717C10.7286 156.489 10.5658 156.219 10.4519 155.906C10.338 155.594 10.281 155.252 10.281 154.881V154.676C10.281 154.246 10.3445 153.864 10.4714 153.528C10.5984 153.19 10.7709 152.903 10.989 152.669C11.2071 152.435 11.4545 152.257 11.7312 152.137C12.0079 152.016 12.2944 151.956 12.5906 151.956C12.9682 151.956 13.2937 152.021 13.5672 152.151C13.8438 152.282 14.0701 152.464 14.2459 152.698C14.4216 152.929 14.5519 153.203 14.6365 153.519C14.7211 153.831 14.7634 154.173 14.7634 154.544V154.949H10.8181V154.212H13.8601V154.144C13.8471 153.909 13.7983 153.681 13.7136 153.46C13.6323 153.239 13.502 153.056 13.323 152.913C13.144 152.77 12.8998 152.698 12.5906 152.698C12.3855 152.698 12.1967 152.742 12.0242 152.83C11.8517 152.915 11.7035 153.042 11.5798 153.211C11.4561 153.38 11.3601 153.587 11.2918 153.831C11.2234 154.075 11.1892 154.357 11.1892 154.676V154.881C11.1892 155.132 11.2234 155.368 11.2918 155.589C11.3634 155.807 11.4659 155.999 11.5994 156.165C11.7361 156.331 11.9005 156.461 12.0925 156.556C12.2879 156.65 12.5092 156.697 12.7566 156.697C13.0756 156.697 13.3458 156.632 13.5672 156.502C13.7885 156.372 13.9822 156.198 14.1482 155.98L14.6951 156.414C14.5811 156.587 14.4363 156.751 14.2605 156.907C14.0847 157.064 13.8683 157.191 13.6111 157.288C13.3572 157.386 13.0561 157.435 12.7078 157.435ZM9.6609 164.054L10.8181 165.978L11.99 164.054H13.0496L11.3211 166.661L13.1033 169.337H12.0584L10.8377 167.355L9.61696 169.337H8.56715L10.3445 166.661L8.62086 164.054H9.6609ZM16.2234 164.054V164.747H13.367V164.054H16.2234ZM14.3338 162.77H15.2371V168.028C15.2371 168.207 15.2647 168.343 15.3201 168.434C15.3754 168.525 15.447 168.585 15.5349 168.614C15.6228 168.644 15.7172 168.658 15.8181 168.658C15.893 168.658 15.9711 168.652 16.0525 168.639C16.1371 168.623 16.2006 168.609 16.2429 168.6L16.2478 169.337C16.1762 169.36 16.0818 169.381 15.9646 169.4C15.8507 169.423 15.7123 169.435 15.5496 169.435C15.3282 169.435 15.1248 169.391 14.9392 169.303C14.7537 169.215 14.6056 169.068 14.4949 168.863C14.3875 168.655 14.3338 168.375 14.3338 168.024V162.77Z" fill="#A3A3A3"/>
<path d="M37.4802 138.228V145.337H36.5525V138.228H37.4802ZM39.7654 138.228V138.999H34.2722V138.228H39.7654ZM36.9968 157.435C36.629 157.435 36.2953 157.373 35.9959 157.249C35.6996 157.122 35.4441 156.945 35.2293 156.717C35.0177 156.489 34.8549 156.219 34.741 155.906C34.627 155.594 34.5701 155.252 34.5701 154.881V154.676C34.5701 154.246 34.6336 153.864 34.7605 153.528C34.8875 153.19 35.06 152.903 35.2781 152.669C35.4962 152.435 35.7436 152.257 36.0203 152.137C36.297 152.016 36.5834 151.956 36.8797 151.956C37.2573 151.956 37.5828 152.021 37.8562 152.151C38.1329 152.282 38.3591 152.464 38.5349 152.698C38.7107 152.929 38.8409 153.203 38.9255 153.519C39.0102 153.831 39.0525 154.173 39.0525 154.544V154.949H35.1072V154.212H38.1492V154.144C38.1362 153.909 38.0873 153.681 38.0027 153.46C37.9213 153.239 37.7911 153.056 37.6121 152.913C37.433 152.77 37.1889 152.698 36.8797 152.698C36.6746 152.698 36.4858 152.742 36.3132 152.83C36.1407 152.915 35.9926 153.042 35.8689 153.211C35.7452 153.38 35.6492 153.587 35.5808 153.831C35.5125 154.075 35.4783 154.357 35.4783 154.676V154.881C35.4783 155.132 35.5125 155.368 35.5808 155.589C35.6524 155.807 35.755 155.999 35.8884 156.165C36.0252 156.331 36.1895 156.461 36.3816 156.556C36.5769 156.65 36.7983 156.697 37.0457 156.697C37.3647 156.697 37.6349 156.632 37.8562 156.502C38.0776 156.372 38.2713 156.198 38.4373 155.98L38.9841 156.414C38.8702 156.587 38.7254 156.751 38.5496 156.907C38.3738 157.064 38.1573 157.191 37.9002 157.288C37.6463 157.386 37.3451 157.435 36.9968 157.435ZM33.95 164.054L35.1072 165.978L36.2791 164.054H37.3386L35.6101 166.661L37.3923 169.337H36.3474L35.1267 167.355L33.906 169.337H32.8562L34.6336 166.661L32.9099 164.054H33.95ZM40.5125 164.054V164.747H37.656V164.054H40.5125ZM38.6228 162.77H39.5261V168.028C39.5261 168.207 39.5538 168.343 39.6091 168.434C39.6645 168.525 39.7361 168.585 39.824 168.614C39.9119 168.644 40.0063 168.658 40.1072 168.658C40.1821 168.658 40.2602 168.652 40.3416 168.639C40.4262 168.623 40.4897 168.609 40.532 168.6L40.5369 169.337C40.4653 169.36 40.3709 169.381 40.2537 169.4C40.1397 169.423 40.0014 169.435 39.8386 169.435C39.6173 169.435 39.4138 169.391 39.2283 169.303C39.0427 169.215 38.8946 169.068 38.7839 168.863C38.6765 168.655 38.6228 168.375 38.6228 168.024V162.77Z" fill="#A3A3A3"/>
<path d="M61.7693 138.228V145.337H60.8416V138.228H61.7693ZM64.0545 138.228V138.999H58.5613V138.228H64.0545ZM61.2859 157.435C60.9181 157.435 60.5844 157.373 60.2849 157.249C59.9887 157.122 59.7332 156.945 59.5183 156.717C59.3067 156.489 59.144 156.219 59.03 155.906C58.9161 155.594 58.8591 155.252 58.8591 154.881V154.676C58.8591 154.246 58.9226 153.864 59.0496 153.528C59.1765 153.19 59.3491 152.903 59.5672 152.669C59.7852 152.435 60.0326 152.257 60.3093 152.137C60.586 152.016 60.8725 151.956 61.1687 151.956C61.5463 151.956 61.8718 152.021 62.1453 152.151C62.422 152.282 62.6482 152.464 62.824 152.698C62.9998 152.929 63.13 153.203 63.2146 153.519C63.2992 153.831 63.3416 154.173 63.3416 154.544V154.949H59.3963V154.212H62.4382V154.144C62.4252 153.909 62.3764 153.681 62.2918 153.46C62.2104 153.239 62.0802 153.056 61.9011 152.913C61.7221 152.77 61.478 152.698 61.1687 152.698C60.9636 152.698 60.7748 152.742 60.6023 152.83C60.4298 152.915 60.2817 153.042 60.158 153.211C60.0343 153.38 59.9382 153.587 59.8699 153.831C59.8015 154.075 59.7673 154.357 59.7673 154.676V154.881C59.7673 155.132 59.8015 155.368 59.8699 155.589C59.9415 155.807 60.044 155.999 60.1775 156.165C60.3142 156.331 60.4786 156.461 60.6707 156.556C60.866 156.65 61.0873 156.697 61.3347 156.697C61.6537 156.697 61.9239 156.632 62.1453 156.502C62.3666 156.372 62.5603 156.198 62.7263 155.98L63.2732 156.414C63.1593 156.587 63.0144 156.751 62.8386 156.907C62.6629 157.064 62.4464 157.191 62.1892 157.288C61.9353 157.386 61.6342 157.435 61.2859 157.435ZM58.239 164.054L59.3963 165.978L60.5681 164.054H61.6277L59.8992 166.661L61.6814 169.337H60.6365L59.4158 167.355L58.1951 169.337H57.1453L58.9226 166.661L57.199 164.054H58.239ZM64.8015 164.054V164.747H61.9451V164.054H64.8015ZM62.9119 162.77H63.8152V168.028C63.8152 168.207 63.8429 168.343 63.8982 168.434C63.9535 168.525 64.0252 168.585 64.113 168.614C64.2009 168.644 64.2953 168.658 64.3963 168.658C64.4711 168.658 64.5492 168.652 64.6306 168.639C64.7153 168.623 64.7787 168.609 64.8211 168.6L64.8259 169.337C64.7543 169.36 64.6599 169.381 64.5427 169.4C64.4288 169.423 64.2905 169.435 64.1277 169.435C63.9063 169.435 63.7029 169.391 63.5173 169.303C63.3318 169.215 63.1837 169.068 63.073 168.863C62.9656 168.655 62.9119 168.375 62.9119 168.024V162.77Z" fill="#A3A3A3"/>
<path d="M86.0583 138.228V145.337H85.1306V138.228H86.0583ZM88.3435 138.228V138.999H82.8503V138.228H88.3435ZM85.5749 157.435C85.2071 157.435 84.8734 157.373 84.574 157.249C84.2777 157.122 84.0222 156.945 83.8074 156.717C83.5958 156.489 83.433 156.219 83.3191 155.906C83.2051 155.594 83.1482 155.252 83.1482 154.881V154.676C83.1482 154.246 83.2117 153.864 83.3386 153.528C83.4656 153.19 83.6381 152.903 83.8562 152.669C84.0743 152.435 84.3217 152.257 84.5984 152.137C84.8751 152.016 85.1615 151.956 85.4577 151.956C85.8353 151.956 86.1609 152.021 86.4343 152.151C86.711 152.282 86.9372 152.464 87.113 152.698C87.2888 152.929 87.419 153.203 87.5036 153.519C87.5883 153.831 87.6306 154.173 87.6306 154.544V154.949H83.6853V154.212H86.7273V154.144C86.7143 153.909 86.6654 153.681 86.5808 153.46C86.4994 153.239 86.3692 153.056 86.1902 152.913C86.0111 152.77 85.767 152.698 85.4577 152.698C85.2527 152.698 85.0639 152.742 84.8913 152.83C84.7188 152.915 84.5707 153.042 84.447 153.211C84.3233 153.38 84.2273 153.587 84.1589 153.831C84.0906 154.075 84.0564 154.357 84.0564 154.676V154.881C84.0564 155.132 84.0906 155.368 84.1589 155.589C84.2305 155.807 84.3331 155.999 84.4665 156.165C84.6033 156.331 84.7676 156.461 84.9597 156.556C85.155 156.65 85.3764 156.697 85.6238 156.697C85.9428 156.697 86.213 156.632 86.4343 156.502C86.6557 156.372 86.8493 156.198 87.0154 155.98L87.5622 156.414C87.4483 156.587 87.3034 156.751 87.1277 156.907C86.9519 157.064 86.7354 157.191 86.4783 157.288C86.2243 157.386 85.9232 157.435 85.5749 157.435ZM82.5281 164.054L83.6853 165.978L84.8572 164.054H85.9167L84.1882 166.661L85.9704 169.337H84.9255L83.7048 167.355L82.4841 169.337H81.4343L83.2117 166.661L81.488 164.054H82.5281ZM89.0906 164.054V164.747H86.2341V164.054H89.0906ZM87.2009 162.77H88.1042V168.028C88.1042 168.207 88.1319 168.343 88.1872 168.434C88.2426 168.525 88.3142 168.585 88.4021 168.614C88.49 168.644 88.5844 168.658 88.6853 168.658C88.7602 168.658 88.8383 168.652 88.9197 168.639C89.0043 168.623 89.0678 168.609 89.1101 168.6L89.115 169.337C89.0434 169.36 88.949 169.381 88.8318 169.4C88.7178 169.423 88.5795 169.435 88.4167 169.435C88.1954 169.435 87.9919 169.391 87.8064 169.303C87.6208 169.215 87.4727 169.068 87.362 168.863C87.2546 168.655 87.2009 168.375 87.2009 168.024V162.77Z" fill="#A3A3A3"/>
<path d="M110.347 138.228V145.337H109.42V138.228H110.347ZM112.633 138.228V138.999H107.139V138.228H112.633ZM109.864 157.435C109.496 157.435 109.162 157.373 108.863 157.249C108.567 157.122 108.311 156.945 108.096 156.717C107.885 156.489 107.722 156.219 107.608 155.906C107.494 155.594 107.437 155.252 107.437 154.881V154.676C107.437 154.246 107.501 153.864 107.628 153.528C107.755 153.19 107.927 152.903 108.145 152.669C108.363 152.435 108.611 152.257 108.887 152.137C109.164 152.016 109.451 151.956 109.747 151.956C110.124 151.956 110.45 152.021 110.723 152.151C111 152.282 111.226 152.464 111.402 152.698C111.578 152.929 111.708 153.203 111.793 153.519C111.877 153.831 111.92 154.173 111.92 154.544V154.949H107.974V154.212H111.016V154.144C111.003 153.909 110.954 153.681 110.87 153.46C110.788 153.239 110.658 153.056 110.479 152.913C110.3 152.77 110.056 152.698 109.747 152.698C109.542 152.698 109.353 152.742 109.18 152.83C109.008 152.915 108.86 153.042 108.736 153.211C108.612 153.38 108.516 153.587 108.448 153.831C108.38 154.075 108.345 154.357 108.345 154.676V154.881C108.345 155.132 108.38 155.368 108.448 155.589C108.52 155.807 108.622 155.999 108.756 156.165C108.892 156.331 109.057 156.461 109.249 156.556C109.444 156.65 109.665 156.697 109.913 156.697C110.232 156.697 110.502 156.632 110.723 156.502C110.945 156.372 111.138 156.198 111.304 155.98L111.851 156.414C111.737 156.587 111.592 156.751 111.417 156.907C111.241 157.064 111.024 157.191 110.767 157.288C110.513 157.386 110.212 157.435 109.864 157.435ZM106.817 164.054L107.974 165.978L109.146 164.054H110.206L108.477 166.661L110.259 169.337H109.215L107.994 167.355L106.773 169.337H105.723L107.501 166.661L105.777 164.054H106.817ZM113.38 164.054V164.747H110.523V164.054H113.38ZM111.49 162.77H112.393V168.028C112.393 168.207 112.421 168.343 112.476 168.434C112.532 168.525 112.603 168.585 112.691 168.614C112.779 168.644 112.873 168.658 112.974 168.658C113.049 168.658 113.127 168.652 113.209 168.639C113.293 168.623 113.357 168.609 113.399 168.6L113.404 169.337C113.332 169.36 113.238 169.381 113.121 169.4C113.007 169.423 112.869 169.435 112.706 169.435C112.484 169.435 112.281 169.391 112.095 169.303C111.91 169.215 111.762 169.068 111.651 168.863C111.544 168.655 111.49 168.375 111.49 168.024V162.77Z" fill="#A3A3A3"/>
<path d="M134.636 138.228V145.337H133.709V138.228H134.636ZM136.922 138.228V138.999H131.428V138.228H136.922ZM134.153 157.435C133.785 157.435 133.452 157.373 133.152 157.249C132.856 157.122 132.6 156.945 132.385 156.717C132.174 156.489 132.011 156.219 131.897 155.906C131.783 155.594 131.726 155.252 131.726 154.881V154.676C131.726 154.246 131.79 153.864 131.917 153.528C132.044 153.19 132.216 152.903 132.434 152.669C132.652 152.435 132.9 152.257 133.176 152.137C133.453 152.016 133.74 151.956 134.036 151.956C134.413 151.956 134.739 152.021 135.012 152.151C135.289 152.282 135.515 152.464 135.691 152.698C135.867 152.929 135.997 153.203 136.082 153.519C136.166 153.831 136.209 154.173 136.209 154.544V154.949H132.263V154.212H135.305V154.144C135.292 153.909 135.244 153.681 135.159 153.46C135.078 153.239 134.947 153.056 134.768 152.913C134.589 152.77 134.345 152.698 134.036 152.698C133.831 152.698 133.642 152.742 133.469 152.83C133.297 152.915 133.149 153.042 133.025 153.211C132.901 153.38 132.805 153.587 132.737 153.831C132.669 154.075 132.634 154.357 132.634 154.676V154.881C132.634 155.132 132.669 155.368 132.737 155.589C132.809 155.807 132.911 155.999 133.045 156.165C133.181 156.331 133.346 156.461 133.538 156.556C133.733 156.65 133.954 156.697 134.202 156.697C134.521 156.697 134.791 156.632 135.012 156.502C135.234 156.372 135.427 156.198 135.593 155.98L136.14 156.414C136.026 156.587 135.882 156.751 135.706 156.907C135.53 157.064 135.314 157.191 135.056 157.288C134.802 157.386 134.501 157.435 134.153 157.435ZM131.106 164.054L132.263 165.978L133.435 164.054H134.495L132.766 166.661L134.549 169.337H133.504L132.283 167.355L131.062 169.337H130.012L131.79 166.661L130.066 164.054H131.106ZM137.669 164.054V164.747H134.812V164.054H137.669ZM135.779 162.77H136.682V168.028C136.682 168.207 136.71 168.343 136.765 168.434C136.821 168.525 136.892 168.585 136.98 168.614C137.068 168.644 137.162 168.658 137.263 168.658C137.338 168.658 137.416 168.652 137.498 168.639C137.582 168.623 137.646 168.609 137.688 168.6L137.693 169.337C137.621 169.36 137.527 169.381 137.41 169.4C137.296 169.423 137.158 169.435 136.995 169.435C136.773 169.435 136.57 169.391 136.384 169.303C136.199 169.215 136.051 169.068 135.94 168.863C135.833 168.655 135.779 168.375 135.779 168.024V162.77Z" fill="#A3A3A3"/>
<path d="M158.925 138.228V145.337H157.998V138.228H158.925ZM161.211 138.228V138.999H155.717V138.228H161.211ZM158.442 157.435C158.074 157.435 157.741 157.373 157.441 157.249C157.145 157.122 156.889 156.945 156.674 156.717C156.463 156.489 156.3 156.219 156.186 155.906C156.072 155.594 156.015 155.252 156.015 154.881V154.676C156.015 154.246 156.079 153.864 156.206 153.528C156.333 153.19 156.505 152.903 156.723 152.669C156.941 152.435 157.189 152.257 157.465 152.137C157.742 152.016 158.029 151.956 158.325 151.956C158.702 151.956 159.028 152.021 159.301 152.151C159.578 152.282 159.804 152.464 159.98 152.698C160.156 152.929 160.286 153.203 160.371 153.519C160.455 153.831 160.498 154.173 160.498 154.544V154.949H156.552V154.212H159.594V154.144C159.581 153.909 159.533 153.681 159.448 153.46C159.367 153.239 159.236 153.056 159.057 152.913C158.878 152.77 158.634 152.698 158.325 152.698C158.12 152.698 157.931 152.742 157.758 152.83C157.586 152.915 157.438 153.042 157.314 153.211C157.19 153.38 157.094 153.587 157.026 153.831C156.958 154.075 156.924 154.357 156.924 154.676V154.881C156.924 155.132 156.958 155.368 157.026 155.589C157.098 155.807 157.2 155.999 157.334 156.165C157.47 156.331 157.635 156.461 157.827 156.556C158.022 156.65 158.243 156.697 158.491 156.697C158.81 156.697 159.08 156.632 159.301 156.502C159.523 156.372 159.716 156.198 159.882 155.98L160.429 156.414C160.315 156.587 160.171 156.751 159.995 156.907C159.819 157.064 159.603 157.191 159.345 157.288C159.091 157.386 158.79 157.435 158.442 157.435ZM155.395 164.054L156.552 165.978L157.724 164.054H158.784L157.055 166.661L158.838 169.337H157.793L156.572 167.355L155.351 169.337H154.301L156.079 166.661L154.355 164.054H155.395ZM161.958 164.054V164.747H159.101V164.054H161.958ZM160.068 162.77H160.971V168.028C160.971 168.207 160.999 168.343 161.054 168.434C161.11 168.525 161.181 168.585 161.269 168.614C161.357 168.644 161.451 168.658 161.552 168.658C161.627 168.658 161.705 168.652 161.787 168.639C161.871 168.623 161.935 168.609 161.977 168.6L161.982 169.337C161.91 169.36 161.816 169.381 161.699 169.4C161.585 169.423 161.447 169.435 161.284 169.435C161.063 169.435 160.859 169.391 160.674 169.303C160.488 169.215 160.34 169.068 160.229 168.863C160.122 168.655 160.068 168.375 160.068 168.024V162.77Z" fill="#A3A3A3"/>
<path d="M183.215 138.228V145.337H182.287V138.228H183.215ZM185.5 138.228V138.999H180.007V138.228H185.5ZM182.731 157.435C182.363 157.435 182.03 157.373 181.73 157.249C181.434 157.122 181.178 156.945 180.964 156.717C180.752 156.489 180.589 156.219 180.475 155.906C180.361 155.594 180.304 155.252 180.304 154.881V154.676C180.304 154.246 180.368 153.864 180.495 153.528C180.622 153.19 180.794 152.903 181.012 152.669C181.23 152.435 181.478 152.257 181.755 152.137C182.031 152.016 182.318 151.956 182.614 151.956C182.992 151.956 183.317 152.021 183.59 152.151C183.867 152.282 184.093 152.464 184.269 152.698C184.445 152.929 184.575 153.203 184.66 153.519C184.744 153.831 184.787 154.173 184.787 154.544V154.949H180.841V154.212H183.883V154.144C183.87 153.909 183.822 153.681 183.737 153.46C183.656 153.239 183.525 153.056 183.346 152.913C183.167 152.77 182.923 152.698 182.614 152.698C182.409 152.698 182.22 152.742 182.048 152.83C181.875 152.915 181.727 153.042 181.603 153.211C181.479 153.38 181.383 153.587 181.315 153.831C181.247 154.075 181.213 154.357 181.213 154.676V154.881C181.213 155.132 181.247 155.368 181.315 155.589C181.387 155.807 181.489 155.999 181.623 156.165C181.759 156.331 181.924 156.461 182.116 156.556C182.311 156.65 182.533 156.697 182.78 156.697C183.099 156.697 183.369 156.632 183.59 156.502C183.812 156.372 184.006 156.198 184.172 155.98L184.718 156.414C184.604 156.587 184.46 156.751 184.284 156.907C184.108 157.064 183.892 157.191 183.634 157.288C183.381 157.386 183.079 157.435 182.731 157.435ZM179.684 164.054L180.841 165.978L182.013 164.054H183.073L181.344 166.661L183.127 169.337H182.082L180.861 167.355L179.64 169.337H178.59L180.368 166.661L178.644 164.054H179.684ZM186.247 164.054V164.747H183.39V164.054H186.247ZM184.357 162.77H185.26V168.028C185.26 168.207 185.288 168.343 185.343 168.434C185.399 168.525 185.47 168.585 185.558 168.614C185.646 168.644 185.741 168.658 185.841 168.658C185.916 168.658 185.994 168.652 186.076 168.639C186.16 168.623 186.224 168.609 186.266 168.6L186.271 169.337C186.2 169.36 186.105 169.381 185.988 169.4C185.874 169.423 185.736 169.435 185.573 169.435C185.352 169.435 185.148 169.391 184.963 169.303C184.777 169.215 184.629 169.068 184.518 168.863C184.411 168.655 184.357 168.375 184.357 168.024V162.77Z" fill="#A3A3A3"/>
<path d="M207.504 138.228V145.337H206.576V138.228H207.504ZM209.789 138.228V138.999H204.296V138.228H209.789ZM207.02 157.435C206.652 157.435 206.319 157.373 206.019 157.249C205.723 157.122 205.467 156.945 205.253 156.717C205.041 156.489 204.878 156.219 204.764 155.906C204.65 155.594 204.593 155.252 204.593 154.881V154.676C204.593 154.246 204.657 153.864 204.784 153.528C204.911 153.19 205.083 152.903 205.301 152.669C205.52 152.435 205.767 152.257 206.044 152.137C206.32 152.016 206.607 151.956 206.903 151.956C207.281 151.956 207.606 152.021 207.88 152.151C208.156 152.282 208.382 152.464 208.558 152.698C208.734 152.929 208.864 153.203 208.949 153.519C209.034 153.831 209.076 154.173 209.076 154.544V154.949H205.131V154.212H208.173V154.144C208.159 153.909 208.111 153.681 208.026 153.46C207.945 153.239 207.814 153.056 207.635 152.913C207.456 152.77 207.212 152.698 206.903 152.698C206.698 152.698 206.509 152.742 206.337 152.83C206.164 152.915 206.016 153.042 205.892 153.211C205.769 153.38 205.673 153.587 205.604 153.831C205.536 154.075 205.502 154.357 205.502 154.676V154.881C205.502 155.132 205.536 155.368 205.604 155.589C205.676 155.807 205.778 155.999 205.912 156.165C206.048 156.331 206.213 156.461 206.405 156.556C206.6 156.65 206.822 156.697 207.069 156.697C207.388 156.697 207.658 156.632 207.88 156.502C208.101 156.372 208.295 156.198 208.461 155.98L209.007 156.414C208.894 156.587 208.749 156.751 208.573 156.907C208.397 157.064 208.181 157.191 207.923 157.288C207.67 157.386 207.368 157.435 207.02 157.435ZM203.973 164.054L205.131 165.978L206.302 164.054H207.362L205.633 166.661L207.416 169.337H206.371L205.15 167.355L203.929 169.337H202.88L204.657 166.661L202.933 164.054H203.973ZM210.536 164.054V164.747H207.679V164.054H210.536ZM208.646 162.77H209.549V168.028C209.549 168.207 209.577 168.343 209.632 168.434C209.688 168.525 209.759 168.585 209.847 168.614C209.935 168.644 210.03 168.658 210.131 168.658C210.205 168.658 210.284 168.652 210.365 168.639C210.45 168.623 210.513 168.609 210.555 168.6L210.56 169.337C210.489 169.36 210.394 169.381 210.277 169.4C210.163 169.423 210.025 169.435 209.862 169.435C209.641 169.435 209.437 169.391 209.252 169.303C209.066 169.215 208.918 169.068 208.807 168.863C208.7 168.655 208.646 168.375 208.646 168.024V162.77Z" fill="#A3A3A3"/>
<path d="M227.457 138.228V145.337H226.529V138.228H227.457ZM229.742 138.228V138.999H224.249V138.228H229.742ZM226.974 157.435C226.606 157.435 226.272 157.373 225.973 157.249C225.677 157.122 225.421 156.945 225.206 156.717C224.995 156.489 224.832 156.219 224.718 155.906C224.604 155.594 224.547 155.252 224.547 154.881V154.676C224.547 154.246 224.611 153.864 224.737 153.528C224.864 153.19 225.037 152.903 225.255 152.669C225.473 152.435 225.721 152.257 225.997 152.137C226.274 152.016 226.56 151.956 226.857 151.956C227.234 151.956 227.56 152.021 227.833 152.151C228.11 152.282 228.336 152.464 228.512 152.698C228.688 152.929 228.818 153.203 228.903 153.519C228.987 153.831 229.029 154.173 229.029 154.544V154.949H225.084V154.212H228.126V154.144C228.113 153.909 228.064 153.681 227.98 153.46C227.898 153.239 227.768 153.056 227.589 152.913C227.41 152.77 227.166 152.698 226.857 152.698C226.652 152.698 226.463 152.742 226.29 152.83C226.118 152.915 225.97 153.042 225.846 153.211C225.722 153.38 225.626 153.587 225.558 153.831C225.489 154.075 225.455 154.357 225.455 154.676V154.881C225.455 155.132 225.489 155.368 225.558 155.589C225.629 155.807 225.732 155.999 225.865 156.165C226.002 156.331 226.167 156.461 226.359 156.556C226.554 156.65 226.775 156.697 227.023 156.697C227.342 156.697 227.612 156.632 227.833 156.502C228.055 156.372 228.248 156.198 228.414 155.98L228.961 156.414C228.847 156.587 228.702 156.751 228.527 156.907C228.351 157.064 228.134 157.191 227.877 157.288C227.623 157.386 227.322 157.435 226.974 157.435ZM223.927 164.054L225.084 165.978L226.256 164.054H227.316L225.587 166.661L227.369 169.337H226.324L225.104 167.355L223.883 169.337H222.833L224.611 166.661L222.887 164.054H223.927ZM230.489 164.054V164.747H227.633V164.054H230.489ZM228.6 162.77H229.503V168.028C229.503 168.207 229.531 168.343 229.586 168.434C229.641 168.525 229.713 168.585 229.801 168.614C229.889 168.644 229.983 168.658 230.084 168.658C230.159 168.658 230.237 168.652 230.319 168.639C230.403 168.623 230.467 168.609 230.509 168.6L230.514 169.337C230.442 169.36 230.348 169.381 230.231 169.4C230.117 169.423 229.978 169.435 229.816 169.435C229.594 169.435 229.391 169.391 229.205 169.303C229.02 169.215 228.872 169.068 228.761 168.863C228.654 168.655 228.6 168.375 228.6 168.024V162.77Z" fill="#A3A3A3"/>
<path d="M7.28541 134.746V135.83C7.28541 136.412 7.23332 136.904 7.12916 137.304C7.02499 137.705 6.87525 138.027 6.67994 138.271C6.48463 138.515 6.24862 138.693 5.97193 138.803C5.69849 138.911 5.38925 138.964 5.0442 138.964C4.77076 138.964 4.51848 138.93 4.28736 138.862C4.05624 138.794 3.84791 138.684 3.66236 138.535C3.48007 138.382 3.32382 138.183 3.19361 137.939C3.0634 137.695 2.96412 137.399 2.89576 137.05C2.8274 136.702 2.79322 136.295 2.79322 135.83V134.746C2.79322 134.163 2.8453 133.675 2.94947 133.281C3.05689 132.887 3.20826 132.571 3.40357 132.334C3.59888 132.093 3.83326 131.92 4.1067 131.816C4.38339 131.712 4.69263 131.66 5.03443 131.66C5.31112 131.66 5.56503 131.694 5.79615 131.762C6.03052 131.827 6.23886 131.933 6.42115 132.08C6.60344 132.223 6.75806 132.415 6.88502 132.656C7.01523 132.893 7.11451 133.185 7.18287 133.53C7.25123 133.875 7.28541 134.28 7.28541 134.746ZM6.3772 135.976V134.594C6.3772 134.275 6.35767 133.995 6.31861 133.754C6.2828 133.51 6.22909 133.302 6.15748 133.129C6.08586 132.957 5.99472 132.817 5.88404 132.71C5.77662 132.602 5.65129 132.524 5.50806 132.475C5.36809 132.423 5.21021 132.397 5.03443 132.397C4.81959 132.397 4.62916 132.438 4.46314 132.519C4.29713 132.597 4.15715 132.723 4.04322 132.895C3.93254 133.068 3.84791 133.294 3.78931 133.574C3.73072 133.854 3.70142 134.194 3.70142 134.594V135.976C3.70142 136.295 3.71933 136.577 3.75513 136.821C3.7942 137.065 3.85116 137.277 3.92603 137.456C4.0009 137.631 4.09205 137.776 4.19947 137.89C4.30689 138.004 4.43059 138.089 4.57056 138.144C4.71379 138.196 4.87167 138.222 5.0442 138.222C5.26555 138.222 5.45924 138.18 5.62525 138.095C5.79127 138.011 5.92961 137.879 6.04029 137.7C6.15422 137.518 6.23886 137.285 6.2942 137.002C6.34954 136.715 6.3772 136.373 6.3772 135.976Z" fill="#A3A3A3"/>
<path d="M7.48073 112.244V112.986H2.82741V112.336L5.15651 109.744C5.44297 109.425 5.66432 109.154 5.82057 108.933C5.98008 108.709 6.09075 108.508 6.1526 108.333C6.21771 108.154 6.25026 107.971 6.25026 107.786C6.25026 107.551 6.20143 107.34 6.10377 107.151C6.00937 106.959 5.8694 106.806 5.68385 106.692C5.49831 106.578 5.2737 106.521 5.01002 106.521C4.69427 106.521 4.4306 106.583 4.21901 106.707C4.01068 106.827 3.85443 106.996 3.75026 107.214C3.64609 107.432 3.59401 107.683 3.59401 107.966H2.69069C2.69069 107.566 2.77858 107.2 2.95436 106.868C3.13014 106.536 3.39056 106.272 3.73561 106.077C4.08066 105.878 4.50547 105.779 5.01002 105.779C5.45924 105.779 5.84336 105.859 6.16237 106.018C6.48138 106.174 6.72552 106.396 6.89479 106.682C7.06732 106.965 7.15358 107.297 7.15358 107.678C7.15358 107.887 7.11777 108.098 7.04616 108.313C6.9778 108.525 6.88177 108.736 6.75807 108.948C6.63763 109.159 6.49603 109.368 6.33327 109.573C6.17376 109.778 6.00286 109.98 5.82057 110.178L3.91627 112.244H7.48073ZM7.28541 120.865V121.949C7.28541 122.531 7.23333 123.023 7.12916 123.423C7.025 123.824 6.87526 124.146 6.67995 124.39C6.48463 124.634 6.24863 124.812 5.97194 124.922C5.6985 125.03 5.38926 125.084 5.0442 125.084C4.77077 125.084 4.51849 125.049 4.28737 124.981C4.05625 124.913 3.84791 124.804 3.66237 124.654C3.48008 124.501 3.32383 124.302 3.19362 124.058C3.06341 123.814 2.96413 123.518 2.89577 123.169C2.82741 122.821 2.79323 122.414 2.79323 121.949V120.865C2.79323 120.282 2.84531 119.794 2.94948 119.4C3.0569 119.006 3.20827 118.69 3.40358 118.453C3.59889 118.212 3.83327 118.039 4.1067 117.935C4.3834 117.831 4.69264 117.779 5.03444 117.779C5.31113 117.779 5.56504 117.813 5.79616 117.881C6.03053 117.946 6.23887 118.052 6.42116 118.199C6.60345 118.342 6.75807 118.534 6.88502 118.775C7.01523 119.013 7.11452 119.304 7.18288 119.649C7.25124 119.994 7.28541 120.399 7.28541 120.865ZM6.37721 122.095V120.713C6.37721 120.394 6.35768 120.114 6.31862 119.874C6.28281 119.629 6.2291 119.421 6.15749 119.249C6.08587 119.076 5.99472 118.936 5.88405 118.829C5.77663 118.721 5.6513 118.643 5.50807 118.594C5.3681 118.542 5.21022 118.516 5.03444 118.516C4.81959 118.516 4.62916 118.557 4.46315 118.638C4.29713 118.716 4.15716 118.842 4.04323 119.014C3.93255 119.187 3.84791 119.413 3.78932 119.693C3.73073 119.973 3.70143 120.313 3.70143 120.713V122.095C3.70143 122.414 3.71933 122.696 3.75514 122.94C3.7942 123.184 3.85117 123.396 3.92604 123.575C4.00091 123.751 4.09206 123.895 4.19948 124.009C4.3069 124.123 4.4306 124.208 4.57057 124.263C4.7138 124.315 4.87168 124.341 5.0442 124.341C5.26556 124.341 5.45924 124.299 5.62526 124.214C5.79127 124.13 5.92962 123.998 6.0403 123.819C6.15423 123.637 6.23887 123.404 6.2942 123.121C6.34954 122.834 6.37721 122.492 6.37721 122.095Z" fill="#A3A3A3"/>
<path d="M7.62721 84.7124V85.4545H2.49049V84.9223L5.67409 79.9956H6.41139L5.62038 81.4213L3.51588 84.7124H7.62721ZM6.636 79.9956V87.1049H5.73268V79.9956H6.636ZM7.28541 94.9838V96.0678C7.28541 96.6505 7.23333 97.142 7.12916 97.5424C7.025 97.9428 6.87526 98.2651 6.67995 98.5092C6.48463 98.7534 6.24863 98.9308 5.97194 99.0415C5.6985 99.1489 5.38926 99.2026 5.0442 99.2026C4.77077 99.2026 4.51849 99.1684 4.28737 99.1001C4.05625 99.0317 3.84791 98.9226 3.66237 98.7729C3.48008 98.6199 3.32383 98.4213 3.19362 98.1772C3.06341 97.9331 2.96413 97.6368 2.89577 97.2885C2.82741 96.9402 2.79323 96.5333 2.79323 96.0678V94.9838C2.79323 94.4012 2.84531 93.9129 2.94948 93.519C3.0569 93.1251 3.20827 92.8094 3.40358 92.5717C3.59889 92.3308 3.83327 92.1583 4.1067 92.0542C4.3834 91.95 4.69264 91.8979 5.03444 91.8979C5.31113 91.8979 5.56504 91.9321 5.79616 92.0004C6.03053 92.0655 6.23887 92.1713 6.42116 92.3178C6.60345 92.4611 6.75807 92.6531 6.88502 92.894C7.01523 93.1316 7.11452 93.423 7.18288 93.768C7.25124 94.1131 7.28541 94.5183 7.28541 94.9838ZM6.37721 96.2143V94.8325C6.37721 94.5135 6.35768 94.2335 6.31862 93.9926C6.28281 93.7485 6.2291 93.5402 6.15749 93.3676C6.08587 93.1951 5.99472 93.0551 5.88405 92.9477C5.77663 92.8403 5.6513 92.7622 5.50807 92.7133C5.3681 92.6612 5.21022 92.6352 5.03444 92.6352C4.81959 92.6352 4.62916 92.6759 4.46315 92.7573C4.29713 92.8354 4.15716 92.9607 4.04323 93.1333C3.93255 93.3058 3.84791 93.532 3.78932 93.812C3.73073 94.0919 3.70143 94.4321 3.70143 94.8325V96.2143C3.70143 96.5333 3.71933 96.8149 3.75514 97.059C3.7942 97.3032 3.85117 97.5148 3.92604 97.6938C4.00091 97.8696 4.09206 98.0144 4.19948 98.1284C4.3069 98.2423 4.4306 98.3269 4.57057 98.3823C4.7138 98.4344 4.87168 98.4604 5.0442 98.4604C5.26556 98.4604 5.45924 98.4181 5.62526 98.3335C5.79127 98.2488 5.92962 98.117 6.0403 97.9379C6.15423 97.7557 6.23887 97.5229 6.2942 97.2397C6.34954 96.9532 6.37721 96.6114 6.37721 96.2143Z" fill="#A3A3A3"/>
<path d="M6.28932 54.1049H6.36745V54.8715H6.28932C5.81081 54.8715 5.41041 54.9496 5.08815 55.1059C4.76588 55.2588 4.51035 55.4656 4.32155 55.726C4.13275 55.9831 3.99603 56.2728 3.91139 56.5951C3.83001 56.9174 3.78932 57.2445 3.78932 57.5766V58.6215C3.78932 58.9372 3.82676 59.2172 3.90163 59.4613C3.9765 59.7022 4.07903 59.9057 4.20924 60.0717C4.33945 60.2377 4.48594 60.363 4.6487 60.4476C4.81471 60.5323 4.98724 60.5746 5.16627 60.5746C5.37461 60.5746 5.56015 60.5355 5.72291 60.4574C5.88568 60.376 6.02239 60.2637 6.13307 60.1205C6.247 59.974 6.33327 59.8015 6.39186 59.6029C6.45045 59.4044 6.47975 59.1863 6.47975 58.9486C6.47975 58.737 6.45371 58.5336 6.40163 58.3383C6.34954 58.1397 6.26979 57.9639 6.16237 57.8109C6.05495 57.6547 5.91985 57.5326 5.75709 57.4447C5.59759 57.3536 5.40716 57.308 5.18581 57.308C4.93515 57.308 4.70078 57.3698 4.48268 57.4935C4.26784 57.614 4.09043 57.7735 3.95045 57.9721C3.81374 58.1674 3.73561 58.3806 3.71608 58.6117L3.23756 58.6068C3.28314 58.2422 3.36777 57.9314 3.49147 57.6742C3.61842 57.4138 3.77467 57.2022 3.96022 57.0394C4.14902 56.8734 4.35898 56.753 4.5901 56.6781C4.82448 56.6 5.07187 56.5609 5.33229 56.5609C5.68711 56.5609 5.9931 56.6277 6.25026 56.7611C6.50742 56.8946 6.71901 57.0736 6.88502 57.2982C7.05104 57.5196 7.17311 57.7702 7.25124 58.0502C7.33262 58.3269 7.37331 58.6117 7.37331 58.9047C7.37331 59.24 7.3261 59.5541 7.2317 59.8471C7.1373 60.14 6.9957 60.3972 6.8069 60.6185C6.62135 60.8399 6.39186 61.0124 6.11842 61.1361C5.84499 61.2598 5.5276 61.3217 5.16627 61.3217C4.78216 61.3217 4.44687 61.2435 4.16041 61.0873C3.87396 60.9278 3.63633 60.7162 3.44752 60.4525C3.25872 60.1889 3.11712 59.8959 3.02272 59.5736C2.92832 59.2514 2.88112 58.9242 2.88112 58.5922V58.1674C2.88112 57.6661 2.93157 57.1745 3.03249 56.6928C3.1334 56.211 3.30755 55.7748 3.55495 55.3842C3.8056 54.9935 4.15228 54.6827 4.59499 54.4516C5.03769 54.2204 5.60247 54.1049 6.28932 54.1049ZM7.28541 69.1029V70.1869C7.28541 70.7696 7.23333 71.2611 7.12916 71.6615C7.025 72.0619 6.87526 72.3842 6.67995 72.6283C6.48463 72.8725 6.24863 73.0499 5.97194 73.1605C5.6985 73.268 5.38926 73.3217 5.0442 73.3217C4.77077 73.3217 4.51849 73.2875 4.28737 73.2191C4.05625 73.1508 3.84791 73.0417 3.66237 72.892C3.48008 72.739 3.32383 72.5404 3.19362 72.2963C3.06341 72.0521 2.96413 71.7559 2.89577 71.4076C2.82741 71.0593 2.79323 70.6524 2.79323 70.1869V69.1029C2.79323 68.5202 2.84531 68.032 2.94948 67.6381C3.0569 67.2442 3.20827 66.9284 3.40358 66.6908C3.59889 66.4499 3.83327 66.2774 4.1067 66.1732C4.3834 66.0691 4.69264 66.017 5.03444 66.017C5.31113 66.017 5.56504 66.0512 5.79616 66.1195C6.03053 66.1846 6.23887 66.2904 6.42116 66.4369C6.60345 66.5801 6.75807 66.7722 6.88502 67.0131C7.01523 67.2507 7.11452 67.542 7.18288 67.8871C7.25124 68.2322 7.28541 68.6374 7.28541 69.1029ZM6.37721 70.3334V68.9516C6.37721 68.6325 6.35768 68.3526 6.31862 68.1117C6.28281 67.8676 6.2291 67.6592 6.15749 67.4867C6.08587 67.3142 5.99472 67.1742 5.88405 67.0668C5.77663 66.9594 5.6513 66.8812 5.50807 66.8324C5.3681 66.7803 5.21022 66.7543 5.03444 66.7543C4.81959 66.7543 4.62916 66.795 4.46315 66.8764C4.29713 66.9545 4.15716 67.0798 4.04323 67.2523C3.93255 67.4249 3.84791 67.6511 3.78932 67.931C3.73073 68.211 3.70143 68.5512 3.70143 68.9516V70.3334C3.70143 70.6524 3.71933 70.934 3.75514 71.1781C3.7942 71.4223 3.85117 71.6338 3.92604 71.8129C4.00091 71.9887 4.09206 72.1335 4.19948 72.2475C4.3069 72.3614 4.4306 72.446 4.57057 72.5014C4.7138 72.5534 4.87168 72.5795 5.0442 72.5795C5.26556 72.5795 5.45924 72.5372 5.62526 72.4525C5.79127 72.3679 5.92962 72.2361 6.0403 72.057C6.15423 71.8747 6.23887 71.642 6.2942 71.3588C6.34954 71.0723 6.37721 70.7305 6.37721 70.3334Z" fill="#A3A3A3"/>
<path d="M7.30495 33.4193C7.30495 33.8522 7.20403 34.22 7.00221 34.5228C6.80364 34.8223 6.53346 35.0501 6.19166 35.2064C5.85312 35.3626 5.47064 35.4407 5.0442 35.4407C4.61777 35.4407 4.23366 35.3626 3.89186 35.2064C3.55006 35.0501 3.27988 34.8223 3.08131 34.5228C2.88275 34.22 2.78346 33.8522 2.78346 33.4193C2.78346 33.1361 2.83717 32.8773 2.94459 32.6429C3.05527 32.4053 3.20989 32.1986 3.40846 32.0228C3.61028 31.847 3.84791 31.7119 4.12135 31.6175C4.39804 31.5198 4.70241 31.471 5.03444 31.471C5.47064 31.471 5.85963 31.5557 6.20143 31.7249C6.54323 31.8909 6.81178 32.1204 7.00709 32.4134C7.20566 32.7064 7.30495 33.0417 7.30495 33.4193ZM6.39674 33.3997C6.39674 33.1361 6.33978 32.9033 6.22584 32.7015C6.11191 32.4964 5.95241 32.3369 5.74733 32.223C5.54225 32.109 5.30462 32.0521 5.03444 32.0521C4.75775 32.0521 4.51849 32.109 4.31666 32.223C4.1181 32.3369 3.96347 32.4964 3.8528 32.7015C3.74212 32.9033 3.68678 33.1361 3.68678 33.3997C3.68678 33.6732 3.74049 33.9075 3.84791 34.1029C3.95859 34.2949 4.11484 34.443 4.31666 34.5472C4.52174 34.6481 4.76426 34.6986 5.0442 34.6986C5.32415 34.6986 5.56504 34.6481 5.76686 34.5472C5.96868 34.443 6.12331 34.2949 6.23073 34.1029C6.3414 33.9075 6.39674 33.6732 6.39674 33.3997ZM7.13893 30.0843C7.13893 30.4293 7.04778 30.7402 6.86549 31.0169C6.6832 31.2936 6.43418 31.5117 6.11842 31.6712C5.80267 31.8307 5.44459 31.9105 5.0442 31.9105C4.6373 31.9105 4.27435 31.8307 3.95534 31.6712C3.63958 31.5117 3.39219 31.2936 3.21315 31.0169C3.03411 30.7402 2.94459 30.4293 2.94459 30.0843C2.94459 29.6709 3.03411 29.3193 3.21315 29.0296C3.39544 28.7399 3.64446 28.5185 3.96022 28.3655C4.27597 28.2126 4.63568 28.1361 5.03932 28.1361C5.44622 28.1361 5.80755 28.2126 6.12331 28.3655C6.43906 28.5185 6.68646 28.7399 6.86549 29.0296C7.04778 29.3193 7.13893 29.6709 7.13893 30.0843ZM6.23561 30.0989C6.23561 29.8613 6.18515 29.6514 6.08424 29.4691C5.98333 29.2868 5.84336 29.1435 5.66432 29.0394C5.48528 28.932 5.27695 28.8782 5.03932 28.8782C4.80169 28.8782 4.59336 28.9287 4.41432 29.0296C4.23854 29.1273 4.10019 29.2672 3.99928 29.4495C3.90163 29.6318 3.8528 29.8483 3.8528 30.0989C3.8528 30.3431 3.90163 30.5563 3.99928 30.7386C4.10019 30.9209 4.24017 31.0625 4.4192 31.1634C4.59824 31.2643 4.80657 31.3148 5.0442 31.3148C5.28183 31.3148 5.48854 31.2643 5.66432 31.1634C5.84336 31.0625 5.98333 30.9209 6.08424 30.7386C6.18515 30.5563 6.23561 30.3431 6.23561 30.0989ZM7.28541 43.222V44.306C7.28541 44.8887 7.23333 45.3802 7.12916 45.7806C7.025 46.181 6.87526 46.5032 6.67995 46.7474C6.48463 46.9915 6.24863 47.1689 5.97194 47.2796C5.6985 47.387 5.38926 47.4407 5.0442 47.4407C4.77077 47.4407 4.51849 47.4066 4.28737 47.3382C4.05625 47.2698 3.84791 47.1608 3.66237 47.0111C3.48008 46.8581 3.32383 46.6595 3.19362 46.4154C3.06341 46.1712 2.96413 45.875 2.89577 45.5267C2.82741 45.1784 2.79323 44.7715 2.79323 44.306V43.222C2.79323 42.6393 2.84531 42.151 2.94948 41.7571C3.0569 41.3633 3.20827 41.0475 3.40358 40.8099C3.59889 40.569 3.83327 40.3965 4.1067 40.2923C4.3834 40.1881 4.69264 40.1361 5.03444 40.1361C5.31113 40.1361 5.56504 40.1702 5.79616 40.2386C6.03053 40.3037 6.23887 40.4095 6.42116 40.556C6.60345 40.6992 6.75807 40.8913 6.88502 41.1321C7.01523 41.3698 7.11452 41.6611 7.18288 42.0062C7.25124 42.3512 7.28541 42.7565 7.28541 43.222ZM6.37721 44.4525V43.0706C6.37721 42.7516 6.35768 42.4717 6.31862 42.2308C6.28281 41.9866 6.2291 41.7783 6.15749 41.6058C6.08587 41.4333 5.99472 41.2933 5.88405 41.1859C5.77663 41.0784 5.6513 41.0003 5.50807 40.9515C5.3681 40.8994 5.21022 40.8734 5.03444 40.8734C4.81959 40.8734 4.62916 40.914 4.46315 40.9954C4.29713 41.0736 4.15716 41.1989 4.04323 41.3714C3.93255 41.5439 3.84791 41.7702 3.78932 42.0501C3.73073 42.3301 3.70143 42.6702 3.70143 43.0706V44.4525C3.70143 44.7715 3.71933 45.053 3.75514 45.2972C3.7942 45.5413 3.85117 45.7529 3.92604 45.932C4.00091 46.1077 4.09206 46.2526 4.19948 46.3665C4.3069 46.4805 4.4306 46.5651 4.57057 46.6204C4.7138 46.6725 4.87168 46.6986 5.0442 46.6986C5.26556 46.6986 5.45924 46.6562 5.62526 46.5716C5.79127 46.487 5.92962 46.3551 6.0403 46.1761C6.15423 45.9938 6.23887 45.7611 6.2942 45.4779C6.34954 45.1914 6.37721 44.8496 6.37721 44.4525Z" fill="#A3A3A3"/>
<path d="M5.79128 1.85156V9H4.88796V2.97949L3.06667 3.64355V2.82812L5.64968 1.85156H5.79128ZM7.28542 16.8789V17.9629C7.28542 18.5456 7.23334 19.0371 7.12917 19.4375C7.025 19.8379 6.87526 20.1602 6.67995 20.4043C6.48464 20.6484 6.24864 20.8258 5.97194 20.9365C5.69851 21.0439 5.38926 21.0977 5.04421 21.0977C4.77077 21.0977 4.51849 21.0635 4.28737 20.9951C4.05625 20.9268 3.84792 20.8177 3.66237 20.668C3.48008 20.515 3.32383 20.3164 3.19362 20.0723C3.06342 19.8281 2.96413 19.5319 2.89577 19.1836C2.82741 18.8353 2.79323 18.4284 2.79323 17.9629V16.8789C2.79323 16.2962 2.84532 15.8079 2.94948 15.4141C3.0569 15.0202 3.20827 14.7044 3.40358 14.4668C3.5989 14.2259 3.83327 14.0534 4.10671 13.9492C4.3834 13.8451 4.69265 13.793 5.03444 13.793C5.31114 13.793 5.56504 13.8271 5.79616 13.8955C6.03054 13.9606 6.23887 14.0664 6.42116 14.2129C6.60345 14.3561 6.75808 14.5482 6.88503 14.7891C7.01524 15.0267 7.11452 15.318 7.18288 15.6631C7.25124 16.0081 7.28542 16.4134 7.28542 16.8789ZM6.37722 18.1094V16.7275C6.37722 16.4085 6.35769 16.1286 6.31862 15.8877C6.28282 15.6436 6.22911 15.4352 6.15749 15.2627C6.08588 15.0902 5.99473 14.9502 5.88405 14.8428C5.77663 14.7354 5.65131 14.6572 5.50808 14.6084C5.3681 14.5563 5.21023 14.5303 5.03444 14.5303C4.8196 14.5303 4.62917 14.571 4.46315 14.6523C4.29714 14.7305 4.15717 14.8558 4.04323 15.0283C3.93256 15.2008 3.84792 15.4271 3.78933 15.707C3.73073 15.987 3.70144 16.3271 3.70144 16.7275V18.1094C3.70144 18.4284 3.71934 18.71 3.75515 18.9541C3.79421 19.1982 3.85118 19.4098 3.92605 19.5889C4.00092 19.7646 4.09206 19.9095 4.19948 20.0234C4.3069 20.1374 4.4306 20.222 4.57058 20.2773C4.71381 20.3294 4.87168 20.3555 5.04421 20.3555C5.26556 20.3555 5.45925 20.3132 5.62526 20.2285C5.79128 20.1439 5.92963 20.012 6.0403 19.833C6.15424 19.6507 6.23887 19.418 6.29421 19.1348C6.34955 18.8483 6.37722 18.5065 6.37722 18.1094ZM7.28542 28.8789V29.9629C7.28542 30.5456 7.23334 31.0371 7.12917 31.4375C7.025 31.8379 6.87526 32.1602 6.67995 32.4043C6.48464 32.6484 6.24864 32.8258 5.97194 32.9365C5.69851 33.0439 5.38926 33.0977 5.04421 33.0977C4.77077 33.0977 4.51849 33.0635 4.28737 32.9951C4.05625 32.9268 3.84792 32.8177 3.66237 32.668C3.48008 32.515 3.32383 32.3164 3.19362 32.0723C3.06342 31.8281 2.96413 31.5319 2.89577 31.1836C2.82741 30.8353 2.79323 30.4284 2.79323 29.9629V28.8789C2.79323 28.2962 2.84532 27.8079 2.94948 27.4141C3.0569 27.0202 3.20827 26.7044 3.40358 26.4668C3.5989 26.2259 3.83327 26.0534 4.10671 25.9492C4.3834 25.8451 4.69265 25.793 5.03444 25.793C5.31114 25.793 5.56504 25.8271 5.79616 25.8955C6.03054 25.9606 6.23887 26.0664 6.42116 26.2129C6.60345 26.3561 6.75808 26.5482 6.88503 26.7891C7.01524 27.0267 7.11452 27.318 7.18288 27.6631C7.25124 28.0081 7.28542 28.4134 7.28542 28.8789ZM6.37722 30.1094V28.7275C6.37722 28.4085 6.35769 28.1286 6.31862 27.8877C6.28282 27.6436 6.22911 27.4352 6.15749 27.2627C6.08588 27.0902 5.99473 26.9502 5.88405 26.8428C5.77663 26.7354 5.65131 26.6572 5.50808 26.6084C5.3681 26.5563 5.21023 26.5303 5.03444 26.5303C4.8196 26.5303 4.62917 26.571 4.46315 26.6523C4.29714 26.7305 4.15717 26.8558 4.04323 27.0283C3.93256 27.2008 3.84792 27.4271 3.78933 27.707C3.73073 27.987 3.70144 28.3271 3.70144 28.7275V30.1094C3.70144 30.4284 3.71934 30.71 3.75515 30.9541C3.79421 31.1982 3.85118 31.4098 3.92605 31.5889C4.00092 31.7646 4.09206 31.9095 4.19948 32.0234C4.3069 32.1374 4.4306 32.222 4.57058 32.2773C4.71381 32.3294 4.87168 32.3555 5.04421 32.3555C5.26556 32.3555 5.45925 32.3132 5.62526 32.2285C5.79128 32.1439 5.92963 32.012 6.0403 31.833C6.15424 31.6507 6.23887 31.418 6.29421 31.1348C6.34955 30.8483 6.37722 30.5065 6.37722 30.1094Z" fill="#A3A3A3"/>
<path d="M12.4783 123.549C12.4783 123.549 27.0517 112.9 36.7673 107.965C46.483 103.03 51.3408 103.03 61.0564 98.8744C70.772 94.7186 75.6298 91.6018 85.3454 87.1864C95.0611 82.7709 99.9189 80.4333 109.634 76.797C119.35 73.1608 124.208 72.3816 133.924 69.005C143.639 65.6285 148.497 63.5506 158.213 59.9143C167.928 56.2781 172.786 54.7197 182.502 50.8237C192.217 46.9277 197.075 44.0706 206.791 40.4343C216.506 36.7981 231.08 32.6423 231.08 32.6423" stroke="#A6CEE3" stroke-width="2"/>
<path d="M12.4783 125.245C11.9881 125.245 11.518 125.05 11.1713 124.704C10.8246 124.357 10.6298 123.887 10.6297 123.397C10.6295 122.907 10.8241 122.437 11.1706 122.09C11.5171 121.743 11.9872 121.548 12.4774 121.548C12.9676 121.548 13.4378 121.742 13.7847 122.089C14.1315 122.435 14.3266 122.905 14.3269 123.395C14.3273 123.885 14.133 124.356 13.7866 124.703C13.4403 125.05 12.9704 125.245 12.4802 125.245H12.4783Z" fill="#A6CEE3"/>
<path d="M36.5106 109.994C36.0204 109.994 35.5502 109.799 35.2036 109.453C34.8569 109.106 34.6621 108.636 34.662 108.146C34.6618 107.656 34.8564 107.185 35.2029 106.839C35.5494 106.492 36.0195 106.297 36.5097 106.297C36.9999 106.296 37.4701 106.491 37.817 106.837C38.1638 107.184 38.3589 107.654 38.3592 108.144C38.3596 108.634 38.1652 109.104 37.8189 109.451C37.4726 109.798 37.0027 109.993 36.5124 109.994H36.5106Z" fill="#A6CEE3"/>
<path d="M61.005 100.751C60.5148 100.751 60.0447 100.556 59.698 100.209C59.3513 99.8629 59.1565 99.3928 59.1564 98.9026C59.1563 98.4124 59.3509 97.9422 59.6974 97.5954C60.0439 97.2487 60.5139 97.0537 61.0041 97.0535C61.4943 97.0532 61.9646 97.2477 62.3114 97.5941C62.6583 97.9405 62.8533 98.4105 62.8537 98.9007C62.854 99.3909 62.6597 99.8612 62.3134 100.208C61.967 100.555 61.4971 100.75 61.0069 100.751H61.005Z" fill="#A6CEE3"/>
<path d="M85.0373 89.1968C84.5471 89.1968 84.077 89.0021 83.7303 88.6555C83.3836 88.3089 83.1888 87.8388 83.1887 87.3486C83.1886 86.8584 83.3832 86.3882 83.7297 86.0414C84.0762 85.6947 84.5462 85.4997 85.0364 85.4995C85.5266 85.4992 85.9968 85.6937 86.3437 86.0401C86.6905 86.3865 86.8856 86.8565 86.886 87.3467C86.8863 87.8369 86.692 88.3072 86.3457 88.6542C85.9993 89.0011 85.5294 89.1963 85.0392 89.1968H85.0373Z" fill="#A6CEE3"/>
<path d="M109.532 78.5671C109.042 78.5671 108.571 78.3724 108.225 78.0258C107.878 77.6792 107.683 77.2091 107.683 76.7189C107.683 76.2287 107.878 75.7585 108.224 75.4118C108.571 75.065 109.041 74.8701 109.531 74.8698C110.021 74.8696 110.491 75.064 110.838 75.4105C111.185 75.7569 111.38 76.2269 111.38 76.7171C111.381 77.2073 111.186 77.6776 110.84 78.0245C110.494 78.3714 110.024 78.5666 109.534 78.5671H109.532Z" fill="#A6CEE3"/>
<path d="M133.564 70.7104C133.074 70.7104 132.604 70.5157 132.257 70.1691C131.91 69.8225 131.716 69.3524 131.715 68.8622C131.715 68.372 131.91 67.9018 132.256 67.5551C132.603 67.2083 133.073 67.0134 133.563 67.0131C134.053 67.0129 134.524 67.2073 134.87 67.5537C135.217 67.9002 135.412 68.3702 135.413 68.8604C135.413 69.3506 135.219 69.8209 134.872 70.1678C134.526 70.5147 134.056 70.7099 133.566 70.7104H133.564Z" fill="#A6CEE3"/>
<path d="M158.059 61.9294C157.568 61.9294 157.098 61.7347 156.752 61.3881C156.405 61.0415 156.21 60.5714 156.21 60.0812C156.21 59.591 156.404 59.1208 156.751 58.774C157.097 58.4273 157.567 58.2323 158.058 58.2321C158.548 58.2318 159.018 58.4263 159.365 58.7727C159.712 59.1191 159.907 59.5891 159.907 60.0793C159.908 60.5695 159.713 61.0398 159.367 61.3868C159.021 61.7337 158.551 61.9289 158.06 61.9294H158.059Z" fill="#A6CEE3"/>
<path d="M182.091 52.6862C181.601 52.6862 181.13 52.4915 180.784 52.1449C180.437 51.7983 180.242 51.3282 180.242 50.838C180.242 50.3478 180.437 49.8776 180.783 49.5308C181.13 49.1841 181.6 48.9891 182.09 48.9889C182.58 48.9887 183.05 49.1831 183.397 49.5295C183.744 49.876 183.939 50.3459 183.939 50.8362C183.94 51.3264 183.745 51.7966 183.399 52.1436C183.053 52.4905 182.583 52.6857 182.093 52.6862H182.091Z" fill="#A6CEE3"/>
<path d="M206.585 42.0565C206.095 42.0565 205.625 41.8618 205.278 41.5152C204.932 41.1686 204.737 40.6985 204.737 40.2083C204.736 39.7181 204.931 39.2479 205.278 38.9012C205.624 38.5544 206.094 38.3595 206.584 38.3592C207.075 38.359 207.545 38.5535 207.892 38.8999C208.238 39.2463 208.434 39.7163 208.434 40.2065C208.434 40.6967 208.24 41.167 207.894 41.5139C207.547 41.8608 207.077 42.056 206.587 42.0565H206.585Z" fill="#A6CEE3"/>
<path d="M231.08 34.662C230.589 34.662 230.119 34.4673 229.773 34.1207C229.426 33.7741 229.231 33.304 229.231 32.8138C229.231 32.3236 229.426 31.8534 229.772 31.5066C230.119 31.1599 230.589 30.9649 231.079 30.9647C231.569 30.9644 232.039 31.1589 232.386 31.5053C232.733 31.8517 232.928 32.3217 232.928 32.8119C232.929 33.3021 232.734 33.7724 232.388 34.1194C232.042 34.4663 231.572 34.6615 231.082 34.662H231.08Z" fill="#A6CEE3"/>
</svg>
