<svg width="237" height="146" viewBox="0 0 237 146" fill="none" xmlns="http://www.w3.org/2000/svg">
<path d="M26.5 6.77295V125.773" stroke="#F0F0F0"/>
<path d="M68.5 6.77295V125.773" stroke="#F0F0F0"/>
<path d="M111.5 6.77295V125.773" stroke="#F0F0F0"/>
<path d="M153.5 6.77295V125.773" stroke="#F0F0F0"/>
<path d="M196.5 6.77295V125.773" stroke="#F0F0F0"/>
<path d="M27 126.273H233" stroke="#F0F0F0"/>
<path d="M27 67.2729H233" stroke="#F0F0F0"/>
<path d="M27 6.27295H233" stroke="#F0F0F0"/>
<path d="M27 126.273H233" stroke="#F0F0F0"/>
<path d="M26.5 6.77295V125.773" stroke="#F0F0F0"/>
<path d="M20.9453 135.664V142.773H20.0176V135.664H20.9453ZM23.2305 135.664V136.435H17.7373V135.664H23.2305ZM25.8525 142.871C25.4847 142.871 25.151 142.809 24.8516 142.685C24.5553 142.558 24.2998 142.381 24.085 142.153C23.8734 141.925 23.7106 141.655 23.5967 141.342C23.4827 141.03 23.4258 140.688 23.4258 140.317V140.112C23.4258 139.682 23.4893 139.3 23.6162 138.964C23.7432 138.626 23.9157 138.339 24.1338 138.105C24.3519 137.871 24.5993 137.693 24.876 137.573C25.1527 137.452 25.4391 137.392 25.7354 137.392C26.113 137.392 26.4385 137.457 26.7119 137.587C26.9886 137.718 27.2148 137.9 27.3906 138.134C27.5664 138.365 27.6966 138.639 27.7812 138.955C27.8659 139.267 27.9082 139.609 27.9082 139.98V140.385H23.9629V139.648H27.0049V139.58C26.9919 139.345 26.943 139.117 26.8584 138.896C26.777 138.675 26.6468 138.492 26.4678 138.349C26.2887 138.206 26.0446 138.134 25.7354 138.134C25.5303 138.134 25.3415 138.178 25.1689 138.266C24.9964 138.351 24.8483 138.478 24.7246 138.647C24.6009 138.816 24.5049 139.023 24.4365 139.267C24.3682 139.511 24.334 139.793 24.334 140.112V140.317C24.334 140.568 24.3682 140.804 24.4365 141.025C24.5081 141.243 24.6107 141.435 24.7441 141.601C24.8809 141.767 25.0452 141.897 25.2373 141.992C25.4326 142.086 25.654 142.133 25.9014 142.133C26.2204 142.133 26.4906 142.068 26.7119 141.938C26.9333 141.808 27.127 141.634 27.293 141.416L27.8398 141.85C27.7259 142.023 27.5811 142.187 27.4053 142.343C27.2295 142.5 27.013 142.626 26.7559 142.724C26.502 142.822 26.2008 142.871 25.8525 142.871ZM29.5732 137.49L30.7305 139.414L31.9023 137.49H32.9619L31.2334 140.097L33.0156 142.773H31.9707L30.75 140.791L29.5293 142.773H28.4795L30.2568 140.097L28.5332 137.49H29.5732ZM36.1357 137.49V138.183H33.2793V137.49H36.1357ZM34.2461 136.206H35.1494V141.464C35.1494 141.643 35.1771 141.778 35.2324 141.87C35.2878 141.961 35.3594 142.021 35.4473 142.05C35.5352 142.08 35.6296 142.094 35.7305 142.094C35.8053 142.094 35.8835 142.088 35.9648 142.075C36.0495 142.058 36.113 142.045 36.1553 142.036L36.1602 142.773C36.0885 142.796 35.9941 142.817 35.877 142.836C35.763 142.859 35.6247 142.871 35.4619 142.871C35.2406 142.871 35.0371 142.827 34.8516 142.739C34.666 142.651 34.5179 142.504 34.4072 142.299C34.2998 142.091 34.2461 141.811 34.2461 141.459V136.206Z" fill="#A3A3A3"/>
<path d="M63.3571 135.664V142.773H62.4294V135.664H63.3571ZM65.6422 135.664V136.435H60.1491V135.664H65.6422ZM68.2643 142.871C67.8965 142.871 67.5628 142.809 67.2633 142.685C66.9671 142.558 66.7116 142.381 66.4967 142.153C66.2851 141.925 66.1224 141.655 66.0085 141.342C65.8945 141.03 65.8376 140.688 65.8376 140.317V140.112C65.8376 139.682 65.901 139.3 66.028 138.964C66.1549 138.626 66.3275 138.339 66.5456 138.105C66.7637 137.871 67.0111 137.693 67.2878 137.573C67.5644 137.452 67.8509 137.392 68.1471 137.392C68.5247 137.392 68.8503 137.457 69.1237 137.587C69.4004 137.718 69.6266 137.9 69.8024 138.134C69.9782 138.365 70.1084 138.639 70.193 138.955C70.2777 139.267 70.32 139.609 70.32 139.98V140.385H66.3747V139.648H69.4167V139.58C69.4036 139.345 69.3548 139.117 69.2702 138.896C69.1888 138.675 69.0586 138.492 68.8795 138.349C68.7005 138.206 68.4564 138.134 68.1471 138.134C67.942 138.134 67.7532 138.178 67.5807 138.266C67.4082 138.351 67.2601 138.478 67.1364 138.647C67.0127 138.816 66.9167 139.023 66.8483 139.267C66.7799 139.511 66.7458 139.793 66.7458 140.112V140.317C66.7458 140.568 66.7799 140.804 66.8483 141.025C66.9199 141.243 67.0225 141.435 67.1559 141.601C67.2926 141.767 67.457 141.897 67.6491 141.992C67.8444 142.086 68.0657 142.133 68.3131 142.133C68.6322 142.133 68.9023 142.068 69.1237 141.938C69.345 141.808 69.5387 141.634 69.7047 141.416L70.2516 141.85C70.1377 142.023 69.9928 142.187 69.817 142.343C69.6413 142.5 69.4248 142.626 69.1676 142.724C68.9137 142.822 68.6126 142.871 68.2643 142.871ZM71.985 137.49L73.1422 139.414L74.3141 137.49H75.3737L73.6452 140.097L75.4274 142.773H74.3825L73.1618 140.791L71.9411 142.773H70.8913L72.6686 140.097L70.945 137.49H71.985ZM78.5475 137.49V138.183H75.6911V137.49H78.5475ZM76.6579 136.206H77.5612V141.464C77.5612 141.643 77.5889 141.778 77.6442 141.87C77.6995 141.961 77.7711 142.021 77.859 142.05C77.9469 142.08 78.0413 142.094 78.1422 142.094C78.2171 142.094 78.2952 142.088 78.3766 142.075C78.4613 142.058 78.5247 142.045 78.567 142.036L78.5719 142.773C78.5003 142.796 78.4059 142.817 78.2887 142.836C78.1748 142.859 78.0364 142.871 77.8737 142.871C77.6523 142.871 77.4489 142.827 77.2633 142.739C77.0778 142.651 76.9297 142.504 76.819 142.299C76.7116 142.091 76.6579 141.811 76.6579 141.459V136.206Z" fill="#A3A3A3"/>
<path d="M105.769 135.664V142.773H104.841V135.664H105.769ZM108.054 135.664V136.435H102.561V135.664H108.054ZM110.676 142.871C110.308 142.871 109.975 142.809 109.675 142.685C109.379 142.558 109.123 142.381 108.908 142.153C108.697 141.925 108.534 141.655 108.42 141.342C108.306 141.03 108.249 140.688 108.249 140.317V140.112C108.249 139.682 108.313 139.3 108.44 138.964C108.567 138.626 108.739 138.339 108.957 138.105C109.175 137.871 109.423 137.693 109.699 137.573C109.976 137.452 110.263 137.392 110.559 137.392C110.936 137.392 111.262 137.457 111.535 137.587C111.812 137.718 112.038 137.9 112.214 138.134C112.39 138.365 112.52 138.639 112.605 138.955C112.689 139.267 112.732 139.609 112.732 139.98V140.385H108.786V139.648H111.828V139.58C111.815 139.345 111.767 139.117 111.682 138.896C111.601 138.675 111.47 138.492 111.291 138.349C111.112 138.206 110.868 138.134 110.559 138.134C110.354 138.134 110.165 138.178 109.992 138.266C109.82 138.351 109.672 138.478 109.548 138.647C109.424 138.816 109.328 139.023 109.26 139.267C109.192 139.511 109.158 139.793 109.158 140.112V140.317C109.158 140.568 109.192 140.804 109.26 141.025C109.332 141.243 109.434 141.435 109.568 141.601C109.704 141.767 109.869 141.897 110.061 141.992C110.256 142.086 110.477 142.133 110.725 142.133C111.044 142.133 111.314 142.068 111.535 141.938C111.757 141.808 111.95 141.634 112.116 141.416L112.663 141.85C112.549 142.023 112.405 142.187 112.229 142.343C112.053 142.5 111.837 142.626 111.579 142.724C111.325 142.822 111.024 142.871 110.676 142.871ZM114.397 137.49L115.554 139.414L116.726 137.49H117.785L116.057 140.097L117.839 142.773H116.794L115.574 140.791L114.353 142.773H113.303L115.08 140.097L113.357 137.49H114.397ZM120.959 137.49V138.183H118.103V137.49H120.959ZM119.07 136.206H119.973V141.464C119.973 141.643 120.001 141.778 120.056 141.87C120.111 141.961 120.183 142.021 120.271 142.05C120.359 142.08 120.453 142.094 120.554 142.094C120.629 142.094 120.707 142.088 120.788 142.075C120.873 142.058 120.936 142.045 120.979 142.036L120.984 142.773C120.912 142.796 120.818 142.817 120.7 142.836C120.587 142.859 120.448 142.871 120.285 142.871C120.064 142.871 119.861 142.827 119.675 142.739C119.49 142.651 119.341 142.504 119.231 142.299C119.123 142.091 119.07 141.811 119.07 141.459V136.206Z" fill="#A3A3A3"/>
<path d="M148.181 135.664V142.773H147.253V135.664H148.181ZM150.466 135.664V136.435H144.973V135.664H150.466ZM153.088 142.871C152.72 142.871 152.386 142.809 152.087 142.685C151.791 142.558 151.535 142.381 151.32 142.153C151.109 141.925 150.946 141.655 150.832 141.342C150.718 141.03 150.661 140.688 150.661 140.317V140.112C150.661 139.682 150.725 139.3 150.852 138.964C150.978 138.626 151.151 138.339 151.369 138.105C151.587 137.871 151.835 137.693 152.111 137.573C152.388 137.452 152.674 137.392 152.971 137.392C153.348 137.392 153.674 137.457 153.947 137.587C154.224 137.718 154.45 137.9 154.626 138.134C154.802 138.365 154.932 138.639 155.017 138.955C155.101 139.267 155.143 139.609 155.143 139.98V140.385H151.198V139.648H154.24V139.58C154.227 139.345 154.178 139.117 154.094 138.896C154.012 138.675 153.882 138.492 153.703 138.349C153.524 138.206 153.28 138.134 152.971 138.134C152.766 138.134 152.577 138.178 152.404 138.266C152.232 138.351 152.084 138.478 151.96 138.647C151.836 138.816 151.74 139.023 151.672 139.267C151.603 139.511 151.569 139.793 151.569 140.112V140.317C151.569 140.568 151.603 140.804 151.672 141.025C151.743 141.243 151.846 141.435 151.979 141.601C152.116 141.767 152.281 141.897 152.473 141.992C152.668 142.086 152.889 142.133 153.137 142.133C153.456 142.133 153.726 142.068 153.947 141.938C154.169 141.808 154.362 141.634 154.528 141.416L155.075 141.85C154.961 142.023 154.816 142.187 154.641 142.343C154.465 142.5 154.248 142.626 153.991 142.724C153.737 142.822 153.436 142.871 153.088 142.871ZM156.809 137.49L157.966 139.414L159.138 137.49H160.197L158.469 140.097L160.251 142.773H159.206L157.985 140.791L156.765 142.773H155.715L157.492 140.097L155.768 137.49H156.809ZM163.371 137.49V138.183H160.515V137.49H163.371ZM161.481 136.206H162.385V141.464C162.385 141.643 162.412 141.778 162.468 141.87C162.523 141.961 162.595 142.021 162.683 142.05C162.77 142.08 162.865 142.094 162.966 142.094C163.041 142.094 163.119 142.088 163.2 142.075C163.285 142.058 163.348 142.045 163.391 142.036L163.395 142.773C163.324 142.796 163.229 142.817 163.112 142.836C162.998 142.859 162.86 142.871 162.697 142.871C162.476 142.871 162.272 142.827 162.087 142.739C161.901 142.651 161.753 142.504 161.643 142.299C161.535 142.091 161.481 141.811 161.481 141.459V136.206Z" fill="#A3A3A3"/>
<path d="M190.592 135.664V142.773H189.665V135.664H190.592ZM192.878 135.664V136.435H187.384V135.664H192.878ZM195.5 142.871C195.132 142.871 194.798 142.809 194.499 142.685C194.202 142.558 193.947 142.381 193.732 142.153C193.52 141.925 193.358 141.655 193.244 141.342C193.13 141.03 193.073 140.688 193.073 140.317V140.112C193.073 139.682 193.136 139.3 193.263 138.964C193.39 138.626 193.563 138.339 193.781 138.105C193.999 137.871 194.246 137.693 194.523 137.573C194.8 137.452 195.086 137.392 195.382 137.392C195.76 137.392 196.086 137.457 196.359 137.587C196.636 137.718 196.862 137.9 197.038 138.134C197.213 138.365 197.344 138.639 197.428 138.955C197.513 139.267 197.555 139.609 197.555 139.98V140.385H193.61V139.648H196.652V139.58C196.639 139.345 196.59 139.117 196.505 138.896C196.424 138.675 196.294 138.492 196.115 138.349C195.936 138.206 195.692 138.134 195.382 138.134C195.177 138.134 194.989 138.178 194.816 138.266C194.643 138.351 194.495 138.478 194.372 138.647C194.248 138.816 194.152 139.023 194.084 139.267C194.015 139.511 193.981 139.793 193.981 140.112V140.317C193.981 140.568 194.015 140.804 194.084 141.025C194.155 141.243 194.258 141.435 194.391 141.601C194.528 141.767 194.692 141.897 194.884 141.992C195.08 142.086 195.301 142.133 195.548 142.133C195.867 142.133 196.138 142.068 196.359 141.938C196.58 141.808 196.774 141.634 196.94 141.416L197.487 141.85C197.373 142.023 197.228 142.187 197.052 142.343C196.877 142.5 196.66 142.626 196.403 142.724C196.149 142.822 195.848 142.871 195.5 142.871ZM199.22 137.49L200.378 139.414L201.549 137.49H202.609L200.88 140.097L202.663 142.773H201.618L200.397 140.791L199.176 142.773H198.127L199.904 140.097L198.18 137.49H199.22ZM205.783 137.49V138.183H202.926V137.49H205.783ZM203.893 136.206H204.796V141.464C204.796 141.643 204.824 141.778 204.879 141.87C204.935 141.961 205.006 142.021 205.094 142.05C205.182 142.08 205.277 142.094 205.378 142.094C205.452 142.094 205.531 142.088 205.612 142.075C205.697 142.058 205.76 142.045 205.802 142.036L205.807 142.773C205.736 142.796 205.641 142.817 205.524 142.836C205.41 142.859 205.272 142.871 205.109 142.871C204.888 142.871 204.684 142.827 204.499 142.739C204.313 142.651 204.165 142.504 204.054 142.299C203.947 142.091 203.893 141.811 203.893 141.459V136.206Z" fill="#A3A3A3"/>
<path d="M16.4287 124.652V125.736C16.4287 126.319 16.3766 126.81 16.2725 127.21C16.1683 127.611 16.0186 127.933 15.8232 128.177C15.6279 128.421 15.3919 128.599 15.1152 128.709C14.8418 128.817 14.5326 128.871 14.1875 128.871C13.9141 128.871 13.6618 128.836 13.4307 128.768C13.1995 128.7 12.9912 128.591 12.8057 128.441C12.6234 128.288 12.4671 128.089 12.3369 127.845C12.2067 127.601 12.1074 127.305 12.0391 126.957C11.9707 126.608 11.9365 126.201 11.9365 125.736V124.652C11.9365 124.069 11.9886 123.581 12.0928 123.187C12.2002 122.793 12.3516 122.477 12.5469 122.24C12.7422 121.999 12.9766 121.826 13.25 121.722C13.5267 121.618 13.8359 121.566 14.1777 121.566C14.4544 121.566 14.7083 121.6 14.9395 121.668C15.1738 121.734 15.3822 121.839 15.5645 121.986C15.7467 122.129 15.9014 122.321 16.0283 122.562C16.1585 122.8 16.2578 123.091 16.3262 123.436C16.3945 123.781 16.4287 124.186 16.4287 124.652ZM15.5205 125.882V124.5C15.5205 124.181 15.501 123.902 15.4619 123.661C15.4261 123.417 15.3724 123.208 15.3008 123.036C15.2292 122.863 15.138 122.723 15.0273 122.616C14.9199 122.508 14.7946 122.43 14.6514 122.381C14.5114 122.329 14.3535 122.303 14.1777 122.303C13.9629 122.303 13.7725 122.344 13.6064 122.425C13.4404 122.503 13.3005 122.629 13.1865 122.801C13.0758 122.974 12.9912 123.2 12.9326 123.48C12.874 123.76 12.8447 124.1 12.8447 124.5V125.882C12.8447 126.201 12.8626 126.483 12.8984 126.727C12.9375 126.971 12.9945 127.183 13.0693 127.362C13.1442 127.538 13.2354 127.682 13.3428 127.796C13.4502 127.91 13.5739 127.995 13.7139 128.05C13.8571 128.102 14.015 128.128 14.1875 128.128C14.4089 128.128 14.6025 128.086 14.7686 128.001C14.9346 127.917 15.0729 127.785 15.1836 127.606C15.2975 127.424 15.3822 127.191 15.4375 126.908C15.4928 126.621 15.5205 126.279 15.5205 125.882Z" fill="#A3A3A3"/>
<path d="M7.4834 66.3892L6.76074 66.2036L7.11719 62.6636H10.7646V63.4985H7.88379L7.66895 65.4321C7.79915 65.3573 7.96354 65.2873 8.16211 65.2222C8.36393 65.1571 8.59505 65.1245 8.85547 65.1245C9.18424 65.1245 9.47884 65.1815 9.73926 65.2954C9.99967 65.4061 10.221 65.5656 10.4033 65.7739C10.5889 65.9823 10.7305 66.2329 10.8281 66.5259C10.9258 66.8188 10.9746 67.146 10.9746 67.5073C10.9746 67.8491 10.9274 68.1632 10.833 68.4497C10.7419 68.7362 10.6035 68.9868 10.418 69.2017C10.2324 69.4132 9.99805 69.5776 9.71484 69.6948C9.4349 69.812 9.10449 69.8706 8.72363 69.8706C8.43717 69.8706 8.16536 69.8315 7.9082 69.7534C7.6543 69.672 7.42643 69.55 7.22461 69.3872C7.02604 69.2212 6.86328 69.0161 6.73633 68.772C6.61263 68.5246 6.53451 68.2349 6.50195 67.9028H7.36133C7.40039 68.1698 7.47852 68.3944 7.5957 68.5767C7.71289 68.759 7.86589 68.8973 8.05469 68.9917C8.24674 69.0828 8.46973 69.1284 8.72363 69.1284C8.93848 69.1284 9.12891 69.091 9.29492 69.0161C9.46094 68.9412 9.60091 68.8338 9.71484 68.6938C9.82878 68.5539 9.91504 68.3846 9.97363 68.186C10.0355 67.9875 10.0664 67.7645 10.0664 67.5171C10.0664 67.2925 10.0355 67.0841 9.97363 66.8921C9.91178 66.7 9.81901 66.5324 9.69531 66.3892C9.57487 66.2459 9.42676 66.1353 9.25098 66.0571C9.0752 65.9757 8.87337 65.9351 8.64551 65.9351C8.34277 65.9351 8.11328 65.9757 7.95703 66.0571C7.80404 66.1385 7.64616 66.2492 7.4834 66.3892ZM16.4287 65.6519V66.7358C16.4287 67.3185 16.3766 67.8101 16.2725 68.2104C16.1683 68.6108 16.0186 68.9331 15.8232 69.1772C15.6279 69.4214 15.3919 69.5988 15.1152 69.7095C14.8418 69.8169 14.5326 69.8706 14.1875 69.8706C13.9141 69.8706 13.6618 69.8364 13.4307 69.7681C13.1995 69.6997 12.9912 69.5907 12.8057 69.4409C12.6234 69.2879 12.4671 69.0894 12.3369 68.8452C12.2067 68.6011 12.1074 68.3049 12.0391 67.9565C11.9707 67.6082 11.9365 67.2013 11.9365 66.7358V65.6519C11.9365 65.0692 11.9886 64.5809 12.0928 64.187C12.2002 63.7931 12.3516 63.4774 12.5469 63.2397C12.7422 62.9989 12.9766 62.8263 13.25 62.7222C13.5267 62.618 13.8359 62.5659 14.1777 62.5659C14.4544 62.5659 14.7083 62.6001 14.9395 62.6685C15.1738 62.7336 15.3822 62.8394 15.5645 62.9858C15.7467 63.1291 15.9014 63.3211 16.0283 63.562C16.1585 63.7996 16.2578 64.091 16.3262 64.436C16.3945 64.7811 16.4287 65.1864 16.4287 65.6519ZM15.5205 66.8823V65.5005C15.5205 65.1815 15.501 64.9015 15.4619 64.6606C15.4261 64.4165 15.3724 64.2082 15.3008 64.0356C15.2292 63.8631 15.138 63.7231 15.0273 63.6157C14.9199 63.5083 14.7946 63.4302 14.6514 63.3813C14.5114 63.3293 14.3535 63.3032 14.1777 63.3032C13.9629 63.3032 13.7725 63.3439 13.6064 63.4253C13.4404 63.5034 13.3005 63.6287 13.1865 63.8013C13.0758 63.9738 12.9912 64.2 12.9326 64.48C12.874 64.7599 12.8447 65.1001 12.8447 65.5005V66.8823C12.8447 67.2013 12.8626 67.4829 12.8984 67.7271C12.9375 67.9712 12.9945 68.1828 13.0693 68.3618C13.1442 68.5376 13.2354 68.6825 13.3428 68.7964C13.4502 68.9103 13.5739 68.995 13.7139 69.0503C13.8571 69.1024 14.015 69.1284 14.1875 69.1284C14.4089 69.1284 14.6025 69.0861 14.7686 69.0015C14.9346 68.9168 15.0729 68.785 15.1836 68.606C15.2975 68.4237 15.3822 68.1909 15.4375 67.9077C15.4928 67.6213 15.5205 67.2795 15.5205 66.8823Z" fill="#A3A3A3"/>
<path d="M3.68457 2.62451V9.77295H2.78125V3.75244L0.959961 4.4165V3.60107L3.54297 2.62451H3.68457ZM10.8037 5.65186V6.73584C10.8037 7.31852 10.7516 7.81006 10.6475 8.21045C10.5433 8.61084 10.3936 8.93311 10.1982 9.17725C10.0029 9.42139 9.76693 9.5988 9.49023 9.70947C9.2168 9.81689 8.90755 9.87061 8.5625 9.87061C8.28906 9.87061 8.03678 9.83643 7.80566 9.76807C7.57454 9.69971 7.36621 9.59066 7.18066 9.44092C6.99837 9.28792 6.84212 9.08936 6.71191 8.84521C6.58171 8.60107 6.48242 8.30485 6.41406 7.95654C6.3457 7.60824 6.31152 7.20133 6.31152 6.73584V5.65186C6.31152 5.06917 6.36361 4.58089 6.46777 4.18701C6.5752 3.79313 6.72656 3.47738 6.92188 3.23975C7.11719 2.99886 7.35156 2.82633 7.625 2.72217C7.90169 2.618 8.21094 2.56592 8.55273 2.56592C8.82943 2.56592 9.08333 2.6001 9.31445 2.66846C9.54883 2.73356 9.75716 2.83936 9.93945 2.98584C10.1217 3.12907 10.2764 3.32113 10.4033 3.56201C10.5335 3.79964 10.6328 4.09098 10.7012 4.43604C10.7695 4.78109 10.8037 5.18636 10.8037 5.65186ZM9.89551 6.88232V5.50049C9.89551 5.18148 9.87598 4.90153 9.83691 4.66064C9.80111 4.4165 9.7474 4.20817 9.67578 4.03564C9.60417 3.86312 9.51302 3.72314 9.40234 3.61572C9.29492 3.5083 9.1696 3.43018 9.02637 3.38135C8.88639 3.32926 8.72852 3.30322 8.55273 3.30322C8.33789 3.30322 8.14746 3.34391 7.98145 3.42529C7.81543 3.50342 7.67546 3.62874 7.56152 3.80127C7.45085 3.9738 7.36621 4.20003 7.30762 4.47998C7.24902 4.75993 7.21973 5.1001 7.21973 5.50049V6.88232C7.21973 7.20133 7.23763 7.48291 7.27344 7.72705C7.3125 7.97119 7.36947 8.18278 7.44434 8.36182C7.51921 8.5376 7.61035 8.68245 7.71777 8.79639C7.8252 8.91032 7.94889 8.99495 8.08887 9.05029C8.2321 9.10238 8.38997 9.12842 8.5625 9.12842C8.78385 9.12842 8.97754 9.0861 9.14355 9.00146C9.30957 8.91683 9.44792 8.78499 9.55859 8.60596C9.67253 8.42367 9.75716 8.19092 9.8125 7.90771C9.86784 7.62126 9.89551 7.27946 9.89551 6.88232ZM16.4287 5.65186V6.73584C16.4287 7.31852 16.3766 7.81006 16.2725 8.21045C16.1683 8.61084 16.0186 8.93311 15.8232 9.17725C15.6279 9.42139 15.3919 9.5988 15.1152 9.70947C14.8418 9.81689 14.5326 9.87061 14.1875 9.87061C13.9141 9.87061 13.6618 9.83643 13.4307 9.76807C13.1995 9.69971 12.9912 9.59066 12.8057 9.44092C12.6234 9.28792 12.4671 9.08936 12.3369 8.84521C12.2067 8.60107 12.1074 8.30485 12.0391 7.95654C11.9707 7.60824 11.9365 7.20133 11.9365 6.73584V5.65186C11.9365 5.06917 11.9886 4.58089 12.0928 4.18701C12.2002 3.79313 12.3516 3.47738 12.5469 3.23975C12.7422 2.99886 12.9766 2.82633 13.25 2.72217C13.5267 2.618 13.8359 2.56592 14.1777 2.56592C14.4544 2.56592 14.7083 2.6001 14.9395 2.66846C15.1738 2.73356 15.3822 2.83936 15.5645 2.98584C15.7467 3.12907 15.9014 3.32113 16.0283 3.56201C16.1585 3.79964 16.2578 4.09098 16.3262 4.43604C16.3945 4.78109 16.4287 5.18636 16.4287 5.65186ZM15.5205 6.88232V5.50049C15.5205 5.18148 15.501 4.90153 15.4619 4.66064C15.4261 4.4165 15.3724 4.20817 15.3008 4.03564C15.2292 3.86312 15.138 3.72314 15.0273 3.61572C14.9199 3.5083 14.7946 3.43018 14.6514 3.38135C14.5114 3.32926 14.3535 3.30322 14.1777 3.30322C13.9629 3.30322 13.7725 3.34391 13.6064 3.42529C13.4404 3.50342 13.3005 3.62874 13.1865 3.80127C13.0758 3.9738 12.9912 4.20003 12.9326 4.47998C12.874 4.75993 12.8447 5.1001 12.8447 5.50049V6.88232C12.8447 7.20133 12.8626 7.48291 12.8984 7.72705C12.9375 7.97119 12.9945 8.18278 13.0693 8.36182C13.1442 8.5376 13.2354 8.68245 13.3428 8.79639C13.4502 8.91032 13.5739 8.99495 13.7139 9.05029C13.8571 9.10238 14.015 9.12842 14.1875 9.12842C14.4089 9.12842 14.6025 9.0861 14.7686 9.00146C14.9346 8.91683 15.0729 8.78499 15.1836 8.60596C15.2975 8.42367 15.3822 8.19092 15.4375 7.90771C15.4928 7.62126 15.5205 7.27946 15.5205 6.88232Z" fill="#A3A3A3"/>
<path d="M27 123.393C27 123.393 30.6353 122.203 33.0588 121.013C35.4824 119.823 36.6941 119.109 39.1176 117.443C41.5412 115.777 42.7529 113.873 45.1765 112.683C47.6 111.493 48.8118 112.207 51.2353 111.493C53.6588 110.779 54.8706 110.303 57.2941 109.113C59.7176 107.923 60.9294 106.971 63.3529 105.543C65.7765 104.115 66.9882 103.163 69.4118 101.973C71.8353 100.783 73.0471 100.545 75.4706 99.5929C77.8941 98.6409 79.1059 98.165 81.5294 97.213C83.9529 96.261 85.1647 95.7849 87.5882 94.8329C90.0118 93.8809 91.2235 93.6429 93.6471 92.4529C96.0706 91.2629 97.2823 89.8349 99.7059 88.8829C102.129 87.9309 103.341 88.4069 105.765 87.6929C108.188 86.9789 109.4 86.265 111.824 85.313C114.247 84.361 115.459 84.123 117.882 82.933C120.306 81.743 121.518 80.5529 123.941 79.3629C126.365 78.1729 127.576 77.9349 130 76.9829C132.424 76.0309 133.635 75.793 136.059 74.603C138.482 73.413 139.694 72.461 142.118 71.033C144.541 69.605 145.753 68.8909 148.176 67.4629C150.6 66.0349 151.812 65.0829 154.235 63.8929C156.659 62.7029 157.871 62.7029 160.294 61.5129C162.718 60.3229 163.929 59.6089 166.353 57.9429C168.776 56.2769 169.988 54.6109 172.412 53.1829C174.835 51.7549 176.047 51.7549 178.471 50.8029C180.894 49.8509 182.106 49.3749 184.529 48.4229C186.953 47.4709 188.165 47.2329 190.588 46.0429C193.012 44.8529 194.224 43.9009 196.647 42.4729C199.071 41.0449 200.282 40.0929 202.706 38.9029C205.129 37.7129 206.341 37.9509 208.765 36.5229C211.188 35.0949 212.4 32.9529 214.824 31.7629C217.247 30.5729 218.459 31.5249 220.882 30.5729C223.306 29.6209 224.518 28.1929 226.941 27.0029C229.365 25.8129 233 24.6229 233 24.6229" stroke="#A6CEE3" stroke-width="2"/>
<path d="M27 127.773C25.9393 127.773 24.922 127.352 24.1719 126.602C23.4218 125.852 23.0003 124.835 23 123.774C22.9997 122.713 23.4208 121.696 24.1705 120.946C24.9203 120.195 25.9373 119.773 26.998 119.773C28.0587 119.772 29.0762 120.193 29.8267 120.943C30.5772 121.692 30.9992 122.709 31 123.77C31.0008 124.831 30.5803 125.848 29.8309 126.599C29.0815 127.35 28.0647 127.772 27.004 127.773H27Z" fill="#A6CEE3"/>
<path d="M33 124.773C31.9393 124.773 30.922 124.352 30.1719 123.602C29.4218 122.852 29.0003 121.835 29 120.774C28.9997 119.713 29.4208 118.696 30.1705 117.946C30.9203 117.195 31.9373 116.773 32.998 116.773C34.0587 116.772 35.0762 117.193 35.8267 117.943C36.5772 118.692 36.9992 119.709 37 120.77C37.0008 121.831 36.5803 122.848 35.8309 123.599C35.0815 124.35 34.0647 124.772 33.004 124.773H33Z" fill="#A6CEE3"/>
<path d="M39 121.773C37.9393 121.773 36.922 121.352 36.1719 120.602C35.4218 119.852 35.0003 118.835 35 117.774C34.9997 116.713 35.4208 115.696 36.1705 114.946C36.9203 114.195 37.9373 113.773 38.998 113.773C40.0587 113.772 41.0762 114.193 41.8267 114.943C42.5772 115.692 42.9992 116.709 43 117.77C43.0008 118.831 42.5803 119.848 41.8309 120.599C41.0815 121.35 40.0647 121.772 39.004 121.773H39Z" fill="#A6CEE3"/>
<path d="M45 116.773C43.9393 116.773 42.922 116.352 42.1719 115.602C41.4218 114.852 41.0003 113.835 41 112.774C40.9997 111.713 41.4208 110.696 42.1705 109.946C42.9203 109.195 43.9373 108.773 44.998 108.773C46.0587 108.772 47.0762 109.193 47.8267 109.943C48.5771 110.692 48.9992 111.709 49 112.77C49.0008 113.831 48.5803 114.848 47.8309 115.599C47.0815 116.35 46.0647 116.772 45.004 116.773H45Z" fill="#A6CEE3"/>
<path d="M51 115.773C49.9393 115.773 48.922 115.352 48.1719 114.602C47.4218 113.852 47.0003 112.835 47 111.774C46.9997 110.713 47.4208 109.696 48.1705 108.946C48.9203 108.195 49.9373 107.773 50.998 107.773C52.0587 107.772 53.0762 108.193 53.8267 108.943C54.5771 109.692 54.9992 110.709 55 111.77C55.0008 112.831 54.5803 113.848 53.8309 114.599C53.0815 115.35 52.0647 115.772 51.004 115.773H51Z" fill="#A6CEE3"/>
<path d="M57 112.773C55.9393 112.773 54.922 112.352 54.1719 111.602C53.4218 110.852 53.0003 109.835 53 108.774C52.9997 107.713 53.4208 106.696 54.1705 105.946C54.9203 105.195 55.9373 104.773 56.998 104.773C58.0587 104.772 59.0762 105.193 59.8267 105.943C60.5772 106.692 60.9992 107.709 61 108.77C61.0008 109.831 60.5803 110.848 59.8309 111.599C59.0815 112.35 58.0647 112.772 57.004 112.773H57Z" fill="#A6CEE3"/>
<path d="M63 109.773C61.9393 109.773 60.922 109.352 60.1719 108.602C59.4218 107.852 59.0003 106.835 59 105.774C58.9997 104.713 59.4208 103.696 60.1705 102.946C60.9203 102.195 61.9373 101.773 62.998 101.773C64.0587 101.772 65.0762 102.193 65.8267 102.943C66.5772 103.692 66.9992 104.709 67 105.77C67.0008 106.831 66.5803 107.848 65.8309 108.599C65.0815 109.35 64.0647 109.772 63.004 109.773H63Z" fill="#A6CEE3"/>
<path d="M69 105.773C67.9393 105.773 66.922 105.352 66.1719 104.602C65.4218 103.852 65.0003 102.835 65 101.774C64.9997 100.713 65.4208 99.6959 66.1705 98.9456C66.9203 98.1953 67.9373 97.7735 68.998 97.7729C70.0587 97.7724 71.0762 98.1932 71.8267 98.9428C72.5772 99.6923 72.9992 100.709 73 101.77C73.0008 102.831 72.5803 103.848 71.8309 104.599C71.0815 105.35 70.0647 105.772 69.004 105.773H69Z" fill="#A6CEE3"/>
<path d="M75 103.773C73.9393 103.773 72.922 103.352 72.1719 102.602C71.4218 101.852 71.0003 100.835 71 99.7739C70.9997 98.7133 71.4208 97.6959 72.1705 96.9456C72.9203 96.1953 73.9373 95.7735 74.998 95.7729C76.0587 95.7724 77.0762 96.1932 77.8267 96.9428C78.5772 97.6923 78.9992 98.7093 79 99.77C79.0008 100.831 78.5803 101.848 77.8309 102.599C77.0815 103.35 76.0647 103.772 75.004 103.773H75Z" fill="#A6CEE3"/>
<path d="M81 100.773C79.9393 100.773 78.922 100.352 78.1719 99.6017C77.4218 98.8518 77.0003 97.8346 77 96.7739C76.9997 95.7133 77.4208 94.6959 78.1705 93.9456C78.9203 93.1953 79.9373 92.7735 80.998 92.7729C82.0587 92.7724 83.0762 93.1932 83.8267 93.9428C84.5772 94.6923 84.9992 95.7093 85 96.77C85.0008 97.8306 84.5803 98.8482 83.8309 99.5989C83.0815 100.35 82.0647 100.772 81.004 100.773H81Z" fill="#A6CEE3"/>
<path d="M87 98.773C85.9393 98.773 84.922 98.3517 84.1719 97.6017C83.4218 96.8518 83.0003 95.8346 83 94.7739C82.9997 93.7133 83.4208 92.6959 84.1705 91.9456C84.9203 91.1953 85.9373 90.7735 86.998 90.7729C88.0587 90.7724 89.0762 91.1932 89.8267 91.9428C90.5772 92.6923 90.9992 93.7093 91 94.77C91.0008 95.8306 90.5803 96.8482 89.8309 97.5989C89.0815 98.3496 88.0647 98.7719 87.004 98.773H87Z" fill="#A6CEE3"/>
<path d="M93 96.773C91.9393 96.773 90.922 96.3517 90.1719 95.6017C89.4218 94.8518 89.0003 93.8346 89 92.7739C88.9997 91.7133 89.4208 90.6959 90.1705 89.9456C90.9203 89.1953 91.9373 88.7735 92.998 88.7729C94.0587 88.7724 95.0762 89.1932 95.8267 89.9428C96.5772 90.6923 96.9992 91.7093 97 92.77C97.0008 93.8306 96.5803 94.8482 95.8309 95.5989C95.0815 96.3496 94.0647 96.7719 93.004 96.773H93Z" fill="#A6CEE3"/>
<path d="M99 92.773C97.9393 92.773 96.922 92.3517 96.1719 91.6017C95.4218 90.8518 95.0003 89.8346 95 88.7739C94.9997 87.7133 95.4208 86.6959 96.1705 85.9456C96.9203 85.1953 97.9373 84.7735 98.998 84.7729C100.059 84.7724 101.076 85.1932 101.827 85.9428C102.577 86.6923 102.999 87.7093 103 88.77C103.001 89.8306 102.58 90.8482 101.831 91.5989C101.082 92.3496 100.065 92.7719 99.004 92.773H99Z" fill="#A6CEE3"/>
<path d="M105 91.773C103.939 91.773 102.922 91.3517 102.172 90.6017C101.422 89.8518 101 88.8346 101 87.7739C101 86.7133 101.421 85.6959 102.171 84.9456C102.92 84.1953 103.937 83.7735 104.998 83.7729C106.059 83.7724 107.076 84.1932 107.827 84.9428C108.577 85.6923 108.999 86.7093 109 87.77C109.001 88.8306 108.58 89.8482 107.831 90.5989C107.082 91.3496 106.065 91.7719 105.004 91.773H105Z" fill="#A6CEE3"/>
<path d="M111 89.773C109.939 89.773 108.922 89.3517 108.172 88.6017C107.422 87.8518 107 86.8346 107 85.7739C107 84.7133 107.421 83.6959 108.171 82.9456C108.92 82.1953 109.937 81.7735 110.998 81.7729C112.059 81.7724 113.076 82.1932 113.827 82.9428C114.577 83.6923 114.999 84.7093 115 85.77C115.001 86.8306 114.58 87.8482 113.831 88.5989C113.082 89.3496 112.065 89.7719 111.004 89.773H111Z" fill="#A6CEE3"/>
<path d="M117 86.773C115.939 86.773 114.922 86.3517 114.172 85.6017C113.422 84.8518 113 83.8346 113 82.7739C113 81.7133 113.421 80.6959 114.171 79.9456C114.92 79.1953 115.937 78.7735 116.998 78.7729C118.059 78.7724 119.076 79.1932 119.827 79.9428C120.577 80.6923 120.999 81.7093 121 82.77C121.001 83.8306 120.58 84.8482 119.831 85.5989C119.082 86.3496 118.065 86.7719 117.004 86.773H117Z" fill="#A6CEE3"/>
<path d="M123 83.773C121.939 83.773 120.922 83.3517 120.172 82.6017C119.422 81.8518 119 80.8346 119 79.7739C119 78.7133 119.421 77.6959 120.171 76.9456C120.92 76.1953 121.937 75.7735 122.998 75.7729C124.059 75.7724 125.076 76.1932 125.827 76.9428C126.577 77.6923 126.999 78.7093 127 79.77C127.001 80.8306 126.58 81.8482 125.831 82.5989C125.082 83.3496 124.065 83.7719 123.004 83.773H123Z" fill="#A6CEE3"/>
<path d="M130 80.773C128.939 80.773 127.922 80.3517 127.172 79.6017C126.422 78.8518 126 77.8346 126 76.7739C126 75.7133 126.421 74.6959 127.171 73.9456C127.92 73.1953 128.937 72.7735 129.998 72.7729C131.059 72.7724 132.076 73.1932 132.827 73.9428C133.577 74.6923 133.999 75.7093 134 76.77C134.001 77.8306 133.58 78.8482 132.831 79.5989C132.082 80.3496 131.065 80.7719 130.004 80.773H130Z" fill="#A6CEE3"/>
<path d="M136 78.773C134.939 78.773 133.922 78.3517 133.172 77.6017C132.422 76.8518 132 75.8346 132 74.7739C132 73.7133 132.421 72.6959 133.171 71.9456C133.92 71.1953 134.937 70.7735 135.998 70.7729C137.059 70.7724 138.076 71.1932 138.827 71.9428C139.577 72.6923 139.999 73.7093 140 74.77C140.001 75.8306 139.58 76.8482 138.831 77.5989C138.082 78.3496 137.065 78.7719 136.004 78.773H136Z" fill="#A6CEE3"/>
<path d="M142 74.773C140.939 74.773 139.922 74.3517 139.172 73.6017C138.422 72.8518 138 71.8346 138 70.7739C138 69.7133 138.421 68.6959 139.171 67.9456C139.92 67.1953 140.937 66.7735 141.998 66.7729C143.059 66.7724 144.076 67.1932 144.827 67.9428C145.577 68.6923 145.999 69.7093 146 70.77C146.001 71.8306 145.58 72.8482 144.831 73.5989C144.082 74.3496 143.065 74.7719 142.004 74.773H142Z" fill="#A6CEE3"/>
<path d="M148 71.773C146.939 71.773 145.922 71.3517 145.172 70.6017C144.422 69.8518 144 68.8346 144 67.7739C144 66.7133 144.421 65.6959 145.171 64.9456C145.92 64.1953 146.937 63.7735 147.998 63.7729C149.059 63.7724 150.076 64.1932 150.827 64.9428C151.577 65.6923 151.999 66.7093 152 67.77C152.001 68.8306 151.58 69.8482 150.831 70.5989C150.082 71.3496 149.065 71.7719 148.004 71.773H148Z" fill="#A6CEE3"/>
<path d="M154 67.773C152.939 67.773 151.922 67.3517 151.172 66.6017C150.422 65.8518 150 64.8346 150 63.7739C150 62.7133 150.421 61.6959 151.171 60.9456C151.92 60.1953 152.937 59.7735 153.998 59.7729C155.059 59.7724 156.076 60.1932 156.827 60.9428C157.577 61.6923 157.999 62.7093 158 63.77C158.001 64.8306 157.58 65.8482 156.831 66.5989C156.082 67.3496 155.065 67.7719 154.004 67.7729L154 67.773Z" fill="#A6CEE3"/>
<path d="M160 65.773C158.939 65.773 157.922 65.3517 157.172 64.6017C156.422 63.8518 156 62.8346 156 61.7739C156 60.7133 156.421 59.6959 157.171 58.9456C157.92 58.1953 158.937 57.7735 159.998 57.7729C161.059 57.7724 162.076 58.1932 162.827 58.9428C163.577 59.6923 163.999 60.7093 164 61.77C164.001 62.8306 163.58 63.8482 162.831 64.5989C162.082 65.3496 161.065 65.7719 160.004 65.7729L160 65.773Z" fill="#A6CEE3"/>
<path d="M166 61.773C164.939 61.773 163.922 61.3517 163.172 60.6017C162.422 59.8518 162 58.8346 162 57.7739C162 56.7133 162.421 55.6959 163.171 54.9456C163.92 54.1953 164.937 53.7735 165.998 53.7729C167.059 53.7724 168.076 54.1932 168.827 54.9428C169.577 55.6923 169.999 56.7093 170 57.77C170.001 58.8306 169.58 59.8482 168.831 60.5989C168.082 61.3496 167.065 61.7719 166.004 61.7729L166 61.773Z" fill="#A6CEE3"/>
<path d="M172 56.773C170.939 56.773 169.922 56.3517 169.172 55.6017C168.422 54.8518 168 53.8346 168 52.7739C168 51.7133 168.421 50.6959 169.171 49.9456C169.92 49.1953 170.937 48.7735 171.998 48.7729C173.059 48.7724 174.076 49.1932 174.827 49.9428C175.577 50.6923 175.999 51.7093 176 52.77C176.001 53.8306 175.58 54.8482 174.831 55.5989C174.082 56.3496 173.065 56.7719 172.004 56.7729L172 56.773Z" fill="#A6CEE3"/>
<path d="M178 54.773C176.939 54.773 175.922 54.3517 175.172 53.6017C174.422 52.8518 174 51.8346 174 50.7739C174 49.7133 174.421 48.6959 175.171 47.9456C175.92 47.1953 176.937 46.7735 177.998 46.7729C179.059 46.7724 180.076 47.1932 180.827 47.9428C181.577 48.6923 181.999 49.7093 182 50.77C182.001 51.8306 181.58 52.8482 180.831 53.5989C180.082 54.3496 179.065 54.7719 178.004 54.7729L178 54.773Z" fill="#A6CEE3"/>
<path d="M184 52.773C182.939 52.773 181.922 52.3517 181.172 51.6017C180.422 50.8518 180 49.8346 180 48.7739C180 47.7133 180.421 46.6959 181.171 45.9456C181.92 45.1953 182.937 44.7735 183.998 44.7729C185.059 44.7724 186.076 45.1932 186.827 45.9428C187.577 46.6923 187.999 47.7093 188 48.77C188.001 49.8306 187.58 50.8482 186.831 51.5989C186.082 52.3496 185.065 52.7719 184.004 52.7729L184 52.773Z" fill="#A6CEE3"/>
<path d="M190 49.773C188.939 49.773 187.922 49.3517 187.172 48.6017C186.422 47.8518 186 46.8346 186 45.7739C186 44.7133 186.421 43.6959 187.171 42.9456C187.92 42.1953 188.937 41.7735 189.998 41.7729C191.059 41.7724 192.076 42.1932 192.827 42.9428C193.577 43.6923 193.999 44.7093 194 45.77C194.001 46.8306 193.58 47.8482 192.831 48.5989C192.082 49.3496 191.065 49.7719 190.004 49.7729L190 49.773Z" fill="#A6CEE3"/>
<path d="M196 46.773C194.939 46.773 193.922 46.3517 193.172 45.6017C192.422 44.8518 192 43.8346 192 42.7739C192 41.7133 192.421 40.6959 193.171 39.9456C193.92 39.1953 194.937 38.7735 195.998 38.7729C197.059 38.7724 198.076 39.1932 198.827 39.9428C199.577 40.6923 199.999 41.7093 200 42.77C200.001 43.8306 199.58 44.8482 198.831 45.5989C198.082 46.3496 197.065 46.7719 196.004 46.7729L196 46.773Z" fill="#A6CEE3"/>
<path d="M202 42.773C200.939 42.773 199.922 42.3517 199.172 41.6017C198.422 40.8518 198 39.8346 198 38.7739C198 37.7133 198.421 36.6959 199.171 35.9456C199.92 35.1953 200.937 34.7735 201.998 34.7729C203.059 34.7724 204.076 35.1932 204.827 35.9428C205.577 36.6923 205.999 37.7093 206 38.7699C206.001 39.8306 205.58 40.8482 204.831 41.5989C204.082 42.3496 203.065 42.7719 202.004 42.7729L202 42.773Z" fill="#A6CEE3"/>
<path d="M208 40.773C206.939 40.773 205.922 40.3517 205.172 39.6017C204.422 38.8518 204 37.8346 204 36.7739C204 35.7133 204.421 34.6959 205.171 33.9456C205.92 33.1953 206.937 32.7735 207.998 32.7729C209.059 32.7724 210.076 33.1932 210.827 33.9428C211.577 34.6923 211.999 35.7093 212 36.7699C212.001 37.8306 211.58 38.8482 210.831 39.5989C210.082 40.3496 209.065 40.7719 208.004 40.7729L208 40.773Z" fill="#A6CEE3"/>
<path d="M214 35.773C212.939 35.773 211.922 35.3517 211.172 34.6017C210.422 33.8518 210 32.8346 210 31.7739C210 30.7133 210.421 29.6959 211.171 28.9456C211.92 28.1953 212.937 27.7735 213.998 27.7729C215.059 27.7724 216.076 28.1932 216.827 28.9428C217.577 29.6923 217.999 30.7093 218 31.7699C218.001 32.8306 217.58 33.8482 216.831 34.5989C216.082 35.3496 215.065 35.7719 214.004 35.7729L214 35.773Z" fill="#A6CEE3"/>
<path d="M220 34.773C218.939 34.773 217.922 34.3517 217.172 33.6017C216.422 32.8518 216 31.8346 216 30.7739C216 29.7133 216.421 28.6959 217.171 27.9456C217.92 27.1953 218.937 26.7735 219.998 26.7729C221.059 26.7724 222.076 27.1932 222.827 27.9428C223.577 28.6923 223.999 29.7093 224 30.7699C224.001 31.8306 223.58 32.8482 222.831 33.5989C222.082 34.3496 221.065 34.7719 220.004 34.7729L220 34.773Z" fill="#A6CEE3"/>
<path d="M226 30.773C224.939 30.773 223.922 30.3517 223.172 29.6017C222.422 28.8518 222 27.8346 222 26.7739C222 25.7133 222.421 24.6959 223.171 23.9456C223.92 23.1953 224.937 22.7735 225.998 22.7729C227.059 22.7724 228.076 23.1932 228.827 23.9428C229.577 24.6923 229.999 25.7093 230 26.7699C230.001 27.8306 229.58 28.8482 228.831 29.5989C228.082 30.3496 227.065 30.7719 226.004 30.7729L226 30.773Z" fill="#A6CEE3"/>
<path d="M233 28.7729C231.939 28.7729 230.922 28.3517 230.172 27.6017C229.422 26.8518 229 25.8346 229 24.7739C229 23.7133 229.421 22.6959 230.171 21.9456C230.92 21.1953 231.937 20.7735 232.998 20.7729C234.059 20.7724 235.076 21.1932 235.827 21.9428C236.577 22.6923 236.999 23.7093 237 24.7699C237.001 25.8306 236.58 26.8482 235.831 27.5989C235.082 28.3496 234.065 28.7719 233.004 28.7729L233 28.7729Z" fill="#A6CEE3"/>
</svg>
