<svg width="363" height="234" viewBox="0 0 363 234" fill="none" xmlns="http://www.w3.org/2000/svg">
<path d="M19.0862 4.32141V206.708" stroke="#F0F0F0"/>
<path d="M57.259 4.32141V206.708" stroke="#F0F0F0"/>
<path d="M94.7112 4.32141V206.708" stroke="#F0F0F0"/>
<path d="M132.884 4.32141V206.708" stroke="#F0F0F0"/>
<path d="M170.336 4.32141V206.708" stroke="#F0F0F0"/>
<path d="M208.509 4.32141V206.708" stroke="#F0F0F0"/>
<path d="M245.961 4.32141V206.708" stroke="#F0F0F0"/>
<path d="M284.134 4.32141V206.708" stroke="#F0F0F0"/>
<path d="M321.586 4.32141V206.708" stroke="#F0F0F0"/>
<path d="M360.479 4.32141V206.708" stroke="#F0F0F0"/>
<path d="M19.4463 207.068H360.119" stroke="#F0F0F0"/>
<path d="M19.4463 166.735H360.119" stroke="#F0F0F0"/>
<path d="M19.4463 126.402H360.119" stroke="#F0F0F0"/>
<path d="M19.4463 85.3482H360.119" stroke="#F0F0F0"/>
<path d="M19.4463 45.0149H360.119" stroke="#F0F0F0"/>
<path d="M19.4463 3.9613H360.119" stroke="#F0F0F0"/>
<path d="M19.4463 207.068H360.119" stroke="#F0F0F0"/>
<path d="M19.0862 4.32141V206.708" stroke="#F0F0F0"/>
<path d="M17.5078 214.361V221.47H16.5801V214.361H17.5078ZM19.793 214.361V215.132H14.2998V214.361H19.793ZM22.415 221.568C22.0472 221.568 21.7135 221.506 21.4141 221.382C21.1178 221.255 20.8623 221.078 20.6474 220.85C20.4359 220.622 20.2731 220.352 20.1592 220.04C20.0452 219.727 19.9883 219.385 19.9883 219.014V218.809C19.9883 218.379 20.0517 217.997 20.1787 217.662C20.3057 217.323 20.4782 217.037 20.6963 216.802C20.9144 216.568 21.1618 216.39 21.4385 216.27C21.7152 216.15 22.0016 216.089 22.2978 216.089C22.6754 216.089 23.001 216.154 23.2744 216.285C23.5511 216.415 23.7773 216.597 23.9531 216.832C24.1289 217.063 24.2591 217.336 24.3437 217.652C24.4284 217.964 24.4707 218.306 24.4707 218.677V219.083H20.5254V218.345H23.5674V218.277C23.5544 218.042 23.5055 217.815 23.4209 217.593C23.3395 217.372 23.2093 217.19 23.0303 217.046C22.8512 216.903 22.6071 216.832 22.2978 216.832C22.0928 216.832 21.904 216.876 21.7314 216.963C21.5589 217.048 21.4108 217.175 21.2871 217.344C21.1634 217.514 21.0674 217.72 20.999 217.964C20.9307 218.209 20.8965 218.49 20.8965 218.809V219.014C20.8965 219.265 20.9307 219.501 20.999 219.722C21.0706 219.94 21.1732 220.132 21.3066 220.298C21.4433 220.464 21.6077 220.595 21.7998 220.689C21.9951 220.783 22.2165 220.831 22.4639 220.831C22.7829 220.831 23.053 220.765 23.2744 220.635C23.4958 220.505 23.6894 220.331 23.8555 220.113L24.4023 220.547C24.2884 220.72 24.1435 220.884 23.9678 221.041C23.792 221.197 23.5755 221.324 23.3183 221.421C23.0644 221.519 22.7633 221.568 22.415 221.568ZM16.6289 228.187L17.7861 230.111L18.958 228.187H20.0176L18.2891 230.794L20.0713 233.47H19.0264L17.8057 231.488L16.5849 233.47H15.5351L17.3125 230.794L15.5889 228.187H16.6289ZM23.1914 228.187V228.88H20.3349V228.187H23.1914ZM21.3017 226.903H22.2051V232.162C22.2051 232.341 22.2327 232.476 22.2881 232.567C22.3434 232.658 22.415 232.718 22.5029 232.748C22.5908 232.777 22.6852 232.792 22.7861 232.792C22.861 232.792 22.9391 232.785 23.0205 232.772C23.1051 232.756 23.1686 232.743 23.2109 232.733L23.2158 233.47C23.1442 233.493 23.0498 233.514 22.9326 233.534C22.8187 233.556 22.6803 233.568 22.5176 233.568C22.2962 233.568 22.0928 233.524 21.9072 233.436C21.7217 233.348 21.5736 233.202 21.4629 232.997C21.3555 232.788 21.3017 232.508 21.3017 232.157V226.903Z" fill="#A3A3A3"/>
<path d="M55.3606 214.361V221.47H54.4328V214.361H55.3606ZM57.6457 214.361V215.132H52.1526V214.361H57.6457ZM60.2678 221.568C59.9 221.568 59.5663 221.506 59.2668 221.382C58.9706 221.255 58.7151 221.078 58.5002 220.85C58.2886 220.622 58.1259 220.352 58.012 220.04C57.898 219.727 57.8411 219.385 57.8411 219.014V218.809C57.8411 218.379 57.9045 217.997 58.0315 217.662C58.1584 217.323 58.331 217.037 58.5491 216.802C58.7672 216.568 59.0146 216.39 59.2912 216.27C59.5679 216.15 59.8544 216.089 60.1506 216.089C60.5282 216.089 60.8537 216.154 61.1272 216.285C61.4039 216.415 61.6301 216.597 61.8059 216.832C61.9817 217.063 62.1119 217.336 62.1965 217.652C62.2812 217.964 62.3235 218.306 62.3235 218.677V219.083H58.3782V218.345H61.4202V218.277C61.4071 218.042 61.3583 217.815 61.2737 217.593C61.1923 217.372 61.0621 217.19 60.883 217.046C60.704 216.903 60.4599 216.832 60.1506 216.832C59.9455 216.832 59.7567 216.876 59.5842 216.963C59.4117 217.048 59.2636 217.175 59.1399 217.344C59.0162 217.514 58.9202 217.72 58.8518 217.964C58.7834 218.209 58.7493 218.49 58.7493 218.809V219.014C58.7493 219.265 58.7834 219.501 58.8518 219.722C58.9234 219.94 59.0259 220.132 59.1594 220.298C59.2961 220.464 59.4605 220.595 59.6526 220.689C59.8479 220.783 60.0692 220.831 60.3166 220.831C60.6356 220.831 60.9058 220.765 61.1272 220.635C61.3485 220.505 61.5422 220.331 61.7082 220.113L62.2551 220.547C62.1412 220.72 61.9963 220.884 61.8205 221.041C61.6448 221.197 61.4283 221.324 61.1711 221.421C60.9172 221.519 60.6161 221.568 60.2678 221.568ZM54.4817 228.187L55.6389 230.111L56.8108 228.187H57.8703L56.1418 230.794L57.9241 233.47H56.8791L55.6584 231.488L54.4377 233.47H53.3879L55.1653 230.794L53.4416 228.187H54.4817ZM61.0442 228.187V228.88H58.1877V228.187H61.0442ZM59.1545 226.903H60.0578V232.162C60.0578 232.341 60.0855 232.476 60.1409 232.567C60.1962 232.658 60.2678 232.718 60.3557 232.748C60.4436 232.777 60.538 232.792 60.6389 232.792C60.7138 232.792 60.7919 232.785 60.8733 232.772C60.9579 232.756 61.0214 232.743 61.0637 232.733L61.0686 233.47C60.997 233.493 60.9026 233.514 60.7854 233.534C60.6715 233.556 60.5331 233.568 60.3703 233.568C60.149 233.568 59.9455 233.524 59.76 233.436C59.5745 233.348 59.4263 233.202 59.3157 232.997C59.2082 232.788 59.1545 232.508 59.1545 232.157V226.903Z" fill="#A3A3A3"/>
<path d="M93.2131 214.361V221.47H92.2854V214.361H93.2131ZM95.4983 214.361V215.132H90.0051V214.361H95.4983ZM98.1203 221.568C97.7525 221.568 97.4189 221.506 97.1194 221.382C96.8231 221.255 96.5676 221.078 96.3528 220.85C96.1412 220.622 95.9784 220.352 95.8645 220.04C95.7506 219.727 95.6936 219.385 95.6936 219.014V218.809C95.6936 218.379 95.7571 217.997 95.884 217.662C96.011 217.323 96.1835 217.037 96.4016 216.802C96.6197 216.568 96.8671 216.39 97.1438 216.27C97.4205 216.15 97.7069 216.089 98.0032 216.089C98.3808 216.089 98.7063 216.154 98.9797 216.285C99.2564 216.415 99.4827 216.597 99.6584 216.832C99.8342 217.063 99.9644 217.336 100.049 217.652C100.134 217.964 100.176 218.306 100.176 218.677V219.083H96.2307V218.345H99.2727V218.277C99.2597 218.042 99.2108 217.815 99.1262 217.593C99.0448 217.372 98.9146 217.19 98.7356 217.046C98.5565 216.903 98.3124 216.832 98.0032 216.832C97.7981 216.832 97.6093 216.876 97.4368 216.963C97.2642 217.048 97.1161 217.175 96.9924 217.344C96.8687 217.514 96.7727 217.72 96.7043 217.964C96.636 218.209 96.6018 218.49 96.6018 218.809V219.014C96.6018 219.265 96.636 219.501 96.7043 219.722C96.7759 219.94 96.8785 220.132 97.012 220.298C97.1487 220.464 97.3131 220.595 97.5051 220.689C97.7004 220.783 97.9218 220.831 98.1692 220.831C98.4882 220.831 98.7584 220.765 98.9797 220.635C99.2011 220.505 99.3948 220.331 99.5608 220.113L100.108 220.547C99.9937 220.72 99.8489 220.884 99.6731 221.041C99.4973 221.197 99.2808 221.324 99.0237 221.421C98.7698 221.519 98.4687 221.568 98.1203 221.568ZM92.3342 228.187L93.4914 230.111L94.6633 228.187H95.7229L93.9944 230.794L95.7766 233.47H94.7317L93.511 231.488L92.2903 233.47H91.2405L93.0178 230.794L91.2942 228.187H92.3342ZM98.8967 228.187V228.88H96.0403V228.187H98.8967ZM97.0071 226.903H97.9104V232.162C97.9104 232.341 97.9381 232.476 97.9934 232.567C98.0487 232.658 98.1203 232.718 98.2082 232.748C98.2961 232.777 98.3905 232.792 98.4914 232.792C98.5663 232.792 98.6444 232.785 98.7258 232.772C98.8105 232.756 98.8739 232.743 98.9162 232.733L98.9211 233.47C98.8495 233.493 98.7551 233.514 98.6379 233.534C98.524 233.556 98.3856 233.568 98.2229 233.568C98.0015 233.568 97.7981 233.524 97.6125 233.436C97.427 233.348 97.2789 233.202 97.1682 232.997C97.0608 232.788 97.0071 232.508 97.0071 232.157V226.903Z" fill="#A3A3A3"/>
<path d="M131.066 214.361V221.47H130.138V214.361H131.066ZM133.351 214.361V215.132H127.858V214.361H133.351ZM135.973 221.568C135.605 221.568 135.271 221.506 134.972 221.382C134.676 221.255 134.42 221.078 134.205 220.85C133.994 220.622 133.831 220.352 133.717 220.04C133.603 219.727 133.546 219.385 133.546 219.014V218.809C133.546 218.379 133.61 217.997 133.737 217.662C133.864 217.323 134.036 217.037 134.254 216.802C134.472 216.568 134.72 216.39 134.996 216.27C135.273 216.15 135.559 216.089 135.856 216.089C136.233 216.089 136.559 216.154 136.832 216.285C137.109 216.415 137.335 216.597 137.511 216.832C137.687 217.063 137.817 217.336 137.902 217.652C137.986 217.964 138.029 218.306 138.029 218.677V219.083H134.083V218.345H137.125V218.277C137.112 218.042 137.063 217.815 136.979 217.593C136.897 217.372 136.767 217.19 136.588 217.046C136.409 216.903 136.165 216.832 135.856 216.832C135.651 216.832 135.462 216.876 135.289 216.963C135.117 217.048 134.969 217.175 134.845 217.344C134.721 217.514 134.625 217.72 134.557 217.964C134.489 218.209 134.454 218.49 134.454 218.809V219.014C134.454 219.265 134.489 219.501 134.557 219.722C134.628 219.94 134.731 220.132 134.864 220.298C135.001 220.464 135.166 220.595 135.358 220.689C135.553 220.783 135.774 220.831 136.022 220.831C136.341 220.831 136.611 220.765 136.832 220.635C137.054 220.505 137.247 220.331 137.413 220.113L137.96 220.547C137.846 220.72 137.701 220.884 137.526 221.041C137.35 221.197 137.133 221.324 136.876 221.421C136.622 221.519 136.321 221.568 135.973 221.568ZM130.187 228.187L131.344 230.111L132.516 228.187H133.575L131.847 230.794L133.629 233.47H132.584L131.364 231.488L130.143 233.47H129.093L130.87 230.794L129.147 228.187H130.187ZM136.749 228.187V228.88H133.893V228.187H136.749ZM134.86 226.903H135.763V232.162C135.763 232.341 135.791 232.476 135.846 232.567C135.901 232.658 135.973 232.718 136.061 232.748C136.149 232.777 136.243 232.792 136.344 232.792C136.419 232.792 136.497 232.785 136.578 232.772C136.663 232.756 136.726 232.743 136.769 232.733L136.774 233.47C136.702 233.493 136.608 233.514 136.49 233.534C136.377 233.556 136.238 233.568 136.075 233.568C135.854 233.568 135.651 233.524 135.465 233.436C135.28 233.348 135.131 233.202 135.021 232.997C134.913 232.788 134.86 232.508 134.86 232.157V226.903Z" fill="#A3A3A3"/>
<path d="M168.918 214.361V221.47H167.99V214.361H168.918ZM171.203 214.361V215.132H165.71V214.361H171.203ZM173.825 221.568C173.458 221.568 173.124 221.506 172.824 221.382C172.528 221.255 172.273 221.078 172.058 220.85C171.846 220.622 171.684 220.352 171.57 220.04C171.456 219.727 171.399 219.385 171.399 219.014V218.809C171.399 218.379 171.462 217.997 171.589 217.662C171.716 217.323 171.889 217.037 172.107 216.802C172.325 216.568 172.572 216.39 172.849 216.27C173.126 216.15 173.412 216.089 173.708 216.089C174.086 216.089 174.411 216.154 174.685 216.285C174.961 216.415 175.188 216.597 175.364 216.832C175.539 217.063 175.67 217.336 175.754 217.652C175.839 217.964 175.881 218.306 175.881 218.677V219.083H171.936V218.345H174.978V218.277C174.965 218.042 174.916 217.815 174.831 217.593C174.75 217.372 174.62 217.19 174.441 217.046C174.262 216.903 174.017 216.832 173.708 216.832C173.503 216.832 173.314 216.876 173.142 216.963C172.969 217.048 172.821 217.175 172.697 217.344C172.574 217.514 172.478 217.72 172.409 217.964C172.341 218.209 172.307 218.49 172.307 218.809V219.014C172.307 219.265 172.341 219.501 172.409 219.722C172.481 219.94 172.584 220.132 172.717 220.298C172.854 220.464 173.018 220.595 173.21 220.689C173.406 220.783 173.627 220.831 173.874 220.831C174.193 220.831 174.463 220.765 174.685 220.635C174.906 220.505 175.1 220.331 175.266 220.113L175.813 220.547C175.699 220.72 175.554 220.884 175.378 221.041C175.202 221.197 174.986 221.324 174.729 221.421C174.475 221.519 174.174 221.568 173.825 221.568ZM168.039 228.187L169.197 230.111L170.368 228.187H171.428L169.699 230.794L171.482 233.47H170.437L169.216 231.488L167.995 233.47H166.946L168.723 230.794L166.999 228.187H168.039ZM174.602 228.187V228.88H171.745V228.187H174.602ZM172.712 226.903H173.615V232.162C173.615 232.341 173.643 232.476 173.698 232.567C173.754 232.658 173.825 232.718 173.913 232.748C174.001 232.777 174.096 232.792 174.197 232.792C174.271 232.792 174.35 232.785 174.431 232.772C174.516 232.756 174.579 232.743 174.621 232.733L174.626 233.47C174.555 233.493 174.46 233.514 174.343 233.534C174.229 233.556 174.091 233.568 173.928 233.568C173.707 233.568 173.503 233.524 173.318 233.436C173.132 233.348 172.984 233.202 172.873 232.997C172.766 232.788 172.712 232.508 172.712 232.157V226.903Z" fill="#A3A3A3"/>
<path d="M206.771 214.361V221.47H205.843V214.361H206.771ZM209.056 214.361V215.132H203.563V214.361H209.056ZM211.678 221.568C211.31 221.568 210.976 221.506 210.677 221.382C210.381 221.255 210.125 221.078 209.91 220.85C209.699 220.622 209.536 220.352 209.422 220.04C209.308 219.727 209.251 219.385 209.251 219.014V218.809C209.251 218.379 209.315 217.997 209.442 217.662C209.569 217.323 209.741 217.037 209.959 216.802C210.177 216.568 210.425 216.39 210.701 216.27C210.978 216.15 211.265 216.089 211.561 216.089C211.938 216.089 212.264 216.154 212.537 216.285C212.814 216.415 213.04 216.597 213.216 216.832C213.392 217.063 213.522 217.336 213.607 217.652C213.691 217.964 213.734 218.306 213.734 218.677V219.083H209.788V218.345H212.83V218.277C212.817 218.042 212.768 217.815 212.684 217.593C212.602 217.372 212.472 217.19 212.293 217.046C212.114 216.903 211.87 216.832 211.561 216.832C211.356 216.832 211.167 216.876 210.994 216.963C210.822 217.048 210.674 217.175 210.55 217.344C210.426 217.514 210.33 217.72 210.262 217.964C210.194 218.209 210.159 218.49 210.159 218.809V219.014C210.159 219.265 210.194 219.501 210.262 219.722C210.334 219.94 210.436 220.132 210.57 220.298C210.706 220.464 210.871 220.595 211.063 220.689C211.258 220.783 211.479 220.831 211.727 220.831C212.046 220.831 212.316 220.765 212.537 220.635C212.759 220.505 212.952 220.331 213.118 220.113L213.665 220.547C213.551 220.72 213.406 220.884 213.231 221.041C213.055 221.197 212.838 221.324 212.581 221.421C212.327 221.519 212.026 221.568 211.678 221.568ZM205.892 228.187L207.049 230.111L208.221 228.187H209.281L207.552 230.794L209.334 233.47H208.289L207.069 231.488L205.848 233.47H204.798L206.575 230.794L204.852 228.187H205.892ZM212.454 228.187V228.88H209.598V228.187H212.454ZM210.565 226.903H211.468V232.162C211.468 232.341 211.496 232.476 211.551 232.567C211.606 232.658 211.678 232.718 211.766 232.748C211.854 232.777 211.948 232.792 212.049 232.792C212.124 232.792 212.202 232.785 212.283 232.772C212.368 232.756 212.432 232.743 212.474 232.733L212.479 233.47C212.407 233.493 212.313 233.514 212.196 233.534C212.082 233.556 211.943 233.568 211.781 233.568C211.559 233.568 211.356 233.524 211.17 233.436C210.985 233.348 210.836 233.202 210.726 232.997C210.618 232.788 210.565 232.508 210.565 232.157V226.903Z" fill="#A3A3A3"/>
<path d="M244.623 214.361V221.47H243.695V214.361H244.623ZM246.908 214.361V215.132H241.415V214.361H246.908ZM249.53 221.568C249.162 221.568 248.829 221.506 248.529 221.382C248.233 221.255 247.978 221.078 247.763 220.85C247.551 220.622 247.388 220.352 247.274 220.04C247.16 219.727 247.104 219.385 247.104 219.014V218.809C247.104 218.379 247.167 217.997 247.294 217.662C247.421 217.323 247.593 217.037 247.812 216.802C248.03 216.568 248.277 216.39 248.554 216.27C248.83 216.15 249.117 216.089 249.413 216.089C249.791 216.089 250.116 216.154 250.39 216.285C250.666 216.415 250.893 216.597 251.068 216.832C251.244 217.063 251.374 217.336 251.459 217.652C251.544 217.964 251.586 218.306 251.586 218.677V219.083H247.641V218.345H250.683V218.277C250.67 218.042 250.621 217.815 250.536 217.593C250.455 217.372 250.325 217.19 250.145 217.046C249.966 216.903 249.722 216.832 249.413 216.832C249.208 216.832 249.019 216.876 248.847 216.963C248.674 217.048 248.526 217.175 248.402 217.344C248.279 217.514 248.183 217.72 248.114 217.964C248.046 218.209 248.012 218.49 248.012 218.809V219.014C248.012 219.265 248.046 219.501 248.114 219.722C248.186 219.94 248.288 220.132 248.422 220.298C248.559 220.464 248.723 220.595 248.915 220.689C249.11 220.783 249.332 220.831 249.579 220.831C249.898 220.831 250.168 220.765 250.39 220.635C250.611 220.505 250.805 220.331 250.971 220.113L251.518 220.547C251.404 220.72 251.259 220.884 251.083 221.041C250.907 221.197 250.691 221.324 250.434 221.421C250.18 221.519 249.879 221.568 249.53 221.568ZM243.744 228.187L244.901 230.111L246.073 228.187H247.133L245.404 230.794L247.187 233.47H246.142L244.921 231.488L243.7 233.47H242.65L244.428 230.794L242.704 228.187H243.744ZM250.307 228.187V228.88H247.45V228.187H250.307ZM248.417 226.903H249.32V232.162C249.32 232.341 249.348 232.476 249.403 232.567C249.459 232.658 249.53 232.718 249.618 232.748C249.706 232.777 249.8 232.792 249.901 232.792C249.976 232.792 250.054 232.785 250.136 232.772C250.22 232.756 250.284 232.743 250.326 232.733L250.331 233.47C250.259 233.493 250.165 233.514 250.048 233.534C249.934 233.556 249.796 233.568 249.633 233.568C249.411 233.568 249.208 233.524 249.022 233.436C248.837 233.348 248.689 233.202 248.578 232.997C248.471 232.788 248.417 232.508 248.417 232.157V226.903Z" fill="#A3A3A3"/>
<path d="M282.476 214.361V221.47H281.548V214.361H282.476ZM284.761 214.361V215.132H279.268V214.361H284.761ZM287.383 221.568C287.015 221.568 286.681 221.506 286.382 221.382C286.086 221.255 285.83 221.078 285.615 220.85C285.404 220.622 285.241 220.352 285.127 220.04C285.013 219.727 284.956 219.385 284.956 219.014V218.809C284.956 218.379 285.02 217.997 285.146 217.662C285.273 217.323 285.446 217.037 285.664 216.802C285.882 216.568 286.13 216.39 286.406 216.27C286.683 216.15 286.969 216.089 287.266 216.089C287.643 216.089 287.969 216.154 288.242 216.285C288.519 216.415 288.745 216.597 288.921 216.832C289.097 217.063 289.227 217.336 289.312 217.652C289.396 217.964 289.438 218.306 289.438 218.677V219.083H285.493V218.345H288.535V218.277C288.522 218.042 288.473 217.815 288.389 217.593C288.307 217.372 288.177 217.19 287.998 217.046C287.819 216.903 287.575 216.832 287.266 216.832C287.061 216.832 286.872 216.876 286.699 216.963C286.527 217.048 286.379 217.175 286.255 217.344C286.131 217.514 286.035 217.72 285.967 217.964C285.898 218.209 285.864 218.49 285.864 218.809V219.014C285.864 219.265 285.898 219.501 285.967 219.722C286.038 219.94 286.141 220.132 286.274 220.298C286.411 220.464 286.576 220.595 286.768 220.689C286.963 220.783 287.184 220.831 287.432 220.831C287.751 220.831 288.021 220.765 288.242 220.635C288.464 220.505 288.657 220.331 288.823 220.113L289.37 220.547C289.256 220.72 289.111 220.884 288.936 221.041C288.76 221.197 288.543 221.324 288.286 221.421C288.032 221.519 287.731 221.568 287.383 221.568ZM281.597 228.187L282.754 230.111L283.926 228.187H284.985L283.257 230.794L285.039 233.47H283.994L282.773 231.488L281.553 233.47H280.503L282.28 230.794L280.557 228.187H281.597ZM288.159 228.187V228.88H285.303V228.187H288.159ZM286.27 226.903H287.173V232.162C287.173 232.341 287.201 232.476 287.256 232.567C287.311 232.658 287.383 232.718 287.471 232.748C287.559 232.777 287.653 232.792 287.754 232.792C287.829 232.792 287.907 232.785 287.988 232.772C288.073 232.756 288.136 232.743 288.179 232.733L288.184 233.47C288.112 233.493 288.018 233.514 287.9 233.534C287.786 233.556 287.648 233.568 287.485 233.568C287.264 233.568 287.061 233.524 286.875 233.436C286.689 233.348 286.541 233.202 286.431 232.997C286.323 232.788 286.27 232.508 286.27 232.157V226.903Z" fill="#A3A3A3"/>
<path d="M320.328 214.361V221.47H319.4V214.361H320.328ZM322.613 214.361V215.132H317.12V214.361H322.613ZM325.235 221.568C324.868 221.568 324.534 221.506 324.234 221.382C323.938 221.255 323.683 221.078 323.468 220.85C323.256 220.622 323.093 220.352 322.979 220.04C322.866 219.727 322.809 219.385 322.809 219.014V218.809C322.809 218.379 322.872 217.997 322.999 217.662C323.126 217.323 323.298 217.037 323.517 216.802C323.735 216.568 323.982 216.39 324.259 216.27C324.535 216.15 324.822 216.089 325.118 216.089C325.496 216.089 325.821 216.154 326.095 216.285C326.371 216.415 326.598 216.597 326.773 216.832C326.949 217.063 327.079 217.336 327.164 217.652C327.249 217.964 327.291 218.306 327.291 218.677V219.083H323.346V218.345H326.388V218.277C326.375 218.042 326.326 217.815 326.241 217.593C326.16 217.372 326.03 217.19 325.851 217.046C325.672 216.903 325.427 216.832 325.118 216.832C324.913 216.832 324.724 216.876 324.552 216.963C324.379 217.048 324.231 217.175 324.107 217.344C323.984 217.514 323.888 217.72 323.819 217.964C323.751 218.209 323.717 218.49 323.717 218.809V219.014C323.717 219.265 323.751 219.501 323.819 219.722C323.891 219.94 323.993 220.132 324.127 220.298C324.264 220.464 324.428 220.595 324.62 220.689C324.815 220.783 325.037 220.831 325.284 220.831C325.603 220.831 325.873 220.765 326.095 220.635C326.316 220.505 326.51 220.331 326.676 220.113L327.223 220.547C327.109 220.72 326.964 220.884 326.788 221.041C326.612 221.197 326.396 221.324 326.139 221.421C325.885 221.519 325.584 221.568 325.235 221.568ZM319.449 228.187L320.606 230.111L321.778 228.187H322.838L321.109 230.794L322.892 233.47H321.847L320.626 231.488L319.405 233.47H318.355L320.133 230.794L318.409 228.187H319.449ZM326.012 228.187V228.88H323.155V228.187H326.012ZM324.122 226.903H325.025V232.162C325.025 232.341 325.053 232.476 325.108 232.567C325.164 232.658 325.235 232.718 325.323 232.748C325.411 232.777 325.506 232.792 325.606 232.792C325.681 232.792 325.759 232.785 325.841 232.772C325.925 232.756 325.989 232.743 326.031 232.733L326.036 233.47C325.965 233.493 325.87 233.514 325.753 233.534C325.639 233.556 325.501 233.568 325.338 233.568C325.117 233.568 324.913 233.524 324.728 233.436C324.542 233.348 324.394 233.202 324.283 232.997C324.176 232.788 324.122 232.508 324.122 232.157V226.903Z" fill="#A3A3A3"/>
<path d="M351.424 214.361V221.47H350.496V214.361H351.424ZM353.709 214.361V215.132H348.216V214.361H353.709ZM356.331 221.568C355.963 221.568 355.63 221.506 355.33 221.382C355.034 221.255 354.779 221.078 354.564 220.85C354.352 220.622 354.189 220.352 354.075 220.04C353.961 219.727 353.905 219.385 353.905 219.014V218.809C353.905 218.379 353.968 217.997 354.095 217.662C354.222 217.323 354.394 217.037 354.613 216.802C354.831 216.568 355.078 216.39 355.355 216.27C355.631 216.15 355.918 216.089 356.214 216.089C356.592 216.089 356.917 216.154 357.191 216.285C357.467 216.415 357.694 216.597 357.869 216.832C358.045 217.063 358.175 217.336 358.26 217.652C358.345 217.964 358.387 218.306 358.387 218.677V219.083H354.442V218.345H357.484V218.277C357.471 218.042 357.422 217.815 357.337 217.593C357.256 217.372 357.126 217.19 356.947 217.046C356.767 216.903 356.523 216.832 356.214 216.832C356.009 216.832 355.82 216.876 355.648 216.963C355.475 217.048 355.327 217.175 355.203 217.344C355.08 217.514 354.984 217.72 354.915 217.964C354.847 218.209 354.813 218.49 354.813 218.809V219.014C354.813 219.265 354.847 219.501 354.915 219.722C354.987 219.94 355.089 220.132 355.223 220.298C355.36 220.464 355.524 220.595 355.716 220.689C355.911 220.783 356.133 220.831 356.38 220.831C356.699 220.831 356.969 220.765 357.191 220.635C357.412 220.505 357.606 220.331 357.772 220.113L358.319 220.547C358.205 220.72 358.06 220.884 357.884 221.041C357.708 221.197 357.492 221.324 357.235 221.421C356.981 221.519 356.68 221.568 356.331 221.568ZM350.545 228.187L351.702 230.111L352.874 228.187H353.934L352.205 230.794L353.988 233.47H352.943L351.722 231.488L350.501 233.47H349.451L351.229 230.794L349.505 228.187H350.545ZM357.108 228.187V228.88H354.251V228.187H357.108ZM355.218 226.903H356.121V232.162C356.121 232.341 356.149 232.476 356.204 232.567C356.26 232.658 356.331 232.718 356.419 232.748C356.507 232.777 356.601 232.792 356.702 232.792C356.777 232.792 356.855 232.785 356.937 232.772C357.021 232.756 357.085 232.743 357.127 232.733L357.132 233.47C357.06 233.493 356.966 233.514 356.849 233.534C356.735 233.556 356.597 233.568 356.434 233.568C356.212 233.568 356.009 233.524 355.823 233.436C355.638 233.348 355.49 233.202 355.379 232.997C355.272 232.788 355.218 232.508 355.218 232.157V226.903Z" fill="#A3A3A3"/>
<path d="M11.6727 207.266V208.35C11.6727 208.932 11.6207 209.424 11.5165 209.824C11.4123 210.225 11.2626 210.547 11.0673 210.791C10.872 211.035 10.636 211.213 10.3593 211.323C10.0858 211.431 9.77659 211.485 9.43154 211.485C9.1581 211.485 8.90582 211.45 8.6747 211.382C8.44358 211.314 8.23525 211.205 8.0497 211.055C7.86741 210.902 7.71116 210.703 7.58095 210.459C7.45074 210.215 7.35146 209.919 7.2831 209.57C7.21474 209.222 7.18056 208.815 7.18056 208.35V207.266C7.18056 206.683 7.23264 206.195 7.33681 205.801C7.44423 205.407 7.5956 205.091 7.79091 204.854C7.98622 204.613 8.2206 204.44 8.49404 204.336C8.77073 204.232 9.07997 204.18 9.42177 204.18C9.69846 204.18 9.95237 204.214 10.1835 204.282C10.4179 204.348 10.6262 204.453 10.8085 204.6C10.9908 204.743 11.1454 204.935 11.2724 205.176C11.4026 205.414 11.5018 205.705 11.5702 206.05C11.6386 206.395 11.6727 206.8 11.6727 207.266ZM10.7645 208.496V207.114C10.7645 206.795 10.745 206.515 10.7059 206.275C10.6701 206.03 10.6164 205.822 10.5448 205.65C10.4732 205.477 10.3821 205.337 10.2714 205.23C10.164 205.122 10.0386 205.044 9.8954 204.995C9.75543 204.943 9.59755 204.917 9.42177 204.917C9.20693 204.917 9.0165 204.958 8.85048 205.039C8.68447 205.117 8.54449 205.243 8.43056 205.415C8.31988 205.588 8.23525 205.814 8.17665 206.094C8.11806 206.374 8.08876 206.714 8.08876 207.114V208.496C8.08876 208.815 8.10667 209.097 8.14247 209.341C8.18154 209.585 8.2385 209.797 8.31337 209.976C8.38824 210.152 8.47939 210.296 8.58681 210.41C8.69423 210.524 8.81793 210.609 8.9579 210.664C9.10113 210.716 9.25901 210.742 9.43154 210.742C9.65289 210.742 9.84657 210.7 10.0126 210.615C10.1786 210.531 10.317 210.399 10.4276 210.22C10.5416 210.038 10.6262 209.805 10.6815 209.522C10.7369 209.235 10.7645 208.893 10.7645 208.496Z" fill="#A3A3A3"/>
<path d="M11.868 170.311V171.054H7.21463V170.404L9.54374 167.811C9.83019 167.492 10.0515 167.222 10.2078 167.001C10.3673 166.776 10.478 166.576 10.5398 166.4C10.6049 166.221 10.6375 166.039 10.6375 165.853C10.6375 165.619 10.5887 165.407 10.491 165.219C10.3966 165.027 10.2566 164.874 10.0711 164.76C9.88553 164.646 9.66092 164.589 9.39725 164.589C9.0815 164.589 8.81782 164.651 8.60624 164.774C8.3979 164.895 8.24165 165.064 8.13749 165.282C8.03332 165.5 7.98124 165.751 7.98124 166.034H7.07792C7.07792 165.634 7.16581 165.267 7.34159 164.935C7.51737 164.603 7.77778 164.34 8.12284 164.144C8.46789 163.946 8.89269 163.847 9.39725 163.847C9.84647 163.847 10.2306 163.926 10.5496 164.086C10.8686 164.242 11.1127 164.463 11.282 164.75C11.4545 165.033 11.5408 165.365 11.5408 165.746C11.5408 165.954 11.505 166.166 11.4334 166.381C11.365 166.592 11.269 166.804 11.1453 167.015C11.0249 167.227 10.8833 167.435 10.7205 167.64C10.561 167.846 10.3901 168.047 10.2078 168.246L8.3035 170.311H11.868ZM11.6726 178.932V180.016C11.6726 180.599 11.6206 181.091 11.5164 181.491C11.4122 181.891 11.2625 182.214 11.0672 182.458C10.8719 182.702 10.6359 182.879 10.3592 182.99C10.0857 183.098 9.77648 183.151 9.43143 183.151C9.15799 183.151 8.90571 183.117 8.67459 183.049C8.44348 182.98 8.23514 182.871 8.04959 182.722C7.8673 182.569 7.71105 182.37 7.58084 182.126C7.45064 181.882 7.35135 181.585 7.28299 181.237C7.21463 180.889 7.18045 180.482 7.18045 180.016V178.932C7.18045 178.35 7.23254 177.862 7.3367 177.468C7.44413 177.074 7.59549 176.758 7.79081 176.52C7.98612 176.279 8.22049 176.107 8.49393 176.003C8.77062 175.899 9.07987 175.847 9.42167 175.847C9.69836 175.847 9.95226 175.881 10.1834 175.949C10.4178 176.014 10.6261 176.12 10.8084 176.266C10.9907 176.41 11.1453 176.602 11.2723 176.843C11.4025 177.08 11.5017 177.372 11.5701 177.717C11.6385 178.062 11.6726 178.467 11.6726 178.932ZM10.7644 180.163V178.781C10.7644 178.462 10.7449 178.182 10.7058 177.941C10.67 177.697 10.6163 177.489 10.5447 177.316C10.4731 177.144 10.382 177.004 10.2713 176.896C10.1639 176.789 10.0385 176.711 9.8953 176.662C9.75532 176.61 9.59745 176.584 9.42167 176.584C9.20682 176.584 9.01639 176.625 8.85038 176.706C8.68436 176.784 8.54439 176.909 8.43045 177.082C8.31978 177.254 8.23514 177.481 8.17655 177.761C8.11795 178.041 8.08866 178.381 8.08866 178.781V180.163C8.08866 180.482 8.10656 180.764 8.14237 181.008C8.18143 181.252 8.2384 181.463 8.31327 181.642C8.38814 181.818 8.47928 181.963 8.5867 182.077C8.69413 182.191 8.81782 182.276 8.9578 182.331C9.10103 182.383 9.2589 182.409 9.43143 182.409C9.65278 182.409 9.84647 182.367 10.0125 182.282C10.1785 182.197 10.3168 182.066 10.4275 181.887C10.5415 181.704 10.6261 181.472 10.6814 181.188C10.7368 180.902 10.7644 180.56 10.7644 180.163Z" fill="#A3A3A3"/>
<path d="M12.0144 128.328V129.07H6.87772V128.538L10.0613 123.611H10.7986L10.0076 125.037L7.90311 128.328H12.0144ZM11.0232 123.611V130.72H10.1199V123.611H11.0232ZM11.6726 138.599V139.683C11.6726 140.266 11.6206 140.757 11.5164 141.158C11.4122 141.558 11.2625 141.88 11.0672 142.125C10.8719 142.369 10.6359 142.546 10.3592 142.657C10.0857 142.764 9.77648 142.818 9.43143 142.818C9.15799 142.818 8.90571 142.784 8.67459 142.715C8.44348 142.647 8.23514 142.538 8.04959 142.388C7.8673 142.235 7.71105 142.037 7.58084 141.792C7.45064 141.548 7.35135 141.252 7.28299 140.904C7.21463 140.556 7.18045 140.149 7.18045 139.683V138.599C7.18045 138.016 7.23254 137.528 7.3367 137.134C7.44413 136.74 7.59549 136.425 7.79081 136.187C7.98612 135.946 8.22049 135.774 8.49393 135.669C8.77062 135.565 9.07987 135.513 9.42167 135.513C9.69836 135.513 9.95226 135.547 10.1834 135.616C10.4178 135.681 10.6261 135.787 10.8084 135.933C10.9907 136.076 11.1453 136.268 11.2723 136.509C11.4025 136.747 11.5017 137.038 11.5701 137.383C11.6385 137.728 11.6726 138.134 11.6726 138.599ZM10.7644 139.83V138.448C10.7644 138.129 10.7449 137.849 10.7058 137.608C10.67 137.364 10.6163 137.155 10.5447 136.983C10.4731 136.81 10.382 136.67 10.2713 136.563C10.1639 136.456 10.0385 136.377 9.8953 136.329C9.75532 136.277 9.59745 136.251 9.42167 136.251C9.20682 136.251 9.01639 136.291 8.85038 136.373C8.68436 136.451 8.54439 136.576 8.43045 136.749C8.31978 136.921 8.23514 137.147 8.17655 137.427C8.11795 137.707 8.08866 138.047 8.08866 138.448V139.83C8.08866 140.149 8.10656 140.43 8.14237 140.674C8.18143 140.918 8.2384 141.13 8.31327 141.309C8.38814 141.485 8.47928 141.63 8.5867 141.744C8.69413 141.858 8.81782 141.942 8.9578 141.998C9.10103 142.05 9.2589 142.076 9.43143 142.076C9.65278 142.076 9.84647 142.033 10.0125 141.949C10.1785 141.864 10.3168 141.732 10.4275 141.553C10.5415 141.371 10.6261 141.138 10.6814 140.855C10.7368 140.569 10.7644 140.227 10.7644 139.83Z" fill="#A3A3A3"/>
<path d="M10.6765 83.2678H10.7547V84.0344H10.6765C10.198 84.0344 9.79764 84.1125 9.47538 84.2687C9.15311 84.4217 8.89758 84.6284 8.70877 84.8889C8.51997 85.146 8.38325 85.4357 8.29862 85.758C8.21724 86.0803 8.17655 86.4074 8.17655 86.7394V87.7844C8.17655 88.1001 8.21398 88.3801 8.28885 88.6242C8.36372 88.8651 8.46626 89.0685 8.59647 89.2346C8.72668 89.4006 8.87316 89.5259 9.03592 89.6105C9.20194 89.6952 9.37446 89.7375 9.5535 89.7375C9.76183 89.7375 9.94738 89.6984 10.1101 89.6203C10.2729 89.5389 10.4096 89.4266 10.5203 89.2834C10.6342 89.1369 10.7205 88.9644 10.7791 88.7658C10.8377 88.5672 10.867 88.3491 10.867 88.1115C10.867 87.8999 10.8409 87.6965 10.7889 87.5012C10.7368 87.3026 10.657 87.1268 10.5496 86.9738C10.4422 86.8176 10.3071 86.6955 10.1443 86.6076C9.98482 86.5165 9.79439 86.4709 9.57303 86.4709C9.32238 86.4709 9.08801 86.5327 8.86991 86.6564C8.65506 86.7769 8.47765 86.9364 8.33768 87.1349C8.20096 87.3303 8.12284 87.5435 8.10331 87.7746L7.62479 87.7697C7.67036 87.4051 7.755 87.0943 7.8787 86.8371C8.00565 86.5767 8.1619 86.3651 8.34745 86.2023C8.53625 86.0363 8.74621 85.9159 8.97733 85.841C9.2117 85.7629 9.4591 85.7238 9.71952 85.7238C10.0743 85.7238 10.3803 85.7905 10.6375 85.924C10.8946 86.0575 11.1062 86.2365 11.2723 86.4611C11.4383 86.6825 11.5603 86.9331 11.6385 87.2131C11.7198 87.4898 11.7605 87.7746 11.7605 88.0676C11.7605 88.4029 11.7133 88.717 11.6189 89.0099C11.5245 89.3029 11.3829 89.5601 11.1941 89.7814C11.0086 90.0028 10.7791 90.1753 10.5056 90.299C10.2322 90.4227 9.91483 90.4846 9.5535 90.4846C9.16939 90.4846 8.8341 90.4064 8.54764 90.2502C8.26118 90.0907 8.02355 89.8791 7.83475 89.6154C7.64595 89.3517 7.50435 89.0588 7.40995 88.7365C7.31555 88.4142 7.26834 88.0871 7.26834 87.7551V87.3303C7.26834 86.829 7.3188 86.3374 7.41971 85.8557C7.52062 85.3739 7.69478 84.9377 7.94217 84.5471C8.19282 84.1564 8.5395 83.8456 8.98221 83.6144C9.42492 83.3833 9.9897 83.2678 10.6765 83.2678ZM11.6726 98.2658V99.3498C11.6726 99.9325 11.6206 100.424 11.5164 100.824C11.4122 101.225 11.2625 101.547 11.0672 101.791C10.8719 102.035 10.6359 102.213 10.3592 102.323C10.0857 102.431 9.77648 102.485 9.43143 102.485C9.15799 102.485 8.90571 102.45 8.67459 102.382C8.44348 102.314 8.23514 102.205 8.04959 102.055C7.8673 101.902 7.71105 101.703 7.58084 101.459C7.45064 101.215 7.35135 100.919 7.28299 100.57C7.21463 100.222 7.18045 99.8153 7.18045 99.3498V98.2658C7.18045 97.6831 7.23254 97.1948 7.3367 96.801C7.44413 96.4071 7.59549 96.0913 7.79081 95.8537C7.98612 95.6128 8.22049 95.4403 8.49393 95.3361C8.77062 95.232 9.07987 95.1799 9.42167 95.1799C9.69836 95.1799 9.95226 95.2141 10.1834 95.2824C10.4178 95.3475 10.6261 95.4533 10.8084 95.5998C10.9907 95.743 11.1453 95.9351 11.2723 96.176C11.4025 96.4136 11.5017 96.7049 11.5701 97.05C11.6385 97.395 11.6726 97.8003 11.6726 98.2658ZM10.7644 99.4963V98.1144C10.7644 97.7954 10.7449 97.5155 10.7058 97.2746C10.67 97.0305 10.6163 96.8221 10.5447 96.6496C10.4731 96.4771 10.382 96.3371 10.2713 96.2297C10.1639 96.1223 10.0385 96.0441 9.8953 95.9953C9.75532 95.9432 9.59745 95.9172 9.42167 95.9172C9.20682 95.9172 9.01639 95.9579 8.85038 96.0392C8.68436 96.1174 8.54439 96.2427 8.43045 96.4152C8.31978 96.5877 8.23514 96.814 8.17655 97.0939C8.11795 97.3739 8.08866 97.7141 8.08866 98.1144V99.4963C8.08866 99.8153 8.10656 100.097 8.14237 100.341C8.18143 100.585 8.2384 100.797 8.31327 100.976C8.38814 101.152 8.47928 101.296 8.5867 101.41C8.69413 101.524 8.81782 101.609 8.9578 101.664C9.10103 101.716 9.2589 101.742 9.43143 101.742C9.65278 101.742 9.84647 101.7 10.0125 101.615C10.1785 101.531 10.3168 101.399 10.4275 101.22C10.5415 101.038 10.6261 100.805 10.6814 100.522C10.7368 100.235 10.7644 99.8934 10.7644 99.4963Z" fill="#A3A3A3"/>
<path d="M11.6922 48.1298C11.6922 48.5627 11.5913 48.9305 11.3894 49.2333C11.1909 49.5328 10.9207 49.7606 10.5789 49.9169C10.2404 50.0731 9.85786 50.1512 9.43143 50.1512C9.005 50.1512 8.62088 50.0731 8.27909 49.9169C7.93729 49.7606 7.66711 49.5328 7.46854 49.2333C7.26997 48.9305 7.17069 48.5627 7.17069 48.1298C7.17069 47.8466 7.2244 47.5878 7.33182 47.3534C7.4425 47.1158 7.59712 46.9091 7.79569 46.7333C7.99751 46.5575 8.23514 46.4224 8.50858 46.328C8.78527 46.2303 9.08963 46.1815 9.42167 46.1815C9.85786 46.1815 10.2469 46.2662 10.5887 46.4354C10.9305 46.6014 11.199 46.8309 11.3943 47.1239C11.5929 47.4169 11.6922 47.7522 11.6922 48.1298ZM10.784 48.1102C10.784 47.8466 10.727 47.6138 10.6131 47.412C10.4991 47.2069 10.3396 47.0474 10.1346 46.9335C9.92948 46.8195 9.69185 46.7626 9.42167 46.7626C9.14497 46.7626 8.90571 46.8195 8.70389 46.9335C8.50532 47.0474 8.3507 47.2069 8.24002 47.412C8.12935 47.6138 8.07401 47.8466 8.07401 48.1102C8.07401 48.3837 8.12772 48.618 8.23514 48.8134C8.34582 49.0054 8.50207 49.1535 8.70389 49.2577C8.90897 49.3586 9.15148 49.4091 9.43143 49.4091C9.71138 49.4091 9.95226 49.3586 10.1541 49.2577C10.3559 49.1535 10.5105 49.0054 10.618 48.8134C10.7286 48.618 10.784 48.3837 10.784 48.1102ZM11.5262 44.7948C11.5262 45.1399 11.435 45.4507 11.2527 45.7274C11.0704 46.0041 10.8214 46.2222 10.5056 46.3817C10.1899 46.5412 9.83182 46.621 9.43143 46.621C9.02453 46.621 8.66157 46.5412 8.34256 46.3817C8.02681 46.2222 7.77941 46.0041 7.60038 45.7274C7.42134 45.4507 7.33182 45.1399 7.33182 44.7948C7.33182 44.3814 7.42134 44.0298 7.60038 43.7401C7.78267 43.4504 8.03169 43.229 8.34745 43.076C8.6632 42.9231 9.0229 42.8466 9.42655 42.8466C9.83345 42.8466 10.1948 42.9231 10.5105 43.076C10.8263 43.229 11.0737 43.4504 11.2527 43.7401C11.435 44.0298 11.5262 44.3814 11.5262 44.7948ZM10.6228 44.8094C10.6228 44.5718 10.5724 44.3619 10.4715 44.1796C10.3706 43.9973 10.2306 43.854 10.0515 43.7499C9.87251 43.6425 9.66418 43.5887 9.42655 43.5887C9.18892 43.5887 8.98058 43.6392 8.80155 43.7401C8.62577 43.8378 8.48742 43.9777 8.38651 44.16C8.28885 44.3423 8.24002 44.5588 8.24002 44.8094C8.24002 45.0536 8.28885 45.2668 8.38651 45.4491C8.48742 45.6314 8.62739 45.773 8.80643 45.8739C8.98547 45.9748 9.1938 46.0253 9.43143 46.0253C9.66906 46.0253 9.87577 45.9748 10.0515 45.8739C10.2306 45.773 10.3706 45.6314 10.4715 45.4491C10.5724 45.2668 10.6228 45.0536 10.6228 44.8094ZM11.6726 57.9325V59.0165C11.6726 59.5992 11.6206 60.0907 11.5164 60.4911C11.4122 60.8915 11.2625 61.2137 11.0672 61.4579C10.8719 61.702 10.6359 61.8794 10.3592 61.9901C10.0857 62.0975 9.77648 62.1512 9.43143 62.1512C9.15799 62.1512 8.90571 62.1171 8.67459 62.0487C8.44348 61.9803 8.23514 61.8713 8.04959 61.7216C7.8673 61.5686 7.71105 61.37 7.58084 61.1259C7.45064 60.8817 7.35135 60.5855 7.28299 60.2372C7.21463 59.8889 7.18045 59.482 7.18045 59.0165V57.9325C7.18045 57.3498 7.23254 56.8615 7.3367 56.4677C7.44413 56.0738 7.59549 55.758 7.79081 55.5204C7.98612 55.2795 8.22049 55.107 8.49393 55.0028C8.77062 54.8986 9.07987 54.8466 9.42167 54.8466C9.69836 54.8466 9.95226 54.8807 10.1834 54.9491C10.4178 55.0142 10.6261 55.12 10.8084 55.2665C10.9907 55.4097 11.1453 55.6018 11.2723 55.8427C11.4025 56.0803 11.5017 56.3716 11.5701 56.7167C11.6385 57.0617 11.6726 57.467 11.6726 57.9325ZM10.7644 59.163V57.7811C10.7644 57.4621 10.7449 57.1822 10.7058 56.9413C10.67 56.6971 10.6163 56.4888 10.5447 56.3163C10.4731 56.1438 10.382 56.0038 10.2713 55.8964C10.1639 55.7889 10.0385 55.7108 9.8953 55.662C9.75532 55.6099 9.59745 55.5839 9.42167 55.5839C9.20682 55.5839 9.01639 55.6246 8.85038 55.7059C8.68436 55.7841 8.54439 55.9094 8.43045 56.0819C8.31978 56.2544 8.23514 56.4807 8.17655 56.7606C8.11795 57.0406 8.08866 57.3807 8.08866 57.7811V59.163C8.08866 59.482 8.10656 59.7635 8.14237 60.0077C8.18143 60.2518 8.2384 60.4634 8.31327 60.6425C8.38814 60.8182 8.47928 60.9631 8.5867 61.077C8.69413 61.191 8.81782 61.2756 8.9578 61.3309C9.10103 61.383 9.2589 61.4091 9.43143 61.4091C9.65278 61.4091 9.84647 61.3667 10.0125 61.2821C10.1785 61.1975 10.3168 61.0656 10.4275 60.8866C10.5415 60.7043 10.6261 60.4716 10.6814 60.1884C10.7368 59.9019 10.7644 59.5601 10.7644 59.163Z" fill="#A3A3A3"/>
<path d="M4.55362 1.85156V9H3.6503V2.97949L1.82901 3.64355V2.82812L4.41202 1.85156H4.55362ZM11.6728 4.87891V5.96289C11.6728 6.54557 11.6207 7.03711 11.5165 7.4375C11.4123 7.83789 11.2626 8.16016 11.0673 8.4043C10.872 8.64844 10.636 8.82585 10.3593 8.93652C10.0858 9.04395 9.7766 9.09766 9.43155 9.09766C9.15811 9.09766 8.90583 9.06348 8.67471 8.99512C8.44359 8.92676 8.23526 8.81771 8.04971 8.66797C7.86742 8.51497 7.71117 8.31641 7.58096 8.07227C7.45075 7.82812 7.35147 7.5319 7.28311 7.18359C7.21475 6.83529 7.18057 6.42839 7.18057 5.96289V4.87891C7.18057 4.29622 7.23265 3.80794 7.33682 3.41406C7.44424 3.02018 7.59561 2.70443 7.79092 2.4668C7.98623 2.22591 8.22061 2.05339 8.49405 1.94922C8.77074 1.84505 9.07998 1.79297 9.42178 1.79297C9.69847 1.79297 9.95238 1.82715 10.1835 1.89551C10.4179 1.96061 10.6262 2.06641 10.8085 2.21289C10.9908 2.35612 11.1454 2.54818 11.2724 2.78906C11.4026 3.02669 11.5019 3.31803 11.5702 3.66309C11.6386 4.00814 11.6728 4.41341 11.6728 4.87891ZM10.7646 6.10938V4.72754C10.7646 4.40853 10.745 4.12858 10.706 3.8877C10.6702 3.64355 10.6164 3.43522 10.5448 3.2627C10.4732 3.09017 10.3821 2.9502 10.2714 2.84277C10.164 2.73535 10.0386 2.65723 9.89541 2.6084C9.75544 2.55632 9.59756 2.53027 9.42178 2.53027C9.20694 2.53027 9.01651 2.57096 8.85049 2.65234C8.68448 2.73047 8.5445 2.85579 8.43057 3.02832C8.31989 3.20085 8.23526 3.42708 8.17666 3.70703C8.11807 3.98698 8.08877 4.32715 8.08877 4.72754V6.10938C8.08877 6.42839 8.10668 6.70996 8.14248 6.9541C8.18155 7.19824 8.23851 7.40983 8.31338 7.58887C8.38825 7.76465 8.4794 7.90951 8.58682 8.02344C8.69424 8.13737 8.81794 8.22201 8.95791 8.27734C9.10114 8.32943 9.25902 8.35547 9.43155 8.35547C9.6529 8.35547 9.84659 8.31315 10.0126 8.22852C10.1786 8.14388 10.317 8.01204 10.4276 7.83301C10.5416 7.65072 10.6262 7.41797 10.6815 7.13477C10.7369 6.84831 10.7646 6.50651 10.7646 6.10938ZM11.6728 16.8789V17.9629C11.6728 18.5456 11.6207 19.0371 11.5165 19.4375C11.4123 19.8379 11.2626 20.1602 11.0673 20.4043C10.872 20.6484 10.636 20.8258 10.3593 20.9365C10.0858 21.0439 9.7766 21.0977 9.43155 21.0977C9.15811 21.0977 8.90583 21.0635 8.67471 20.9951C8.44359 20.9268 8.23526 20.8177 8.04971 20.668C7.86742 20.515 7.71117 20.3164 7.58096 20.0723C7.45075 19.8281 7.35147 19.5319 7.28311 19.1836C7.21475 18.8353 7.18057 18.4284 7.18057 17.9629V16.8789C7.18057 16.2962 7.23265 15.8079 7.33682 15.4141C7.44424 15.0202 7.59561 14.7044 7.79092 14.4668C7.98623 14.2259 8.22061 14.0534 8.49405 13.9492C8.77074 13.8451 9.07998 13.793 9.42178 13.793C9.69847 13.793 9.95238 13.8271 10.1835 13.8955C10.4179 13.9606 10.6262 14.0664 10.8085 14.2129C10.9908 14.3561 11.1454 14.5482 11.2724 14.7891C11.4026 15.0267 11.5019 15.318 11.5702 15.6631C11.6386 16.0081 11.6728 16.4134 11.6728 16.8789ZM10.7646 18.1094V16.7275C10.7646 16.4085 10.745 16.1286 10.706 15.8877C10.6702 15.6436 10.6164 15.4352 10.5448 15.2627C10.4732 15.0902 10.3821 14.9502 10.2714 14.8428C10.164 14.7354 10.0386 14.6572 9.89541 14.6084C9.75544 14.5563 9.59756 14.5303 9.42178 14.5303C9.20694 14.5303 9.01651 14.571 8.85049 14.6523C8.68448 14.7305 8.5445 14.8558 8.43057 15.0283C8.31989 15.2008 8.23526 15.4271 8.17666 15.707C8.11807 15.987 8.08877 16.3271 8.08877 16.7275V18.1094C8.08877 18.4284 8.10668 18.71 8.14248 18.9541C8.18155 19.1982 8.23851 19.4098 8.31338 19.5889C8.38825 19.7646 8.4794 19.9095 8.58682 20.0234C8.69424 20.1374 8.81794 20.222 8.95791 20.2773C9.10114 20.3294 9.25902 20.3555 9.43155 20.3555C9.6529 20.3555 9.84659 20.3132 10.0126 20.2285C10.1786 20.1439 10.317 20.012 10.4276 19.833C10.5416 19.6507 10.6262 19.418 10.6815 19.1348C10.7369 18.8483 10.7646 18.5065 10.7646 18.1094Z" fill="#A3A3A3"/>
<path d="M19.4463 192.541C19.4463 192.541 42.1578 175.946 57.2988 168.255C72.4398 160.564 80.0103 160.564 95.1513 154.088C110.292 147.611 117.863 142.754 133.004 135.873C148.145 128.992 155.715 125.349 170.856 119.682C185.997 114.015 193.568 112.801 208.709 107.539C223.85 102.277 231.42 99.0385 246.561 93.3717C261.702 87.7048 269.273 85.2762 284.414 79.2046C299.555 73.133 307.125 68.6805 322.266 63.0136C337.407 57.3468 360.119 50.8704 360.119 50.8704" stroke="#A6CEE3" stroke-width="2"/>
<path d="M19.4464 195.185C18.6824 195.185 17.9498 194.881 17.4095 194.341C16.8692 193.801 16.5656 193.068 16.5654 192.304C16.5652 191.54 16.8685 190.808 17.4085 190.267C17.9485 189.727 18.681 189.423 19.4449 189.423C20.2089 189.422 20.9417 189.725 21.4822 190.265C22.0228 190.805 22.3268 191.537 22.3273 192.301C22.3279 193.065 22.025 193.798 21.4853 194.339C20.9456 194.88 20.2132 195.184 19.4493 195.185H19.4464Z" fill="#A6CEE3"/>
<path d="M56.8988 171.417C56.1348 171.417 55.4021 171.113 54.8619 170.573C54.3216 170.033 54.018 169.3 54.0178 168.536C54.0176 167.772 54.3209 167.04 54.8609 166.499C55.4009 165.959 56.1334 165.655 56.8973 165.655C57.6613 165.654 58.3941 165.957 58.9346 166.497C59.4752 167.037 59.7792 167.77 59.7797 168.534C59.7803 169.297 59.4774 170.03 58.9377 170.571C58.398 171.112 57.6656 171.416 56.9017 171.417H56.8988Z" fill="#A6CEE3"/>
<path d="M95.0714 157.012C94.3074 157.012 93.5748 156.708 93.0345 156.168C92.4942 155.628 92.1906 154.896 92.1904 154.132C92.1902 153.368 92.4935 152.635 93.0335 152.095C93.5735 151.554 94.306 151.25 95.0699 151.25C95.8339 151.25 96.5667 151.553 97.1073 152.093C97.6478 152.632 97.9518 153.365 97.9523 154.129C97.9529 154.893 97.65 155.626 97.1103 156.166C96.5706 156.707 95.8382 157.011 95.0743 157.012H95.0714Z" fill="#A6CEE3"/>
<path d="M132.524 139.006C131.76 139.006 131.027 138.703 130.487 138.162C129.947 137.622 129.643 136.89 129.643 136.126C129.643 135.362 129.946 134.629 130.486 134.089C131.026 133.548 131.758 133.244 132.522 133.244C133.286 133.244 134.019 133.547 134.56 134.087C135.1 134.626 135.404 135.359 135.405 136.123C135.405 136.887 135.102 137.62 134.563 138.16C134.023 138.701 133.291 139.005 132.527 139.006H132.524Z" fill="#A6CEE3"/>
<path d="M170.696 122.44C169.932 122.44 169.2 122.137 168.659 121.597C168.119 121.057 167.816 120.324 167.815 119.56C167.815 118.796 168.118 118.064 168.658 117.523C169.198 116.983 169.931 116.679 170.695 116.679C171.459 116.678 172.192 116.981 172.732 117.521C173.273 118.061 173.577 118.793 173.577 119.557C173.578 120.321 173.275 121.054 172.735 121.595C172.196 122.136 171.463 122.44 170.699 122.44H170.696Z" fill="#A6CEE3"/>
<path d="M208.149 110.196C207.385 110.196 206.652 109.893 206.112 109.353C205.572 108.813 205.268 108.08 205.268 107.316C205.268 106.552 205.571 105.82 206.111 105.279C206.651 104.739 207.383 104.435 208.147 104.435C208.911 104.434 209.644 104.737 210.185 105.277C210.725 105.817 211.029 106.549 211.03 107.313C211.03 108.077 210.727 108.81 210.188 109.351C209.648 109.892 208.916 110.196 208.152 110.196H208.149Z" fill="#A6CEE3"/>
<path d="M246.321 96.5119C245.557 96.5119 244.825 96.2085 244.285 95.6683C243.744 95.1282 243.441 94.3956 243.44 93.6317C243.44 92.8677 243.743 92.135 244.283 91.5946C244.823 91.0542 245.556 90.7504 246.32 90.75C247.084 90.7496 247.817 91.0527 248.357 91.5925C248.898 92.1324 249.202 92.8648 249.202 93.6288C249.203 94.3927 248.9 95.1256 248.36 95.6663C247.821 96.207 247.088 96.5111 246.324 96.5119H246.321Z" fill="#A6CEE3"/>
<path d="M283.774 82.1071C283.01 82.1071 282.277 81.8037 281.737 81.2636C281.197 80.7235 280.893 79.9909 280.893 79.2269C280.893 78.463 281.196 77.7302 281.736 77.1898C282.276 76.6494 283.008 76.3456 283.772 76.3452C284.536 76.3448 285.269 76.6479 285.81 77.1878C286.35 77.7276 286.654 78.4601 286.655 79.224C286.655 79.988 286.352 80.7209 285.813 81.2615C285.273 81.8022 284.541 82.1064 283.777 82.1071H283.774Z" fill="#A6CEE3"/>
<path d="M321.946 65.5417C321.182 65.5417 320.45 65.2382 319.91 64.6981C319.369 64.158 319.066 63.4254 319.065 62.6614C319.065 61.8975 319.368 61.1647 319.908 60.6243C320.448 60.0839 321.181 59.7802 321.945 59.7798C322.709 59.7794 323.442 60.0825 323.982 60.6223C324.523 61.1622 324.827 61.8946 324.827 62.6586C324.828 63.4225 324.525 64.1554 323.985 64.6961C323.446 65.2367 322.713 65.5409 321.949 65.5417H321.946Z" fill="#A6CEE3"/>
<path d="M360.119 54.0179C359.355 54.0179 358.622 53.7144 358.082 53.1743C357.542 52.6342 357.238 51.9016 357.238 51.1376C357.238 50.3737 357.541 49.6409 358.081 49.1005C358.621 48.5601 359.354 48.2563 360.118 48.256C360.881 48.2556 361.614 48.5586 362.155 49.0985C362.695 49.6383 362.999 50.3708 363 51.1347C363.001 51.8987 362.698 52.6316 362.158 53.1723C361.618 53.7129 360.886 54.0171 360.122 54.0179H360.119Z" fill="#A6CEE3"/>
</svg>
