<svg width="22" height="22" viewBox="0 0 22 22" fill="none" xmlns="http://www.w3.org/2000/svg">
<path d="M20.5312 18.8438L15.8438 14.1562C16.8984 12.5938 17.4453 10.6406 17.1719 8.53125C16.6641 4.9375 13.7344 2.04688 10.1797 1.57812C4.86719 0.914062 0.375 5.40625 1.03906 10.7188C1.50781 14.2734 4.39844 17.2031 7.99219 17.7109C10.1016 17.9844 12.0547 17.4375 13.6562 16.3828L18.3047 21.0703C18.9297 21.6562 19.9062 21.6562 20.5312 21.0703C21.1172 20.4453 21.1172 19.4688 20.5312 18.8438ZM4.08594 9.625C4.08594 6.89062 6.3125 4.625 9.08594 4.625C11.8203 4.625 14.0859 6.89062 14.0859 9.625C14.0859 12.3984 11.8203 14.625 9.08594 14.625C6.3125 14.625 4.08594 12.3984 4.08594 9.625Z" fill="black"/>
</svg>
